<svg xmlns="http://www.w3.org/2000/svg" xmlns:xlink="http://www.w3.org/1999/xlink" width="1270" height="394" viewBox="0 0 1270 394">
  <defs>
    <clipPath id="clip-path">
      <rect id="Rectangle_337" data-name="Rectangle 337" width="260" height="260" transform="translate(4426 2417)" fill="#fff" stroke="#707070" stroke-width="1"/>
    </clipPath>
    <linearGradient id="linear-gradient" x1="0.5" y1="1" x2="0.5" gradientUnits="objectBoundingBox">
      <stop offset="0" stop-color="gray" stop-opacity="0.251"/>
      <stop offset="0.54" stop-color="gray" stop-opacity="0.122"/>
      <stop offset="1" stop-color="gray" stop-opacity="0.102"/>
    </linearGradient>
  </defs>
  <g id="home-1" transform="translate(-4503 -3822)">
    <g id="Group_94" data-name="Group 94">
      <rect id="Rectangle_297" data-name="Rectangle 297" width="1270" height="394" transform="translate(4503 3822)" fill="#e2d8d8"/>
    </g>
    <text id="Hi_I_m_your_personal_finance_assistant" data-name="Hi!I&apos;m your personal finance assistant" transform="translate(4974 4094)" fill="#3f3d56" font-size="20" font-family="Gilroy-Regular, Gilroy"><tspan x="152.84" y="18">Hi!</tspan><tspan x="7.63" y="41">I&apos;m your personal finance assistant</tspan></text>
    <g id="Mask_Group_60" data-name="Mask Group 60" transform="translate(582 1419)" clip-path="url(#clip-path)">
      <g id="undraw_powerful_26ry" transform="translate(4426.001 2437.039)">
        <path id="Path_3441" data-name="Path 3441" d="M113.583,14.9c8.305-7.4,21.335-8.906,33.2-8.316,37.257,1.85,70.892,19.837,99.974,40.181,10.533,7.363,20.9,15.3,27.736,25.444,13.915,20.647,9.788,49.249-9.573,66.258-6.582,5.785-14.564,10.222-22.768,14.155-14.569,6.986-30.287,12.605-46.83,14.2-11.79,1.138-23.726.212-35.446-1.376-32.75-4.442-64.9-14.264-91.849-31.066C56.2,127.014,45.066,117.852,40.2,105.924S38.484,78.913,50.551,71.842c4.991-2.918,10.957-4.238,16.8-5.475,8.6-1.811,17.335-3.622,25.1-7.322,8.021-3.824,17.506-11.224,15.92-19.692C106.662,30.271,105.3,22.29,113.583,14.9Z" transform="translate(-25.177 -6.468)" fill="#6c63ff" opacity="0.1"/>
        <ellipse id="Ellipse_815" data-name="Ellipse 815" cx="122.988" cy="18.9" rx="122.988" ry="18.9" transform="translate(14.023 182.121)" fill="#6c63ff"/>
        <path id="Path_3442" data-name="Path 3442" d="M228.11,144.242s-1.578-.479-3.677-1.081a7.338,7.338,0,0,0-2.96-.833c-2.476-.68-5.019-1.327-6.4-1.529a78.828,78.828,0,0,1-9.009-2.295,8.024,8.024,0,0,1-4.5-1.436s-2.378-4.305-3.759-5.252a1.034,1.034,0,0,0-.173-.106,3.274,3.274,0,0,1-.543-.4c-1.42-4.631-4.523-4.916-4.683-4.931h0c-.6-.68-1.144-1.307-1.552-1.793,1.6-8.647,6.383-18.3,17.376-26.46,0,0,6.53-7.643,2.735-16.486S206.1,72.652,199.58,74.3l-14.75,7.045a77.845,77.845,0,0,1-12.238,1.444,4.972,4.972,0,0,0-3.154-2.81c-3.027-.73-5.666,2.44-8.572,1.568-2.217-.665-4.9-3.281-7.074-.748-.308.357-.517.794-.807,1.162a3.263,3.263,0,0,1-.714.649c-4.952-.326-10.45-.869-16.481-1.715L122.734,73.1s-8.047-3.746-8.349,6.145-1.063,14.535,2.427,17.234c2.53,1.953,10.794,15.312,13.889,26.8-.455.652-.737,1.063-.737,1.063s-8.82,11.961-9.49,12.248c-.044.018-.062.083-.06.181-.129.279-.517.815-1.762,1.159-1.726.479-9.392,2.774-10.448,2.774s-5.845.287-6.326,2.2a6.621,6.621,0,0,1,.908.018l-.23.292c-1.309,1.682-3.514,4.815-3.648,6.96-.194,3.061.67,12.533,5.656,12.437s2.683-14.158,2.683-14.158l.585-1.718.016-.041.4,2.828c.088-.049.173-.1.259-.14.453,1.376,2.1,2.724,6.743,2.818,0,0,7.188.67,12.556,11.384,4.872,9.728,21.043,18.745,32.874,18.678v15.764l-1.627.479-21.131.362a1.382,1.382,0,0,0-1.361,1.317l-.129,2.722,6.127.577-19.068,4.592s-3.364-.287-2.781,4.5h4.7l.1-.957,38.147-2.678,2.207.549c-.308,1.612-.618,2.926-.7,3.27l-.023.088a.749.749,0,0,1-.031.176c-.225-.078-.352-.129-.352-.129-.517.59-.815,6.745-.862,7.369s2.4,1.374,2.4,1.374c1.107.406,5.4,0,5.4,0h0a32.391,32.391,0,0,0,5.232-1.418l-.336-6.745c-.166.054-.331.1-.5.15q.016-.142.031-.295c.034-.4.062-.82.088-1.257l17.061,4.23h.479v.862h5.273s.479-3.635-1.439-4.784-11.982-5.071-11.982-5.071l2.411-.228h0l9.612-.913v.259h1.436l-.031-.4,2.668-.259,3.162.1s-.1-4.018-2.492-4.305c-.414-.052-1.775-.189-3.736-.386l-.624-7.573c1.529-2.587,5.464,5.26,5.464,5.26s.016.059.039.158c.189.8,1.071,4.4,1.669,4.81h.018a8.278,8.278,0,0,0,1.035.473,20.734,20.734,0,0,0,4.8,1.151c3.069.385,9.777-1.625,11.04-2.295a1.589,1.589,0,0,0,.538-.445,1.121,1.121,0,0,0-.075-1.26l-1.348-.137c1.185-.536,1.413-2.525-.8-2.9-.085-.016-.173-.026-.259-.036a3.515,3.515,0,0,1,.4-.551c-1.151.22-4.22-1.172-4.22-1.172a7.093,7.093,0,0,0-1.376-.435l-.034-.059c-.047-.085-.091-.173-.132-.259a17.405,17.405,0,0,1-1.141-4.4c-.479-2.776-6.085-13.49-6.085-13.49s-1.953-4.461-3.622-9.2a15.562,15.562,0,0,0,4.4-5.692h0l1.646-2.53a30.789,30.789,0,0,0,2.911-4.473l1.674-2.572h0c3.12-.228,8.251-.585,10.887-.67.755,4.1,1.671,8.841,2.085,10.129.776,2.393,4.7-.383,6.23-6.5S228.11,144.242,228.11,144.242Zm-59.092,50.476V181.264c.82-.129,1.723-.282,2.693-.455-.58,3.433-1.294,6.574-1.294,6.574C170.48,189.062,169.538,192.8,169.018,194.718Zm30.7-4.235.5.166a5.434,5.434,0,0,1,2.111,1.358A17.026,17.026,0,0,0,199.722,190.483Zm-3.05-12.37s1.151,2.2-1.149,5.837c-1.726,2.727-.7,4.326,1.783,5.56a19.739,19.739,0,0,0-2.5-.68l.122.07c-2.023-.442-1.035,1.364-1.035,1.364,2.01,1.951,2.942,6.88,3.363,10.789-5.278-.517-13.573-1.327-20.277-1.974a17.678,17.678,0,0,0,.228-2.021,44.064,44.064,0,0,1,1.247-5.646s3.583-8.344,5.56-13.369a81.644,81.644,0,0,0,10.957-3.845c.924,2.026,1.7,3.915,1.7,3.915Z" transform="translate(-25.177 -6.468)" fill="url(#linear-gradient)"/>
        <rect id="Rectangle_339" data-name="Rectangle 339" width="8.241" height="23.588" transform="translate(135.728 172.478)" fill="#6c63ff"/>
        <rect id="Rectangle_340" data-name="Rectangle 340" width="8.241" height="23.588" transform="translate(135.728 172.478)" opacity="0.3"/>
        <path id="Path_3443" data-name="Path 3443" d="M137.065,199.838l-.129,2.7L143,203.1l-18.854,4.548s-3.314-.285-2.745,4.453h4.642l.093-.947,37.7-2.655,29.273,7.3h.473v.851H198.8s.473-3.6-1.423-4.735-11.84-5.022-11.84-5.022l15.915-1.516,3.125.1s-.093-3.979-2.463-4.264-35.824-3.506-35.824-3.506H160.9l-1.612.484-20.872.344a1.371,1.371,0,0,0-1.356,1.307Z" transform="translate(-25.177 -6.468)" fill="#6c63ff"/>
        <path id="Path_3444" data-name="Path 3444" d="M169.145,178.946v2.735c-2.968.473-4.831.675-4.831.675a19.083,19.083,0,0,1-3.41.308v-3.718Z" transform="translate(-25.177 -6.468)" opacity="0.1"/>
        <path id="Path_3445" data-name="Path 3445" d="M233.14,156.573c-1.516,6.062-5.4,8.81-6.16,6.44-.688-2.16-2.8-14.114-3.164-16.178-.034-.2-.054-.305-.054-.305l-.378-2.461,3.208.29.957.088S234.653,150.509,233.14,156.573Z" transform="translate(-25.177 -6.468)" fill="#c37098"/>
        <path id="Path_3446" data-name="Path 3446" d="M109.748,146.548s-3.314,5.589,6.254,5.777c0,0,7.1.662,12.419,11.273s24.158,20.367,35.9,18.189c0,0,39.327-4.243,44.028-19.607l3.244-8.339s13.454-1.035,14.872-.854.473-3.881.473-3.881l-3.506-2.556-8.336,1.42-9.472,8.714L176.061,170.61l-28.515-4.075S125,152.046,124.812,151.378s-9.094-6.727-9.094-6.727Z" transform="translate(-25.177 -6.468)" fill="#6c63ff"/>
        <path id="Path_3447" data-name="Path 3447" d="M109.42,143.308v1.423l-.753,2.184-.58,1.7s2.272,13.927-2.652,14.021-5.775-9.286-5.586-12.313c.135-2.124,2.313-5.226,3.607-6.89.551-.714.942-1.164.942-1.164Z" transform="translate(-25.177 -6.468)" fill="#c37098"/>
        <path id="Path_3448" data-name="Path 3448" d="M137.065,199.838l-.129,2.7L143,203.1l-18.854,4.548s-3.314-.285-2.745,4.453h4.642l.093-.947,37.7-2.655,29.273,7.3h.473v.851H198.8s.473-3.6-1.423-4.735-11.84-5.022-11.84-5.022l15.915-1.516,3.125.1s-.093-3.979-2.463-4.264-35.824-3.506-35.824-3.506H160.9l-1.612.484-20.872.344a1.371,1.371,0,0,0-1.356,1.307Z" transform="translate(-25.177 -6.468)" opacity="0.3"/>
        <path id="Path_3449" data-name="Path 3449" d="M109.748,146.548s-3.314,5.589,6.254,5.777c0,0,7.1.662,12.419,11.273s24.158,20.367,35.9,18.189c0,0,39.327-4.243,44.028-19.607l3.244-8.339s13.454-1.035,14.872-.854.473-3.881.473-3.881l-3.506-2.556-8.336,1.42-9.472,8.714L176.061,170.61l-28.515-4.075S125,152.046,124.812,151.378s-9.094-6.727-9.094-6.727Z" transform="translate(-25.177 -6.468)" opacity="0.4"/>
        <path id="Path_3450" data-name="Path 3450" d="M217.934,145.086l-8.1,9.056c-19.358,22.406-55.821,14.1-68.564,12.316s-19.26-21.216-19.26-21.216a4.9,4.9,0,0,0,1.449-.06c2.145-.367,6.166-2.142,8.507-10.031,3.3-11.125-10.955-35.317-14.406-37.987s-2.7-7.27-2.4-17.076S123.4,74,123.4,74L136.3,81.712c31.661,4.453,48.468.445,48.468.445l14.554-6.973c6.453-1.633,7.5-1.485,11.255,7.27s-2.7,16.323-2.7,16.323c-21.757,16.173-18.905,38.292-15.457,46.445,2.329,5.5,13.087,3.524,19.868,1.648C215.58,145.973,217.934,145.086,217.934,145.086Z" transform="translate(-25.177 -6.468)" fill="#6c63ff"/>
        <path id="Path_3451" data-name="Path 3451" d="M217.934,145.086l-8.1,9.056c-19.358,22.406-55.821,14.1-68.564,12.316s-19.26-21.216-19.26-21.216a4.9,4.9,0,0,0,1.449-.06c2.145-.367,6.166-2.142,8.507-10.031,3.3-11.125-10.955-35.317-14.406-37.987s-2.7-7.27-2.4-17.076S123.4,74,123.4,74L136.3,81.712c31.661,4.453,48.468.445,48.468.445l14.554-6.973c6.453-1.633,7.5-1.485,11.255,7.27s-2.7,16.323-2.7,16.323c-21.757,16.173-18.905,38.292-15.457,46.445,2.329,5.5,13.087,3.524,19.868,1.648C215.58,145.973,217.934,145.086,217.934,145.086Z" transform="translate(-25.177 -6.468)" opacity="0.1"/>
        <path id="Path_3452" data-name="Path 3452" d="M215.091,144.509l-7.671,8.66c-18.331,21.457-52.861,13.5-64.941,11.793s-18.235-20.321-18.235-20.321a4.617,4.617,0,0,0,1.369-.057c2.034-.352,5.84-2.052,8.057-9.6,3.125-10.66-10.373-33.821-13.64-36.378s-2.564-6.955-2.274-16.326,7.816-5.827,7.816-5.827l12.22,7.379c29.982,4.261,45.9.427,45.9.427l13.783-6.68c6.111-1.552,7.1-1.42,10.657,6.962s-2.556,15.633-2.556,15.633c-20.605,15.482-17.907,36.667-14.629,44.481,2.2,5.265,12.391,3.363,18.812,1.578C212.863,145.36,215.091,144.509,215.091,144.509Z" transform="translate(-25.177 -6.468)" fill="#6c63ff"/>
        <path id="Path_3453" data-name="Path 3453" d="M227.548,144.447s-3.41-.285-3.788,2.083l-23.588,1.982-5.865.481-6.21-21.8-1.182-4.158,2.937.947s1.087,1.294,2.445,2.825c1.909,2.163,4.36,4.841,5.133,5.226a1.14,1.14,0,0,1,.171.106c1.363.937,3.713,5.2,3.713,5.2a7.916,7.916,0,0,0,4.455,1.42,78.616,78.616,0,0,0,8.9,2.274C217.882,141.513,227.548,144.447,227.548,144.447Z" transform="translate(-25.177 -6.468)" fill="#3f3d56"/>
        <path id="Path_3454" data-name="Path 3454" d="M215.091,144.509l-7.671,8.66c-18.331,21.457-52.861,13.5-64.941,11.793s-18.235-20.321-18.235-20.321a4.617,4.617,0,0,0,1.369-.057,35.188,35.188,0,0,1,4.6,4.605c13.358,15.821,33.635,14.779,33.635,14.779s29.366,3.5,40.165-12.981a46.554,46.554,0,0,1,5.741-4.768C212.863,145.36,215.091,144.509,215.091,144.509Z" transform="translate(-25.177 -6.468)" opacity="0.1"/>
        <path id="Path_3455" data-name="Path 3455" d="M227.548,144.447s-3.41-.285-3.788,2.083l-23.588,1.982-5.865.481-6.21-21.8-1.182-4.158,2.937.947s1.087,1.294,2.445,2.825c1.909,2.163,4.36,4.841,5.133,5.226a1.14,1.14,0,0,1,.171.106c1.363.937,3.713,5.2,3.713,5.2a7.916,7.916,0,0,0,4.455,1.42,78.616,78.616,0,0,0,8.9,2.274C217.882,141.513,227.548,144.447,227.548,144.447Z" transform="translate(-25.177 -6.468)" opacity="0.1"/>
        <path id="Path_3456" data-name="Path 3456" d="M227.833,144.731s-3.41-.285-3.788,2.083l-.23.021c-.034-.2-.054-.305-.054-.305l-.378-2.461,3.208.29Z" transform="translate(-25.177 -6.468)" opacity="0.1"/>
        <path id="Path_3457" data-name="Path 3457" d="M208,163.13c-5.692,6.277-16.533,13.532-36.108,12.877,0,0-35.239,4.455-48.22-22.354,0,0-5.025-9.211-14.334-4.119l-.259.14-.569-3.979s8.336-11.18,21.692,4.642,33.635,14.779,33.635,14.779,29.369,3.5,40.168-12.981c0,0,15.265-15.438,22.453-5.966l.391,2.874.085.631a12.188,12.188,0,0,0-12.776,3.977Z" transform="translate(-25.177 -6.468)" opacity="0.1"/>
        <path id="Path_3458" data-name="Path 3458" d="M108.517,145.125s8.336-11.177,21.695,4.642a39.183,39.183,0,0,0,5.025,4.97c12.877,10.618,28.605,9.816,28.605,9.816s29.366,3.506,40.165-12.978c0,0,15.265-15.441,22.453-5.969l.473,3.506a12.151,12.151,0,0,0-13.356,4.73s-7.674,22.735-41.684,21.6c0,0-35.239,4.453-48.22-22.357,0,0-5.115-9.379-14.587-3.979Z" transform="translate(-25.177 -6.468)" fill="#6c63ff"/>
        <path id="Path_3459" data-name="Path 3459" d="M185.3,97.958l-.683.054c-.727-1.433-.911-7.762-.647-13.741l-.567-.023c-.124,2.812-.391,11.172.665,13.806-6.691.5-36.409,2.517-47.011-.016a18.849,18.849,0,0,0,.994-14.316l-.517.22a18.229,18.229,0,0,1-.908,13.713c-1.726-2.7-10.846-16.251-18.965-14.489l.122.556c7.5-1.635,16.313,11.1,18.248,14.054l-.347-.088.75.724.259.406.049-.1a28.07,28.07,0,0,1,7.123,19.3c-.093,3.014,1.9,5.718,5.762,7.824a34.1,34.1,0,0,0,15.545,3.6c4.256,0,8.132-.792,10.5-2.427a5.255,5.255,0,0,0,2.481-5.25c-1.57-11.563,7.369-23.164,7.519-23.356,12.238-14.647,22.331-13.6,22.432-13.586l.07-.564C207.743,84.209,197.725,83.141,185.3,97.958Zm-7.721,23.883a4.667,4.667,0,0,1-2.238,4.706c-5.092,3.506-17.938,2.9-25.457-1.2-2.554-1.395-5.573-3.79-5.464-7.309a28.716,28.716,0,0,0-6.929-19.319c11.3,2.385,40.828.334,46.879-.122a.73.73,0,0,0,.285.225c-1.979,2.812-8.46,12.908-7.076,23.017Z" transform="translate(-25.177 -6.468)" opacity="0.1"/>
        <path id="Path_3460" data-name="Path 3460" d="M150.791,196.728l11.951,3.467-2.383.228Z" opacity="0.1"/>
        <path id="Path_3461" data-name="Path 3461" d="M117.823,196.633l8.621-2.083-11,1.86Z" opacity="0.1"/>
        <path id="Path_3462" data-name="Path 3462" d="M109.42,143.308v1.423l-.753,2.184c-1-2.753-3.749-3.364-5.216-3.485.551-.714.942-1.164.942-1.164Z" transform="translate(-25.177 -6.468)" opacity="0.1"/>
        <path id="Path_3463" data-name="Path 3463" d="M123.249,137.342l-2.083-.473s-.1.851-1.811,1.325-9.283,2.748-10.326,2.748-5.78.285-6.254,2.179c0,0,5.591-.378,6.442,4.548l16.2-.758Z" transform="translate(-25.177 -6.468)" fill="#3f3d56"/>
        <path id="Path_3464" data-name="Path 3464" d="M123.249,137.342l-2.083-.473s-.1.851-1.811,1.325-9.283,2.748-10.326,2.748-5.78.285-6.254,2.179c0,0,5.591-.378,6.442,4.548l16.2-.758Z" transform="translate(-25.177 -6.468)" opacity="0.1"/>
        <path id="Path_3465" data-name="Path 3465" d="M194.633,188.591s4.758,2.717,6.572,5.345a50.37,50.37,0,0,1,3.364,5.907s3.552,1.552.96-4.093S194.633,188.591,194.633,188.591Z" transform="translate(-25.177 -6.468)" fill="#3f3d56"/>
        <path id="Path_3466" data-name="Path 3466" d="M194.633,188.591s4.758,2.717,6.572,5.345a50.37,50.37,0,0,1,3.364,5.907s3.552,1.552.96-4.093S194.633,188.591,194.633,188.591Z" transform="translate(-25.177 -6.468)" fill="#3f3d56"/>
        <path id="Path_3467" data-name="Path 3467" d="M194.633,188.591s4.758,2.717,6.572,5.345a50.37,50.37,0,0,1,3.364,5.907s3.552,1.552.96-4.093S194.633,188.591,194.633,188.591Z" transform="translate(-25.177 -6.468)" opacity="0.1"/>
        <path id="Path_3468" data-name="Path 3468" d="M154.095,81.63c-.3.354-.517.776-.794,1.149-1.206,1.5-3.477,1.433-5.206,2.274-2.365,1.151-3.508,4-3.441,6.629s1.11,5.123,2.088,7.568,1.92,5,1.78,7.622a19.1,19.1,0,0,1-1,4.551A4.19,4.19,0,0,1,146,113.95a48.581,48.581,0,0,0,7.84.755c7.545.116,15.092-1.514,22.6-.763a7.012,7.012,0,0,1-2.155-6.618,26.027,26.027,0,0,1,.924-2.74,14.882,14.882,0,0,0,.028-9.47c-.305-.908-.7-1.788-.957-2.709-.6-2.142-.437-4.422-.862-6.6s-1.7-4.463-3.858-4.986c-2.991-.722-5.6,2.414-8.473,1.552C158.894,81.712,156.25,79.12,154.095,81.63Z" transform="translate(-25.177 -6.468)" fill="#3f3d56"/>
        <g id="Group_125" data-name="Group 125" opacity="0.1">
          <path id="Path_3469" data-name="Path 3469" d="M175.282,104.618a14.876,14.876,0,0,0,.776-5.058,14.892,14.892,0,0,1-.776,4.489,26.44,26.44,0,0,0-.924,2.74,6.6,6.6,0,0,0-.142,1.715,6.579,6.579,0,0,1,.142-1.146A25.454,25.454,0,0,1,175.282,104.618Z" transform="translate(-25.177 -6.468)"/>
          <path id="Path_3470" data-name="Path 3470" d="M148.6,106.08a18.832,18.832,0,0,0-1.79-7.371,22.528,22.528,0,0,1-2.083-7.5v.517c.067,2.629,1.11,5.123,2.085,7.565A20.247,20.247,0,0,1,148.6,106.08Z" transform="translate(-25.177 -6.468)"/>
          <path id="Path_3471" data-name="Path 3471" d="M175.906,113.358c-7.309-.608-14.652.926-21.992.815a49.077,49.077,0,0,1-7.283-.662,2.287,2.287,0,0,1-.556.473,48.578,48.578,0,0,0,7.84.756c7.545.116,15.089-1.516,22.6-.776A6.509,6.509,0,0,1,175.906,113.358Z" transform="translate(-25.177 -6.468)"/>
        </g>
        <path id="Path_3472" data-name="Path 3472" d="M165.981,219.176l6.246,1.151-.43.745s-4.248.4-5.343,0S165.981,219.176,165.981,219.176Z" transform="translate(-25.177 -6.468)" fill="#3f3d56"/>
        <path id="Path_3473" data-name="Path 3473" d="M172.416,166.175s25.9-8.166,24.952-13.376-23.946-6.468-24.952-5.131S172.416,166.175,172.416,166.175Z" transform="translate(-25.177 -6.468)" fill="#3f3d56"/>
        <path id="Path_3474" data-name="Path 3474" d="M172.416,166.175s25.9-8.166,24.952-13.376-23.946-6.468-24.952-5.131S172.416,166.175,172.416,166.175Z" transform="translate(-25.177 -6.468)" opacity="0.2"/>
        <path id="Path_3475" data-name="Path 3475" d="M172.416,115.552l-4.916,4.36-6.254,1.136-11.273-1.42-6.347-4.36s1.12-.246,4.264-.947l2.556-.567c5.118-1.138,3.032-9.573,3.032-9.573S167.5,96.7,165.7,106.17c-.981,5.162,1.1,7.482,3.2,8.538A8.582,8.582,0,0,0,172.416,115.552Z" transform="translate(-25.177 -6.468)" fill="#c37098"/>
        <circle id="Ellipse_816" data-name="Ellipse 816" cx="10.898" cy="10.898" r="10.898" transform="translate(124.299 81.658)" opacity="0.1"/>
        <circle id="Ellipse_817" data-name="Ellipse 817" cx="10.898" cy="10.898" r="10.898" transform="translate(124.299 81.373)" fill="#c37098"/>
        <path id="Path_3476" data-name="Path 3476" d="M172.416,115.552l-4.916,4.36-6.254,1.136-11.273-1.42-6.347-4.36s1.12-.246,4.264-.947l.662.38H168.9a8.582,8.582,0,0,0,3.511.851Z" transform="translate(-25.177 -6.468)" opacity="0.1"/>
        <path id="Path_3477" data-name="Path 3477" d="M158.395,114.985h11.151s3.816-1.423,5.048-.569,4.737.947,5.211.569,7.482,3.514,10.041,9l-9.094,7.193-39.5,15.733s-1.811-3.128-1.138-4.168-1.232-3.027-1.232-3.027-.662-3.506,0-4.546l-8.336-10.422s5.78-8.432,7.107-9.283c0,0,.473-1.4.947-1.314s8.921.259,8.921.259l1.035.585Z" transform="translate(-25.177 -6.468)" fill="#3f3d56"/>
        <path id="Path_3478" data-name="Path 3478" d="M158.395,114.985h11.151s3.816-1.423,5.048-.569,4.737.947,5.211.569,7.482,3.514,10.041,9l-.944.748-8.15,6.445-39.5,15.733s-1.811-3.128-1.138-4.168-1.232-3.027-1.232-3.027-.662-3.506,0-4.546l-8.336-10.422s5.78-8.432,7.107-9.283c0,0,.473-1.4.947-1.314s8.921.259,8.921.259l1.035.585Z" transform="translate(-25.177 -6.468)" opacity="0.1"/>
        <path id="Path_3479" data-name="Path 3479" d="M134.048,123.7l-3.506,1.035s-8.714,11.85-9.376,12.134,4.261,10.041,4.261,10.041,1.705-1.327,2.559-2.179,10.893-9.573,10.893-9.573Z" transform="translate(-25.177 -6.468)" fill="#3f3d56"/>
        <path id="Path_3480" data-name="Path 3480" d="M134.048,123.7l-3.506,1.035s-8.714,11.85-9.376,12.134,4.261,10.041,4.261,10.041,1.705-1.327,2.559-2.179,10.893-9.573,10.893-9.573Z" transform="translate(-25.177 -6.468)" opacity="0.1"/>
        <path id="Path_3481" data-name="Path 3481" d="M200.172,148.511l-5.865.481-6.21-21.8,4.2-.386c1.909,2.163,4.36,4.841,5.133,5.226a1.14,1.14,0,0,1,.171.106,17.141,17.141,0,0,1,.489,3.175c.569,8.279,1.325,9.9,1.325,9.9S199.74,146.553,200.172,148.511Z" transform="translate(-25.177 -6.468)" opacity="0.1"/>
        <path id="Path_3482" data-name="Path 3482" d="M219.875,201.1c-.16-.023-.383-.047-.655-.072l-.259-.023c-3.449-.3-12.9-.758-12.9-.758a23.968,23.968,0,0,0-.68-2.473c-.036-.116-.078-.238-.119-.36-.89-2.587-2.569-6.137-5.265-7.017-4.357-1.42-6.913-3.032-4.639-6.634s1.136-5.777,1.136-5.777-3.149-7.671-4.225-8.618c-.636-.561-2.212-3.71-3.418-6.652-.116-.285-.233-.572-.339-.854A16.627,16.627,0,0,1,187.3,157.8c-.088-1.995-3.666-18.579-4.274-21.384-.054-.259-.085-.4-.085-.4a.562.562,0,0,0-.023-.132c-.166-1.014-1.071-7.708,3.529-8.587l5.816-.536h0c.194.016,4.706.432,5.263,8.538.569,8.279,1.325,9.9,1.325,9.9s2.37,9.573,2.559,14.683,5.824,18,5.824,18,5.542,10.608,6.018,13.358a17.213,17.213,0,0,0,1.125,4.367c.041.088.085.173.129.259a3.845,3.845,0,0,0,4.052,2.194,6.134,6.134,0,0,1,.968,0,3.818,3.818,0,0,1,.411.049C222.578,198.558,221.7,201.347,219.875,201.1Z" transform="translate(-25.177 -6.468)" fill="#c37098"/>
        <path id="Path_3483" data-name="Path 3483" d="M190.426,143.676c-.1,7.969-.473,14.887-.473,14.887s-.476,1.772-1.107,4.14a20.8,20.8,0,0,1-1.552-4.916c-.1-2.163-4.37-21.772-4.37-21.772a.562.562,0,0,0-.023-.132l.59.132S190.509,135.707,190.426,143.676Z" transform="translate(-25.177 -6.468)" opacity="0.1"/>
        <path id="Path_3484" data-name="Path 3484" d="M189.846,143.676c-.1,7.969-.473,14.887-.473,14.887s-.365,1.361-.877,3.294c-1.123,4.225-2.965,11.188-3.291,12.621-.473,2.07-6.727,16.67-6.727,16.67a43.743,43.743,0,0,0-1.234,5.591c0,1.136-.854,5.692-.854,5.692V206.5s0,3.806-.223,6.347c-.021.2-.041.4-.06.585a3.992,3.992,0,0,1-.38,1.594c-.66.761-3.5,5.307-3.5,5.307s-.367,0-.931-.013h0a15.321,15.321,0,0,1-5.006-.815,1.9,1.9,0,0,1-.968-.776c-.693-1.384-.259-4.7-.072-5.9.041-.279.072-.445.072-.445a.262.262,0,0,1,.023-.088c.22-.924,2.1-8.926,1.115-10.711-1.035-1.894,2.37-5.966,2.37-5.966s1.8-6.16,1.705-8.432c0,0,2.559-11.18,1.894-14.305a30.011,30.011,0,0,1,.282-6.393c.417-3.806,1.092-8.461,1.617-11.876.427-2.787.755-4.75.755-4.75s-.158-.049-.409-.106a3.717,3.717,0,0,0-2.719.2c-1.035.758-.665-8.052-.665-8.052l8.422-6.587,3.213.7a5.108,5.108,0,0,1,.652.023C185.321,136.193,189.924,137.21,189.846,143.676Z" transform="translate(-25.177 -6.468)" fill="#c37098"/>
        <path id="Path_3485" data-name="Path 3485" d="M222.131,202.361a1.529,1.529,0,0,1-.533.44c-1.247.665-7.878,2.655-10.911,2.274a20.477,20.477,0,0,1-4.737-1.141,8.112,8.112,0,0,1-1.035-.468H204.9c-.592-.4-1.464-3.966-1.653-4.761-.021-.1-.036-.158-.036-.158s-3.881-7.762-5.4-5.208l1.035,12.7h-1.42s-.189-12.6-3.695-16.013c0,0-1.014-1.858,1.136-1.325s7.3,3.979,7.865,5.969a18.792,18.792,0,0,0,1.552,3.5c.4.735.714,1.239.714,1.239l13.93,1.408,3.123.313A1.093,1.093,0,0,1,222.131,202.361Z" transform="translate(-25.177 -6.468)" fill="#3f3d56"/>
        <path id="Path_3486" data-name="Path 3486" d="M222.131,202.361a1.529,1.529,0,0,1-.533.44c-1.247.665-7.878,2.655-10.911,2.274a20.477,20.477,0,0,1-4.737-1.141,8.112,8.112,0,0,1-1.035-.468H204.9c3.045-.543,9.772-1.64,14.1-1.552A8.98,8.98,0,0,1,222.131,202.361Z" transform="translate(-25.177 -6.468)" opacity="0.1"/>
        <path id="Path_3487" data-name="Path 3487" d="M218.933,200.516c0,.155,0,.318.016.486-3.449-.3-12.9-.758-12.9-.758a24.681,24.681,0,0,0-.8-2.846c2.489-1.141,6.054-2.37,9.125-1.8a3.892,3.892,0,0,0,4.181,2.453,6.132,6.132,0,0,1,.968,0,5.366,5.366,0,0,0-.587,2.461Z" transform="translate(-25.177 -6.468)" opacity="0.1"/>
        <path id="Path_3488" data-name="Path 3488" d="M219.217,200.8v.225l-.259-.023c-3.449-.3-12.9-.758-12.9-.758a23.97,23.97,0,0,0-.68-2.473c2.453-1.144,6.034-2.417,9.136-1.9a3.845,3.845,0,0,0,4.052,2.194,6.132,6.132,0,0,1,.968,0,3.818,3.818,0,0,1,.411.049A5.325,5.325,0,0,0,219.217,200.8Z" transform="translate(-25.177 -6.468)" opacity="0.1"/>
        <path id="Path_3489" data-name="Path 3489" d="M218.933,200.8a6.433,6.433,0,0,0,.091,1.1h-.031l-13.043,2.039a8.117,8.117,0,0,1-1.035-.468H204.9c-.592-.4-1.464-3.966-1.653-4.761.3-.163.652-.347,1.048-.543,2.831-1.415,7.873-3.423,11.609-1.79,0,0,3.032,1.379,4.168,1.162A4.841,4.841,0,0,0,218.933,200.8Z" transform="translate(-25.177 -6.468)" fill="#3f3d56"/>
        <path id="Path_3490" data-name="Path 3490" d="M176.11,213.427a3.993,3.993,0,0,1-.38,1.594c-.66.761-3.5,5.307-3.5,5.307s-.373,0-.944-.013c-.075-1.224-.541-3.242-2.75-3.286-1.746-.034-2.2,1.281-2.256,2.471a1.9,1.9,0,0,1-.968-.776c-.693-1.384-.259-4.7-.072-5.9A19.486,19.486,0,0,0,176.11,213.427Z" transform="translate(-25.177 -6.468)" opacity="0.1"/>
        <path id="Path_3491" data-name="Path 3491" d="M176.17,212.842c-.021.2-.041.4-.06.585a3.993,3.993,0,0,1-.38,1.594c-.66.761-3.5,5.307-3.5,5.307s-.367,0-.931-.013c.018-1-.158-3.8-2.763-3.855-2.034-.039-2.329,1.752-2.256,3.04a1.9,1.9,0,0,1-.968-.776c-.693-1.384-.259-4.7-.072-5.9.041-.279.072-.445.072-.445a.262.262,0,0,1,.023-.088C166.718,212.757,171.5,214.172,176.17,212.842Z" transform="translate(-25.177 -6.468)" opacity="0.1"/>
        <path id="Path_3492" data-name="Path 3492" d="M164.93,212.418s6.015,2.414,11.7.567l.342,6.678s-5.459,1.915-5.692,1.294c0,0,.424-4.14-2.748-4.2s-2.085,4.329-2.085,4.329-2.414-.745-2.367-1.361S164.426,213,164.93,212.418Z" transform="translate(-25.177 -6.468)" fill="#3f3d56"/>
        <path id="Path_3493" data-name="Path 3493" d="M192.819,127.037c-5.387-1.609-8.678,7.338-9.237,8.993-.057.166-.085.259-.085.259-.163.036-.326.075-.481.119-9.283,2.435-8.724,10.867-8.354,13.322a3.717,3.717,0,0,0-2.719.2c-1.035.758-.665-8.052-.665-8.052l8.432-6.561,3.213.7a.562.562,0,0,0-.023-.132c-.166-1.014-1.071-7.708,3.529-8.587l5.816-.536h0Z" transform="translate(-25.177 -6.468)" opacity="0.1"/>
        <path id="Path_3494" data-name="Path 3494" d="M143.143,142.268l-1.894,4.642s-7.863,10.9-.662,15.726,31.824,3.539,31.824,3.539l1.811-16.041s-2.753-11.454,8.7-14.119c0,0,3.387-11.025,9.314-9.252l-11.309-5.715-15.524,5.78-13.169,7.1Z" transform="translate(-25.177 -6.468)" fill="#3f3d56"/>
        <path id="Path_3495" data-name="Path 3495" d="M143.143,142.268l-1.894,4.642s-7.863,10.9-.662,15.726,31.824,3.539,31.824,3.539l1.811-16.041s-2.753-11.454,8.7-14.119c0,0,3.387-11.025,9.314-9.252l-11.309-5.715-15.524,5.78-13.169,7.1Z" transform="translate(-25.177 -6.468)" opacity="0.1"/>
        <path id="Path_3496" data-name="Path 3496" d="M143.616,150.889s2.37-5.612,5.307-7.213S143.616,150.889,143.616,150.889Z" transform="translate(-25.177 -6.468)" opacity="0.1"/>
        <path id="Path_3497" data-name="Path 3497" d="M153.753,140.75s21.125-13.736,28.8-13.454Z" transform="translate(-25.177 -6.468)" opacity="0.1"/>
        <path id="Path_3498" data-name="Path 3498" d="M160.462,92.595c3.922.388,6.761,4.243,10.649,4.872a1.754,1.754,0,0,0,.988-.054c.994-.437.665-1.915.176-2.882q-1.1-2.179-2.207-4.354a9.065,9.065,0,0,0-2.031-2.95,7.675,7.675,0,0,0-2.673-1.332c-3.741-1.213-7.959-1.519-11.511.166-2,.95-7.379,5.816-4.561,8.158C151.818,96.318,157.5,92.3,160.462,92.595Z" transform="translate(-25.177 -6.468)" opacity="0.1"/>
        <path id="Path_3499" data-name="Path 3499" d="M160.462,92.31c3.922.388,6.761,4.246,10.649,4.872a1.754,1.754,0,0,0,.988-.054c.994-.437.665-1.915.176-2.882q-1.1-2.179-2.207-4.354a9.065,9.065,0,0,0-2.031-2.95,7.675,7.675,0,0,0-2.673-1.332c-3.741-1.211-7.959-1.519-11.511.166-2,.95-7.379,5.816-4.561,8.158C151.818,96.033,157.5,92.015,160.462,92.31Z" transform="translate(-25.177 -6.468)" fill="#3f3d56"/>
        <path id="Path_3500" data-name="Path 3500" d="M142.141,141.008a16.339,16.339,0,0,0,7.11-.776" transform="translate(-25.177 -6.468)" opacity="0.1"/>
        <path id="Path_3501" data-name="Path 3501" d="M119.686,139.251s1.811.259,1.811,1.5S119.686,139.251,119.686,139.251Z" transform="translate(-25.177 -6.468)" opacity="0.1"/>
        <path id="Path_3502" data-name="Path 3502" d="M120.587,144.066s.331-.577.9.517S120.587,144.066,120.587,144.066Z" transform="translate(-25.177 -6.468)" opacity="0.1"/>
        <path id="Path_3503" data-name="Path 3503" d="M172.1,96.558a1.78,1.78,0,0,1-.988.057c-3.881-.629-6.727-4.484-10.649-4.874-2.965-.295-8.644,3.723-11.172,1.622a2.07,2.07,0,0,1-.776-1.382,2.1,2.1,0,0,0,.776,1.951c2.528,2.1,8.207-1.917,11.172-1.622,3.92.388,6.761,4.246,10.649,4.872a1.757,1.757,0,0,0,.988-.054,1.288,1.288,0,0,0,.624-1.464,1.066,1.066,0,0,1-.624.9Z" transform="translate(-25.177 -6.468)" opacity="0.1"/>
        <path id="Path_3504" data-name="Path 3504" d="M168.219,138.374s11.576-3.027,14.711-2.36Z" transform="translate(-25.177 -6.468)" opacity="0.1"/>
        <path id="Path_3505" data-name="Path 3505" d="M109.345,211.4l.554-6.872,5.467-6.316a27.715,27.715,0,0,1-13.265-.4l5.741,6.727.22,6.859c-1.746.194-3.071,1.131-3.071,2.259,0,1.268,1.677,2.3,3.741,2.3s3.744-1.035,3.744-2.3C112.475,212.521,111.12,211.577,109.345,211.4Z" transform="translate(-25.177 -6.468)" fill="#d4dfec" opacity="0.5"/>
        <path id="Path_3506" data-name="Path 3506" d="M102.768,198.027l4.605,5.094a2.07,2.07,0,0,0,1.552.686h0a2.07,2.07,0,0,0,1.552-.7l4.373-4.916A24.435,24.435,0,0,1,102.768,198.027Z" transform="translate(-25.177 -6.468)" fill="#6c63ff" opacity="0.5"/>
        <ellipse id="Ellipse_818" data-name="Ellipse 818" cx="7.576" cy="2.908" rx="7.576" ry="2.908" transform="translate(76.183 187.298)" fill="#d4dfec" opacity="0.5"/>
        <ellipse id="Ellipse_819" data-name="Ellipse 819" cx="6.724" cy="2.31" rx="6.724" ry="2.31" transform="translate(76.923 188.113)" fill="#6c63ff"/>
        <path id="Path_3507" data-name="Path 3507" d="M85.573,193.031l-1.149,3.014,1.056-3.006" fill="#6c63ff" opacity="0.5"/>
        <path id="Path_3508" data-name="Path 3508" d="M110.8,199.1l3.006-8.554a.171.171,0,0,1,.223-.1h0a.168.168,0,0,1,.093.215l-3.216,8.429" transform="translate(-25.177 -6.468)" fill="#3f3d56" opacity="0.5"/>
        <path id="Path_3509" data-name="Path 3509" d="M112.072,195.481l1.733-4.934a.171.171,0,0,1,.223-.1h0a.168.168,0,0,1,.093.215l-1.85,4.851" transform="translate(-25.177 -6.468)" fill="#3f3d56"/>
        <line id="Line_59" data-name="Line 59" y1="3.62" x2="1.273" transform="translate(85.622 189.013)" fill="#3f3d56" opacity="0.5"/>
        <circle id="Ellipse_820" data-name="Ellipse 820" cx="1.472" cy="1.472" r="1.472" transform="translate(85.93 186.535)" fill="#6c63ff"/>
        <circle id="Ellipse_821" data-name="Ellipse 821" cx="1.472" cy="1.472" r="1.472" transform="translate(85.93 186.535)" fill="#fff" opacity="0.5"/>
        <circle id="Ellipse_822" data-name="Ellipse 822" cx="0.621" cy="0.621" r="0.621" transform="translate(86.941 187.197)" fill="#6c63ff"/>
        <circle id="Ellipse_823" data-name="Ellipse 823" cx="0.621" cy="0.621" r="0.621" transform="translate(86.941 187.197)" opacity="0.25"/>
        <path id="Path_3510" data-name="Path 3510" d="M111.14,194.767a1.472,1.472,0,0,0,2.652.611A11.994,11.994,0,0,0,111.14,194.767Z" transform="translate(-25.177 -6.468)" fill="#6c63ff" opacity="0.3"/>
        <rect id="Rectangle_341" data-name="Rectangle 341" width="1.47" height="33.092" transform="translate(30.391 134.863)" fill="#535461"/>
        <path id="Path_3511" data-name="Path 3511" d="M66.274,174.322l-.093,1.49-.129,2.1-.054.877-.129,2.106-.057.877-.129,2.1L64.2,207.807a4.052,4.052,0,0,1-4.044,3.8h-7.7a4.052,4.052,0,0,1-4.044-3.8L46.921,183.88l-.129-2.1-.054-.877-.132-2.106-.054-.877-.129-2.1-.093-1.49a2.1,2.1,0,0,1,2.1-2.228H64.181a2.1,2.1,0,0,1,2.093,2.228Z" transform="translate(-25.177 -6.468)" fill="#3f3d56"/>
        <path id="Path_3512" data-name="Path 3512" d="M41,169.344l-.129,2.1h-19.5l-.129-2.1Z" fill="#9d9cb5"/>
        <path id="Path_3513" data-name="Path 3513" d="M40.82,172.325l-.129,2.106H21.56l-.132-2.106Z" fill="#9d9cb5"/>
        <path id="Path_3514" data-name="Path 3514" d="M40.634,175.308l-.129,2.1H21.746l-.132-2.1Z" fill="#9d9cb5"/>
        <path id="Path_3515" data-name="Path 3515" d="M44.176,153.735c8.561,6.194,12.124,15.878,12.124,15.878s-10.313-.354-18.874-6.546S25.3,147.189,25.3,147.189,35.617,147.544,44.176,153.735Z" transform="translate(-25.177 -6.468)" fill="#6c63ff"/>
        <path id="Path_3516" data-name="Path 3516" d="M25.3,147.189s10.706,5.951,14.142,10.867S56.3,169.616,56.3,169.616" transform="translate(-25.177 -6.468)" fill="none" stroke="#535461" stroke-miterlimit="10" stroke-width="0.517"/>
        <path id="Path_3517" data-name="Path 3517" d="M49.7,141.267a20.727,20.727,0,0,1,6.6,8.642,20.746,20.746,0,0,1-10.272-3.563,20.769,20.769,0,0,1-6.6-8.642A20.843,20.843,0,0,1,49.7,141.267Z" transform="translate(-25.177 -6.468)" fill="#6c63ff"/>
        <path id="Path_3518" data-name="Path 3518" d="M39.428,137.7s5.827,3.234,7.7,5.912S56.3,149.9,56.3,149.9" transform="translate(-25.177 -6.468)" fill="none" stroke="#535461" stroke-miterlimit="10" stroke-width="0.517"/>
        <path id="Path_3519" data-name="Path 3519" d="M63.071,149.634A28.718,28.718,0,0,0,56.587,163.2a28.731,28.731,0,0,0,12.9-7.733A28.688,28.688,0,0,0,75.969,141.9,28.7,28.7,0,0,0,63.071,149.634Z" transform="translate(-25.177 -6.468)" fill="#6c63ff"/>
        <path id="Path_3520" data-name="Path 3520" d="M75.969,141.9S69,147.929,67.226,152.085,56.587,163.21,56.587,163.21" transform="translate(-25.177 -6.468)" fill="none" stroke="#535461" stroke-miterlimit="10" stroke-width="0.517"/>
        <path id="Path_3521" data-name="Path 3521" d="M249.238,172.6s1.5,1.953-.691,4.916-3.987,5.433-3.257,7.283c0,0,3.3-5.48,5.979-5.558S252.19,175.9,249.238,172.6Z" transform="translate(-25.177 -6.468)" opacity="0.1"/>
        <path id="Path_3522" data-name="Path 3522" d="M249.238,172.6a2.367,2.367,0,0,1,.305.613c2.618,3.076,4.013,5.951,1.5,6.018-2.344.067-5.156,4.259-5.829,5.317a1.867,1.867,0,0,0,.08.241s3.3-5.48,5.979-5.558S252.19,175.9,249.238,172.6Z" transform="translate(-25.177 -6.468)" opacity="0.1"/>
        <path id="Path_3523" data-name="Path 3523" d="M252.017,175.093c0,.688-.078,1.244-.173,1.244s-.171-.556-.171-1.244.1-.365.191-.365S252.017,174.405,252.017,175.093Z" transform="translate(-25.177 -6.468)" fill="#3f3d56"/>
        <path id="Path_3524" data-name="Path 3524" d="M252.971,175.914c-.605.331-1.131.53-1.177.445s.406-.419,1.012-.748.365-.088.411,0S253.574,175.585,252.971,175.914Z" transform="translate(-25.177 -6.468)" fill="#3f3d56"/>
        <path id="Path_3525" data-name="Path 3525" d="M241.341,172.6s-1.5,1.953.688,4.916,3.987,5.433,3.26,7.283c0,0-3.3-5.48-5.982-5.558S238.389,175.9,241.341,172.6Z" transform="translate(-25.177 -6.468)" fill="#3f3d56"/>
        <path id="Path_3526" data-name="Path 3526" d="M249.238,172.6s1.5,1.953-.691,4.916-3.987,5.433-3.257,7.283c0,0,3.3-5.48,5.979-5.558S252.19,175.9,249.238,172.6Z" transform="translate(-25.177 -6.468)" fill="#d4dfec"/>
        <path id="Path_3527" data-name="Path 3527" d="M241.341,172.6s-1.5,1.953.688,4.916,3.987,5.433,3.26,7.283c0,0-3.3-5.48-5.982-5.558S238.389,175.9,241.341,172.6Z" transform="translate(-25.177 -6.468)" opacity="0.1"/>
        <path id="Path_3528" data-name="Path 3528" d="M241.341,172.6a2.368,2.368,0,0,0-.305.613c-2.618,3.076-4.013,5.951-1.5,6.018,2.344.067,5.156,4.259,5.832,5.317a2.382,2.382,0,0,1-.08.241s-3.3-5.49-5.982-5.558S238.389,175.9,241.341,172.6Z" transform="translate(-25.177 -6.468)" opacity="0.1"/>
        <path id="Path_3529" data-name="Path 3529" d="M238.55,175.093c0,.688.078,1.244.173,1.244s.173-.556.173-1.244-.1-.365-.191-.365S238.55,174.405,238.55,175.093Z" transform="translate(-25.177 -6.468)" fill="#d4dfec"/>
        <path id="Path_3530" data-name="Path 3530" d="M237.608,175.914c.6.331,1.131.53,1.177.445s-.409-.419-1.012-.748-.367-.088-.411,0S237,175.585,237.608,175.914Z" transform="translate(-25.177 -6.468)" fill="#d4dfec"/>
        <path id="Path_3531" data-name="Path 3531" d="M253.334,182.146l-.075.611-.1.862-.044.36-.106.864-.044.36-.106.862-1.2,9.806c-.106.875-1.537,1.552-3.263,1.552h-6.225c-1.728,0-3.157-.683-3.263-1.552l-1.2-9.806-.1-.862-.044-.36-.109-.864-.041-.36-.106-.862-.052-.611c-.059-.494.714-.913,1.692-.913H251.66C252.619,181.243,253.4,181.663,253.334,182.146Z" transform="translate(-25.177 -6.468)" fill="#3f3d56"/>
        <path id="Path_3532" data-name="Path 3532" d="M228.084,176.3l-.106.862H212.247l-.106-.862Z" fill="#9d9cb5"/>
        <path id="Path_3533" data-name="Path 3533" d="M227.934,177.52l-.1.864H212.4l-.106-.864Z" fill="#9d9cb5"/>
        <path id="Path_3534" data-name="Path 3534" d="M227.784,178.744l-.1.862H212.545l-.1-.862Z" fill="#9d9cb5"/>
      </g>
    </g>
  </g>
</svg>
