<svg xmlns="http://www.w3.org/2000/svg" xmlns:xlink="http://www.w3.org/1999/xlink" width="1270" height="394" viewBox="0 0 1270 394">
  <defs>
    <clipPath id="clip-path">
      <rect id="Rectangle_343" data-name="Rectangle 343" width="275" height="275" transform="translate(5575 2417)" fill="#fff" stroke="#707070" stroke-width="1"/>
    </clipPath>
    <linearGradient id="linear-gradient" x1="0.5" y1="1" x2="0.5" gradientUnits="objectBoundingBox">
      <stop offset="0" stop-color="gray" stop-opacity="0.251"/>
      <stop offset="0.535" stop-color="gray" stop-opacity="0.122"/>
      <stop offset="1" stop-color="gray" stop-opacity="0.102"/>
    </linearGradient>
  </defs>
  <g id="home-4" transform="translate(-4503 -3822)">
    <g id="Group_94" data-name="Group 94">
      <rect id="Rectangle_297" data-name="Rectangle 297" width="1270" height="394" transform="translate(4503 3822)" fill="#e2d8d8"/>
    </g>
    <text id="Keep_control_of_your_savings" data-name="Keep control of your 
savings" transform="translate(4992 4088)" fill="#3f3d56" font-size="20" font-family="Gilroy-Regular, Gilroy"><tspan x="56.05" y="18">Keep control of your </tspan><tspan x="113.11" y="41">savings</tspan></text>
    <g id="Mask_Group_63" data-name="Mask Group 63" transform="translate(-574 1405)" clip-path="url(#clip-path)">
      <g id="undraw_Savings_dwkw" transform="translate(5575 2455.804)">
        <ellipse id="Ellipse_904" data-name="Ellipse 904" cx="137.644" cy="16.73" rx="137.644" ry="16.73" transform="translate(0 164.22)" fill="#6c63ff" opacity="0.1"/>
        <path id="Path_3625" data-name="Path 3625" d="M231.974,191.791s7.179-9.135,6.6-18.2a17.6,17.6,0,0,1,2.77-10.785,29.607,29.607,0,0,1,3.373-4.235" transform="translate(3.545 -2.64)" fill="none" stroke="#535461" stroke-miterlimit="10" stroke-width="0.465"/>
        <path id="Path_3626" data-name="Path 3626" d="M243.7,153.263c-.506,1.269.323,5.864.323,5.864s3.765-2.762,4.271-4.031a2.473,2.473,0,0,0-4.594-1.833Z" transform="translate(4.225 -3.044)" fill="#6c63ff"/>
        <path id="Path_3627" data-name="Path 3627" d="M237.463,158.547c.265,1.34,3.458,4.747,3.458,4.747s1.659-4.365,1.394-5.7a2.473,2.473,0,1,0-4.852.958Z" transform="translate(3.865 -2.815)" fill="#6c63ff"/>
        <path id="Path_3628" data-name="Path 3628" d="M233.125,170.015c.9,1.023,5.381,2.352,5.381,2.352s-.771-4.605-1.676-5.628a2.473,2.473,0,1,0-3.705,3.277Z" transform="translate(3.576 -2.209)" fill="#6c63ff"/>
        <path id="Path_3629" data-name="Path 3629" d="M231.75,179.369c.719,1.161,4.907,3.227,4.907,3.227s.018-4.669-.7-5.831a2.473,2.473,0,0,0-4.206,2.6Z" transform="translate(3.51 -1.639)" fill="#6c63ff"/>
        <path id="Path_3630" data-name="Path 3630" d="M245.514,165.18c-1.263.521-5.867-.255-5.867-.255s2.718-3.8,3.981-4.318a2.473,2.473,0,0,1,1.886,4.572Z" transform="translate(3.996 -2.532)" fill="#6c63ff"/>
        <path id="Path_3631" data-name="Path 3631" d="M243.762,176.131c-1.361.119-5.522-2-5.522-2s3.73-2.809,5.09-2.929a2.473,2.473,0,0,1,.432,4.927Z" transform="translate(3.913 -1.898)" fill="#6c63ff"/>
        <path id="Path_3632" data-name="Path 3632" d="M240.635,186.53c-1.321.347-5.781-1.037-5.781-1.037s3.2-3.4,4.522-3.747a2.473,2.473,0,0,1,1.258,4.783Z" transform="translate(3.714 -1.282)" fill="#6c63ff"/>
        <path id="Path_3633" data-name="Path 3633" d="M243.7,153.263c-.506,1.269.323,5.864.323,5.864s3.765-2.762,4.271-4.031a2.473,2.473,0,0,0-4.594-1.833Z" transform="translate(4.225 -3.044)" opacity="0.25"/>
        <path id="Path_3634" data-name="Path 3634" d="M237.463,158.547c.265,1.34,3.458,4.747,3.458,4.747s1.659-4.365,1.394-5.7a2.473,2.473,0,1,0-4.852.958Z" transform="translate(3.865 -2.815)" opacity="0.25"/>
        <path id="Path_3635" data-name="Path 3635" d="M233.125,170.015c.9,1.023,5.381,2.352,5.381,2.352s-.771-4.605-1.676-5.628a2.473,2.473,0,1,0-3.705,3.277Z" transform="translate(3.576 -2.209)" opacity="0.25"/>
        <path id="Path_3636" data-name="Path 3636" d="M231.75,179.369c.719,1.161,4.907,3.227,4.907,3.227s.018-4.669-.7-5.831a2.473,2.473,0,0,0-4.206,2.6Z" transform="translate(3.51 -1.639)" opacity="0.25"/>
        <path id="Path_3637" data-name="Path 3637" d="M245.514,165.18c-1.263.521-5.867-.255-5.867-.255s2.718-3.8,3.981-4.318a2.473,2.473,0,0,1,1.886,4.572Z" transform="translate(3.996 -2.532)" opacity="0.25"/>
        <path id="Path_3638" data-name="Path 3638" d="M243.762,176.131c-1.361.119-5.522-2-5.522-2s3.73-2.809,5.09-2.929a2.473,2.473,0,0,1,.432,4.927Z" transform="translate(3.913 -1.898)" opacity="0.25"/>
        <path id="Path_3639" data-name="Path 3639" d="M240.635,186.53c-1.321.347-5.781-1.037-5.781-1.037s3.2-3.4,4.522-3.747a2.473,2.473,0,0,1,1.258,4.783Z" transform="translate(3.714 -1.282)" opacity="0.25"/>
        <path id="Path_3640" data-name="Path 3640" d="M232.031,190.987s10.265-5.442,13.407-13.963a17.6,17.6,0,0,1,6.9-8.737,29.606,29.606,0,0,1,4.8-2.5" transform="translate(3.548 -2.216)" fill="none" stroke="#535461" stroke-miterlimit="10" stroke-width="0.465"/>
        <path id="Path_3641" data-name="Path 3641" d="M257.762,160.76c-.977.955-2.081,5.492-2.081,5.492s4.561-1,5.538-1.954a2.473,2.473,0,0,0-3.457-3.537Z" transform="translate(4.939 -2.553)" fill="#6c63ff"/>
        <path id="Path_3642" data-name="Path 3642" d="M249.839,163.062c-.3,1.332,1.238,5.741,1.238,5.741s3.285-3.318,3.586-4.65a2.473,2.473,0,1,0-4.825-1.09Z" transform="translate(4.593 -2.49)" fill="#6c63ff"/>
        <path id="Path_3643" data-name="Path 3643" d="M241.23,171.789c.413,1.3,3.967,4.331,3.967,4.331s1.161-4.523.748-5.825a2.473,2.473,0,0,0-4.715,1.494Z" transform="translate(4.082 -2.052)" fill="#6c63ff"/>
        <path id="Path_3644" data-name="Path 3644" d="M236.18,179.783c.187,1.353,3.178,4.939,3.178,4.939s1.909-4.262,1.722-5.615a2.473,2.473,0,0,0-4.9.676Z" transform="translate(3.791 -1.558)" fill="#6c63ff"/>
        <path id="Path_3645" data-name="Path 3645" d="M254.548,172.333c-1.365-.035-5.261-2.611-5.261-2.611s4.024-2.369,5.389-2.334a2.473,2.473,0,0,1-.128,4.945Z" transform="translate(4.563 -2.122)" fill="#6c63ff"/>
        <path id="Path_3646" data-name="Path 3646" d="M248.475,181.625c-1.292-.442-4.239-4.065-4.239-4.065s4.548-1.057,5.841-.615a2.473,2.473,0,0,1-1.6,4.68Z" transform="translate(4.266 -1.566)" fill="#6c63ff"/>
        <path id="Path_3647" data-name="Path 3647" d="M241.419,189.869c-1.348-.218-4.865-3.29-4.865-3.29s4.3-1.81,5.653-1.593a2.473,2.473,0,1,1-.788,4.883Z" transform="translate(3.814 -1.088)" fill="#6c63ff"/>
        <path id="Path_3648" data-name="Path 3648" d="M164.553,34.711c-13.6-.472-26.555-4.863-38.925-9.667S101,14.918,87.729,12.372c-8.539-1.637-18.3-1.869-25.183,2.709-6.621,4.405-8.76,12.01-9.91,19.066-.865,5.309-1.374,10.9,1,15.866,1.646,3.45,4.569,6.351,6.59,9.656,7.033,11.5,2.062,25.681-5.56,36.91-3.575,5.267-7.722,10.292-10.481,15.9s-4.035,12.032-1.621,17.752c2.392,5.669,8.094,9.928,14.27,12.923,12.544,6.083,27.325,7.824,41.739,8.81,31.907,2.183,63.984,1.238,95.975.291,11.839-.35,23.731-.705,35.378-2.536,6.468-1.017,13.145-2.63,17.841-6.526,5.961-4.945,7.438-13.319,3.444-19.519-6.7-10.4-25.224-12.984-29.907-24.146-2.578-6.144.069-12.988,3.815-18.686,8.036-12.224,21.505-22.947,22.215-36.919.487-9.6-5.988-19.206-16-23.746-10.494-4.759-25.046-4.16-32.788,3.717C190.571,32.007,176.562,35.128,164.553,34.711Z" transform="translate(-7.668 -11.3)" fill="#6c63ff" opacity="0.1"/>
        <ellipse id="Ellipse_905" data-name="Ellipse 905" cx="9.248" cy="9.816" rx="9.248" ry="9.816" transform="translate(124.349 153.814)" fill="#fbd56f"/>
        <ellipse id="Ellipse_906" data-name="Ellipse 906" cx="9.248" cy="9.816" rx="9.248" ry="9.816" transform="translate(124.349 153.814)" opacity="0.1"/>
        <ellipse id="Ellipse_907" data-name="Ellipse 907" cx="9.248" cy="9.598" rx="9.248" ry="9.598" transform="translate(125.945 154.251)" fill="#fbd56f"/>
        <path id="Path_3649" data-name="Path 3649" d="M140.829,174.306l-.962-.536a11.651,11.651,0,0,0-.3,3.216.667.667,0,0,0,.5.576c2.213.55,12.76,2.891,20.013-.407a.665.665,0,0,0,.385-.535,9.964,9.964,0,0,0-.352-2.85C159.841,173.059,140.829,174.306,140.829,174.306Z" transform="translate(-1.891 -1.759)" fill="#fbd56f"/>
        <path id="Path_3650" data-name="Path 3650" d="M140.829,174.306l-.962-.536a11.651,11.651,0,0,0-.3,3.216.667.667,0,0,0,.5.576c2.213.55,12.76,2.891,20.013-.407a.665.665,0,0,0,.385-.535,9.964,9.964,0,0,0-.352-2.85C159.841,173.059,140.829,174.306,140.829,174.306Z" transform="translate(-1.891 -1.759)" opacity="0.1"/>
        <ellipse id="Ellipse_908" data-name="Ellipse 908" cx="10.122" cy="2.282" rx="10.122" ry="2.282" transform="translate(137.977 169.729)" fill="#fbd56f"/>
        <path id="Path_3651" data-name="Path 3651" d="M144.482,171.126l-.962-.536a11.653,11.653,0,0,0-.3,3.216.667.667,0,0,0,.5.576c2.213.55,12.76,2.891,20.013-.407a.665.665,0,0,0,.385-.535,9.963,9.963,0,0,0-.352-2.85C163.494,169.879,144.482,171.126,144.482,171.126Z" transform="translate(-1.676 -1.946)" fill="#fbd56f"/>
        <path id="Path_3652" data-name="Path 3652" d="M144.482,171.126l-.962-.536a11.653,11.653,0,0,0-.3,3.216.667.667,0,0,0,.5.576c2.213.55,12.76,2.891,20.013-.407a.665.665,0,0,0,.385-.535,9.963,9.963,0,0,0-.352-2.85C163.494,169.879,144.482,171.126,144.482,171.126Z" transform="translate(-1.676 -1.946)" opacity="0.1"/>
        <ellipse id="Ellipse_909" data-name="Ellipse 909" cx="10.122" cy="2.282" rx="10.122" ry="2.282" transform="translate(141.844 166.363)" fill="#fbd56f"/>
        <path id="Path_3653" data-name="Path 3653" d="M147.711,166.948l-.962-.536a11.653,11.653,0,0,0-.3,3.216.667.667,0,0,0,.5.576c2.213.55,12.76,2.891,20.013-.407a.666.666,0,0,0,.385-.535,9.963,9.963,0,0,0-.352-2.85C166.723,165.7,147.711,166.948,147.711,166.948Z" transform="translate(-1.486 -2.192)" fill="#fbd56f"/>
        <path id="Path_3654" data-name="Path 3654" d="M147.711,166.948l-.962-.536a11.653,11.653,0,0,0-.3,3.216.667.667,0,0,0,.5.576c2.213.55,12.76,2.891,20.013-.407a.666.666,0,0,0,.385-.535,9.963,9.963,0,0,0-.352-2.85C166.723,165.7,147.711,166.948,147.711,166.948Z" transform="translate(-1.486 -2.192)" opacity="0.1"/>
        <ellipse id="Ellipse_910" data-name="Ellipse 910" cx="10.122" cy="2.282" rx="10.122" ry="2.282" transform="translate(145.263 161.938)" fill="#fbd56f"/>
        <path id="Path_3655" data-name="Path 3655" d="M144.135,162.6l-.962-.536a11.652,11.652,0,0,0-.3,3.216.667.667,0,0,0,.5.576c2.213.55,12.76,2.891,20.013-.407a.666.666,0,0,0,.385-.535,9.964,9.964,0,0,0-.352-2.85C163.147,161.35,144.135,162.6,144.135,162.6Z" transform="translate(-1.696 -2.448)" fill="#fbd56f"/>
        <path id="Path_3656" data-name="Path 3656" d="M144.135,162.6l-.962-.536a11.652,11.652,0,0,0-.3,3.216.667.667,0,0,0,.5.576c2.213.55,12.76,2.891,20.013-.407a.666.666,0,0,0,.385-.535,9.964,9.964,0,0,0-.352-2.85C163.147,161.35,144.135,162.6,144.135,162.6Z" transform="translate(-1.696 -2.448)" opacity="0.1"/>
        <ellipse id="Ellipse_911" data-name="Ellipse 911" cx="10.122" cy="2.282" rx="10.122" ry="2.282" transform="translate(141.477 157.332)" fill="#fbd56f"/>
        <path id="Path_3657" data-name="Path 3657" d="M152.179,159.106l-.962-.536a11.652,11.652,0,0,0-.3,3.216.667.667,0,0,0,.5.576c2.213.55,12.76,2.891,20.013-.407a.665.665,0,0,0,.385-.535,9.965,9.965,0,0,0-.352-2.85C171.191,157.859,152.179,159.106,152.179,159.106Z" transform="translate(-1.223 -2.653)" fill="#fbd56f"/>
        <path id="Path_3658" data-name="Path 3658" d="M152.179,159.106l-.962-.536a11.652,11.652,0,0,0-.3,3.216.667.667,0,0,0,.5.576c2.213.55,12.76,2.891,20.013-.407a.665.665,0,0,0,.385-.535,9.965,9.965,0,0,0-.352-2.85C171.191,157.859,152.179,159.106,152.179,159.106Z" transform="translate(-1.223 -2.653)" opacity="0.1"/>
        <ellipse id="Ellipse_912" data-name="Ellipse 912" cx="10.122" cy="2.282" rx="10.122" ry="2.282" transform="translate(149.994 153.636)" fill="#fbd56f"/>
        <path id="Path_3659" data-name="Path 3659" d="M146.744,156.76l-.962-.536a11.652,11.652,0,0,0-.3,3.216.667.667,0,0,0,.5.576c2.213.55,12.76,2.891,20.013-.407a.666.666,0,0,0,.385-.535,9.964,9.964,0,0,0-.352-2.85C165.756,155.513,146.744,156.76,146.744,156.76Z" transform="translate(-1.543 -2.791)" fill="#fbd56f"/>
        <path id="Path_3660" data-name="Path 3660" d="M146.744,156.76l-.962-.536a11.652,11.652,0,0,0-.3,3.216.667.667,0,0,0,.5.576c2.213.55,12.76,2.891,20.013-.407a.666.666,0,0,0,.385-.535,9.964,9.964,0,0,0-.352-2.85C165.756,155.513,146.744,156.76,146.744,156.76Z" transform="translate(-1.543 -2.791)" opacity="0.1"/>
        <ellipse id="Ellipse_913" data-name="Ellipse 913" cx="10.122" cy="2.282" rx="10.122" ry="2.282" transform="translate(144.239 151.152)" fill="#fbd56f"/>
        <path id="Path_3661" data-name="Path 3661" d="M150.373,152.23l-.962-.536a11.652,11.652,0,0,0-.3,3.216.667.667,0,0,0,.5.576c2.213.55,12.76,2.891,20.013-.407a.665.665,0,0,0,.385-.535,9.964,9.964,0,0,0-.352-2.85C169.385,150.983,150.373,152.23,150.373,152.23Z" transform="translate(-1.329 -3.057)" fill="#fbd56f"/>
        <path id="Path_3662" data-name="Path 3662" d="M150.373,152.23l-.962-.536a11.652,11.652,0,0,0-.3,3.216.667.667,0,0,0,.5.576c2.213.55,12.76,2.891,20.013-.407a.665.665,0,0,0,.385-.535,9.964,9.964,0,0,0-.352-2.85C169.385,150.983,150.373,152.23,150.373,152.23Z" transform="translate(-1.329 -3.057)" opacity="0.1"/>
        <ellipse id="Ellipse_914" data-name="Ellipse 914" cx="10.122" cy="2.282" rx="10.122" ry="2.282" transform="translate(148.082 146.355)" fill="#fbd56f"/>
        <path id="Path_3663" data-name="Path 3663" d="M152.163,146.853l-.962-.536a11.653,11.653,0,0,0-.3,3.216.667.667,0,0,0,.5.576c2.213.55,12.76,2.891,20.013-.407a.665.665,0,0,0,.385-.535,9.963,9.963,0,0,0-.352-2.85C171.175,145.606,152.163,146.853,152.163,146.853Z" transform="translate(-1.224 -3.374)" fill="#fbd56f"/>
        <path id="Path_3664" data-name="Path 3664" d="M152.163,146.853l-.962-.536a11.653,11.653,0,0,0-.3,3.216.667.667,0,0,0,.5.576c2.213.55,12.76,2.891,20.013-.407a.665.665,0,0,0,.385-.535,9.963,9.963,0,0,0-.352-2.85C171.175,145.606,152.163,146.853,152.163,146.853Z" transform="translate(-1.224 -3.374)" opacity="0.1"/>
        <ellipse id="Ellipse_915" data-name="Ellipse 915" cx="10.122" cy="2.282" rx="10.122" ry="2.282" transform="translate(149.977 140.663)" fill="#fbd56f"/>
        <path id="Path_3665" data-name="Path 3665" d="M168.3,175.553l-.962-.536a11.653,11.653,0,0,0-.3,3.216.667.667,0,0,0,.5.576c2.213.55,12.76,2.891,20.013-.407a.666.666,0,0,0,.385-.535,9.963,9.963,0,0,0-.352-2.85C187.313,174.305,168.3,175.553,168.3,175.553Z" transform="translate(-0.275 -1.686)" fill="#fbd56f"/>
        <path id="Path_3666" data-name="Path 3666" d="M168.3,175.553l-.962-.536a11.653,11.653,0,0,0-.3,3.216.667.667,0,0,0,.5.576c2.213.55,12.76,2.891,20.013-.407a.666.666,0,0,0,.385-.535,9.963,9.963,0,0,0-.352-2.85C187.313,174.305,168.3,175.553,168.3,175.553Z" transform="translate(-0.275 -1.686)" opacity="0.1"/>
        <ellipse id="Ellipse_916" data-name="Ellipse 916" cx="10.122" cy="2.282" rx="10.122" ry="2.282" transform="translate(167.064 171.049)" fill="#fbd56f"/>
        <path id="Path_3667" data-name="Path 3667" d="M171.53,171.374l-.962-.536a11.652,11.652,0,0,0-.3,3.216.667.667,0,0,0,.5.576c2.213.55,12.76,2.891,20.013-.407a.665.665,0,0,0,.385-.535,9.965,9.965,0,0,0-.352-2.85C190.542,170.127,171.53,171.374,171.53,171.374Z" transform="translate(-0.085 -1.932)" fill="#fbd56f"/>
        <path id="Path_3668" data-name="Path 3668" d="M171.53,171.374l-.962-.536a11.652,11.652,0,0,0-.3,3.216.667.667,0,0,0,.5.576c2.213.55,12.76,2.891,20.013-.407a.665.665,0,0,0,.385-.535,9.965,9.965,0,0,0-.352-2.85C190.542,170.127,171.53,171.374,171.53,171.374Z" transform="translate(-0.085 -1.932)" opacity="0.1"/>
        <ellipse id="Ellipse_917" data-name="Ellipse 917" cx="10.122" cy="2.282" rx="10.122" ry="2.282" transform="translate(170.483 166.625)" fill="#fbd56f"/>
        <path id="Path_3669" data-name="Path 3669" d="M167.954,167.024l-.962-.536a11.651,11.651,0,0,0-.3,3.216.667.667,0,0,0,.5.576c2.213.55,12.76,2.891,20.013-.407a.665.665,0,0,0,.385-.535,9.965,9.965,0,0,0-.352-2.85C186.966,165.777,167.954,167.024,167.954,167.024Z" transform="translate(-0.296 -2.188)" fill="#fbd56f"/>
        <path id="Path_3670" data-name="Path 3670" d="M167.954,167.024l-.962-.536a11.651,11.651,0,0,0-.3,3.216.667.667,0,0,0,.5.576c2.213.55,12.76,2.891,20.013-.407a.665.665,0,0,0,.385-.535,9.965,9.965,0,0,0-.352-2.85C186.966,165.777,167.954,167.024,167.954,167.024Z" transform="translate(-0.296 -2.188)" opacity="0.1"/>
        <ellipse id="Ellipse_918" data-name="Ellipse 918" cx="10.122" cy="2.282" rx="10.122" ry="2.282" transform="translate(166.697 162.019)" fill="#fbd56f"/>
        <path id="Path_3671" data-name="Path 3671" d="M176,163.533l-.962-.536a11.652,11.652,0,0,0-.3,3.216.667.667,0,0,0,.5.576c2.213.55,12.76,2.891,20.013-.407a.666.666,0,0,0,.385-.535,9.963,9.963,0,0,0-.352-2.85C195.011,162.286,176,163.533,176,163.533Z" transform="translate(0.177 -2.393)" fill="#fbd56f"/>
        <path id="Path_3672" data-name="Path 3672" d="M176,163.533l-.962-.536a11.652,11.652,0,0,0-.3,3.216.667.667,0,0,0,.5.576c2.213.55,12.76,2.891,20.013-.407a.666.666,0,0,0,.385-.535,9.963,9.963,0,0,0-.352-2.85C195.011,162.286,176,163.533,176,163.533Z" transform="translate(0.177 -2.393)" opacity="0.1"/>
        <ellipse id="Ellipse_919" data-name="Ellipse 919" cx="10.122" cy="2.282" rx="10.122" ry="2.282" transform="translate(175.214 158.323)" fill="#fbd56f"/>
        <path id="Path_3673" data-name="Path 3673" d="M170.564,161.186l-.962-.536a11.653,11.653,0,0,0-.3,3.216.667.667,0,0,0,.5.576c2.213.55,12.76,2.891,20.013-.407a.666.666,0,0,0,.385-.535,9.964,9.964,0,0,0-.352-2.85C189.575,159.939,170.564,161.186,170.564,161.186Z" transform="translate(-0.142 -2.531)" fill="#fbd56f"/>
        <path id="Path_3674" data-name="Path 3674" d="M170.564,161.186l-.962-.536a11.653,11.653,0,0,0-.3,3.216.667.667,0,0,0,.5.576c2.213.55,12.76,2.891,20.013-.407a.666.666,0,0,0,.385-.535,9.964,9.964,0,0,0-.352-2.85C189.575,159.939,170.564,161.186,170.564,161.186Z" transform="translate(-0.142 -2.531)" opacity="0.1"/>
        <ellipse id="Ellipse_920" data-name="Ellipse 920" cx="10.122" cy="2.282" rx="10.122" ry="2.282" transform="translate(169.459 155.838)" fill="#fbd56f"/>
        <path id="Path_3675" data-name="Path 3675" d="M174.192,156.657l-.962-.536a11.653,11.653,0,0,0-.3,3.216.667.667,0,0,0,.5.576c2.213.55,12.76,2.891,20.013-.407a.666.666,0,0,0,.385-.535,9.966,9.966,0,0,0-.352-2.85C193.2,155.409,174.192,156.657,174.192,156.657Z" transform="translate(0.071 -2.797)" fill="#fbd56f"/>
        <path id="Path_3676" data-name="Path 3676" d="M174.192,156.657l-.962-.536a11.653,11.653,0,0,0-.3,3.216.667.667,0,0,0,.5.576c2.213.55,12.76,2.891,20.013-.407a.666.666,0,0,0,.385-.535,9.966,9.966,0,0,0-.352-2.85C193.2,155.409,174.192,156.657,174.192,156.657Z" transform="translate(0.071 -2.797)" opacity="0.1"/>
        <ellipse id="Ellipse_921" data-name="Ellipse 921" cx="10.122" cy="2.282" rx="10.122" ry="2.282" transform="translate(173.301 151.042)" fill="#fbd56f"/>
        <path id="Path_3677" data-name="Path 3677" d="M175.982,151.28l-.962-.536a11.652,11.652,0,0,0-.3,3.216.666.666,0,0,0,.5.576c2.213.55,12.76,2.891,20.013-.407a.665.665,0,0,0,.385-.535,9.963,9.963,0,0,0-.352-2.85C194.994,150.033,175.982,151.28,175.982,151.28Z" transform="translate(0.176 -3.113)" fill="#fbd56f"/>
        <path id="Path_3678" data-name="Path 3678" d="M175.982,151.28l-.962-.536a11.652,11.652,0,0,0-.3,3.216.666.666,0,0,0,.5.576c2.213.55,12.76,2.891,20.013-.407a.665.665,0,0,0,.385-.535,9.963,9.963,0,0,0-.352-2.85C194.994,150.033,175.982,151.28,175.982,151.28Z" transform="translate(0.176 -3.113)" opacity="0.1"/>
        <ellipse id="Ellipse_922" data-name="Ellipse 922" cx="10.122" cy="2.282" rx="10.122" ry="2.282" transform="translate(175.197 145.349)" fill="#fbd56f"/>
        <path id="Path_3679" data-name="Path 3679" d="M237.149,194.794c-1.409-.05-1.459-.6-3.271-1.539a18.774,18.774,0,0,1-3.733-3.323l-.269-.292.48-.01s-.453-3.972-.05-4.916.1-6.555.1-6.555.252-4.27-.2-5.264.151-7.349.151-7.349.4-3.774.5-11.47-4.428-7.945-4.428-7.945-.6-.047-1.521-.134l-.275-.026c.594-1.243.94-2.173.94-2.173s-.755-7.2-.956-8.441S223.21,129,223.21,129s-.855-2.185-1.359-3.724a12.568,12.568,0,0,0-2.013-3.327,61.587,61.587,0,0,0-3.472-6.157c-.35-.368-.841-.833-1.267-1.226l-.221-.2a8.992,8.992,0,0,0,.18-1.7s-2.818-2.781-3.019-3.476-2.868-3.277-2.868-3.277-1.51-2.781-3.221-2.83a13.956,13.956,0,0,0-2.423.073c.351-1.3.767-2.663,1.14-3.832l.123-.382a8.618,8.618,0,0,0,3.091-3.739c.036-.081.068-.162.1-.244.018,0,.036,0,.054,0a1.351,1.351,0,0,0,.212-.019c.563-.1,1.04-.733.78-1.235a.184.184,0,0,0,.164.09c.188-.006.417-.278.461-.517.008-.041.012-.083.018-.125s.017-.1.023-.156.009-.1.014-.147.008-.1.011-.152,0-.095,0-.143,0-.109,0-.164,0-.088,0-.131c0-.067-.009-.133-.015-.2,0-.027,0-.055-.006-.082v0a4.461,4.461,0,0,0-.162-.8c-.278-.923-.861-1.838-.637-2.775,0-.01.007-.019.01-.029v0a8.146,8.146,0,0,1,1.2-1.905c.037-.062.069-.126.1-.19.006-.012.013-.023.018-.035.023-.048.043-.1.063-.147.013-.032.028-.063.04-.1s.03-.087.044-.131.027-.08.038-.12.02-.078.029-.118.022-.095.032-.143.012-.069.017-.1c.008-.054.016-.109.022-.163,0-.03.005-.059.008-.089,0-.061.008-.122.01-.183,0-.025,0-.049,0-.074q0-.1-.005-.2c0-.02,0-.04,0-.06-.005-.071-.012-.142-.022-.213,0-.01,0-.021,0-.031v0a3.578,3.578,0,0,0-.721-1.711,4.41,4.41,0,0,0-3.622-1.567,6.068,6.068,0,0,1-1.139.021,3.762,3.762,0,0,1-1.67-.882L199.13,77a5.2,5.2,0,0,0-1.593-.947,1.779,1.779,0,0,0-1.751.316c-.789.779-.288,2.119-.6,3.175a3.084,3.084,0,0,1-2.072,1.843c-.915.309-1.893.377-2.833.6a1.564,1.564,0,0,0-.758.348,1.466,1.466,0,0,0-.329,1.056,5.692,5.692,0,0,0,.654,2.685c.178.337.393.678.582,1.023l.046.086c.021.04.042.079.063.119q.049.1.093.194c.013.028.024.056.036.084q.03.069.056.138c.011.029.022.059.033.088.019.054.036.109.051.163a1.817,1.817,0,0,1,.027.99,3.676,3.676,0,0,1-.929,1.362,2.649,2.649,0,0,0-.621,1.151l0,.01a.925.925,0,0,0-.011.3c0,.013,0,.025.006.037a.531.531,0,0,0,.019.066.454.454,0,0,0,.02.046.427.427,0,0,0,.026.051.394.394,0,0,0,.064.075l.035.026a.429.429,0,0,0,.065.04l.043.019a.594.594,0,0,0,.1.028l.029.006a.945.945,0,0,0,.162.007l.049,0a1.533,1.533,0,0,0,.155-.02l.057-.01c.074-.015.152-.034.237-.061a5.327,5.327,0,0,0,.822-.325c0,.03,0,.06,0,.09,0,.052,0,.107.005.159a8.368,8.368,0,0,0,.544,2.848,8.6,8.6,0,0,0,2.624,3.626q-.022.129-.048.258c-.243,1.191-.75,2.385-1.063,2.293a4.267,4.267,0,0,0-.933-.1c-.1,0-.187,0-.274,0h0a3.721,3.721,0,0,0-.855,0,.927.927,0,0,1-.374-.052,5.1,5.1,0,0,0-2.514-.141c-1.74.357-4.387,1.009-5.113,1.79-1.107,1.192-2.717,2.334-4.529,7.3,0,0-.906,3.029-1.61,3.426a4.7,4.7,0,0,1,.478-.215,1.275,1.275,0,0,1-.377.413,5.554,5.554,0,0,1,.793-.33c-.55,3.235.264,12.489.264,12.489s-.654,1.6.2,2.539a4.782,4.782,0,0,1,.926,2.054l-.124.193h0c-.453.7-1.059,1.618-1.456,2.122-.7.894-.5,3.724-.5,3.724a3.941,3.941,0,0,1-.654,1.837c-.5.5-.4,2.334-.4,2.334l-1.308,4.817s-1.208,1.092-1.208,1.589a6.526,6.526,0,0,1-.956,1.887s-1.459,2.383,0,2.036a4.578,4.578,0,0,0,1.473-.741v.036q0,.131-.005.266c-.041,2.6.242,6.249,2.156,6.249,2.969,0,10.618,3.526,10.618,3.526a5.13,5.13,0,0,0,3.673.794s-3.724,3.724-3.623,5.263-2.113,4.072-2.113,4.072l-6.844,13.357a10.245,10.245,0,0,0,.491,2.738c-.033.028-.066.055-.1.085-2.63,2.4-2.858,7.158-2.858,7.158l-.6,2.433,9.158,4.022s11.876.248,13.939-.3,1.61-2.83-1.107-3.277-3.372-1.639-4.277-2.185a42.928,42.928,0,0,1-4.127-4.259l-.059-.067.312-1.732c.6-.3,1.51-3.277,1.51-3.277s0-1.192.6-1.539,1.862-3.923,1.862-3.923,2.717-4.519,2.566-5.115,1.963-3.625,1.963-3.625,3.573-3.476,3.422-4.1,2.868-3.8,2.868-3.8a10.076,10.076,0,0,0,2.672-3.077c.272-.044.564-.09.872-.142,3.951-.648,10.517-1.818,11.251-2.144,1.006-.447.805,1.539.4,3.228s-.7,9.782-.252,10.825a6.521,6.521,0,0,1,.252,2.731l-.6,9.087.4,1.937s-1.359,1.092-.805,1.738.05,3.426.05,3.426c.048-.018.1-.035.167-.052-.048.109-.095.221-.136.339a16.326,16.326,0,0,0-.333,5.87v2.88s13.939.248,17.008.248,7.3-1.49,7.548-2.681S238.557,194.844,237.149,194.794ZM197.5,143.1l-.913.077a7.582,7.582,0,0,1,.913-.077Zm5.567-38.114c.128-.574.283-1.192.454-1.826Zm1.722,39.507a3.694,3.694,0,0,1-2.711,0l-.006,0a28.77,28.77,0,0,1,.453-4.916c.4-1.44.956-4.072.956-4.072a53.305,53.305,0,0,1,.906-5.264c.453-1.639,2.214-10.775,3.12-11.371a.954.954,0,0,1,1.409.447s.135,0,.362-.028q.064.143.144.3a74.774,74.774,0,0,0,4.224,6.626,7.256,7.256,0,0,1,2.315,2.284c.855,1.44,1.107,4.817,1.107,4.817s1.912,7.5,2.818,8.541c.453.521.252.832-.062,1.012a4.459,4.459,0,0,0-1.588,1.467c-.129.2-.265.429-.4.669-.346-.08-.656-.163-.915-.25-2.466-.828-10.769-.861-12.128-.265Z" transform="translate(0.021 -7.498)" fill="url(#linear-gradient)"/>
        <path id="Path_3680" data-name="Path 3680" d="M214.693,190.372v2.856s13.639.246,16.643.246,7.14-1.477,7.386-2.659-3.447-2.167-4.826-2.216-1.428-.591-3.2-1.526a18.449,18.449,0,0,1-3.653-3.3c-.874-.952-1.518-1.727-1.518-1.727s-7.337-.148-9.454,1.034a2.562,2.562,0,0,0-1.053,1.466A16.406,16.406,0,0,0,214.693,190.372Z" transform="translate(2.522 -1.26)" fill="#434175"/>
        <path id="Path_3681" data-name="Path 3681" d="M214.993,184.551c1.538-.535,10.544-.743,12.024-.773-.873-.952-1.518-1.727-1.518-1.727s-7.337-.148-9.454,1.034A2.563,2.563,0,0,0,214.993,184.551Z" transform="translate(2.547 -1.26)" opacity="0.1"/>
        <path id="Path_3682" data-name="Path 3682" d="M177.621,141.514l.8.481.3.18,1.157.7c6.188,3.729,23.07,13.839,23.994,13.759.242-.021.97-.13,1.975-.293.266-.043.551-.09.853-.141,3.866-.642,10.291-1.8,11.009-2.126.985-.443.788,1.526.394,3.2s-.689,9.7-.246,10.734a6.549,6.549,0,0,1,.246,2.708l-.591,9.011.394,1.92s-1.329,1.083-.788,1.723.049,3.4.049,3.4c1.576-.591,12.261-.788,12.261-.788s-.443-3.939-.049-4.875.1-6.5.1-6.5.246-4.235-.2-5.219.148-7.288.148-7.288.394-3.742.492-11.374-4.333-7.878-4.333-7.878-.591-.046-1.488-.133a66,66,0,0,1-6.634-.915,11.062,11.062,0,0,1-1.185-.314c-2.413-.821-10.537-.854-11.867-.263a3.571,3.571,0,0,1-2.653,0l-.006,0-1.034-1.674-9.877.842-1.047.09-9.723.829-.669.057Z" transform="translate(0.349 -3.759)" fill="#565387"/>
        <path id="Path_3683" data-name="Path 3683" d="M215.093,148.942c2.869,1.4,5.606-3.559,6.883-6.357a66,66,0,0,1-6.634-.915C214.057,143.827,212.342,147.6,215.093,148.942Z" transform="translate(2.466 -3.634)" opacity="0.1"/>
        <path id="Path_3684" data-name="Path 3684" d="M206.873,117.164a3.008,3.008,0,0,0,.348.963,74.276,74.276,0,0,0,4.133,6.571,7.138,7.138,0,0,1,2.265,2.265c.837,1.428,1.083,4.776,1.083,4.776s1.871,7.435,2.757,8.469c.443.517.246.825-.061,1a4.386,4.386,0,0,0-1.554,1.455c-1.291,2.076-3.352,6.193-.453,7.607,3.939,1.92,7.632-8.144,7.632-8.144s-.739-7.14-.936-8.371-1.379-6.3-1.379-6.3-.837-2.167-1.329-3.693a12.49,12.49,0,0,0-1.97-3.3,61.3,61.3,0,0,0-3.4-6.106c-.343-.365-.823-.826-1.24-1.215-.482-.45-.877-.8-.877-.8S206.824,115.983,206.873,117.164Z" transform="translate(2.069 -5.359)" fill="#ee8e9e"/>
        <path id="Path_3685" data-name="Path 3685" d="M175.342,189.956l8.962,3.988s11.621.246,13.639-.3,1.576-2.807-1.083-3.25-3.3-1.625-4.185-2.167a42.317,42.317,0,0,1-4.039-4.224c-.634-.721-1.082-1.242-1.082-1.242s-1.723-4.579-6.5-3.545a4.894,4.894,0,0,0-2.324,1.223c-2.573,2.382-2.8,7.1-2.8,7.1Z" transform="translate(0.215 -1.435)" fill="#434175"/>
        <path id="Path_3686" data-name="Path 3686" d="M178.654,142.186l1.157.7c6.188,3.729,23.07,13.839,23.994,13.759.242-.021.97-.13,1.975-.293.266-.043.551-.09.853-.141.012-.019.023-.037.033-.056a11.318,11.318,0,0,0,1.128-2.759c1.034-3.939-4.087-6.943-4.087-6.943l-1.083-.842c-1.231-2.073-10.094-4.033-10.094-4.033l-1.142-.767-.61-.41-.161-.107-1.387-.932-6.943.492-2.062,1.326-.218.14-.765.492Z" transform="translate(0.41 -3.77)" opacity="0.1"/>
        <path id="Path_3687" data-name="Path 3687" d="M178.542,180.445c1.885,6.519,9.759,4.39,9.759,4.39l.147-.826c-.634-.721-1.082-1.242-1.082-1.242s-1.723-4.579-6.5-3.545a4.894,4.894,0,0,0-2.324,1.223Z" transform="translate(0.403 -1.435)" opacity="0.1"/>
        <path id="Path_3688" data-name="Path 3688" d="M176.715,153.184c2.905,0,10.39,3.5,10.39,3.5a4.964,4.964,0,0,0,3.595.788s-3.644,3.693-3.545,5.219-2.068,4.038-2.068,4.038l-6.7,13.246c.492,9.4,10.143,6.8,10.143,6.8l.394-2.216c.591-.3,1.477-3.25,1.477-3.25s0-1.182.591-1.526,1.822-3.89,1.822-3.89,2.659-4.481,2.511-5.072,1.92-3.595,1.92-3.595,3.5-3.447,3.348-4.062,2.807-3.767,2.807-3.767a9.944,9.944,0,0,0,2.615-3.051,11.32,11.32,0,0,0,1.128-2.759c.833-3.172-2.326-5.738-3.588-6.616-.305-.213-.5-.327-.5-.327l-1.083-.842c-.559-.943-2.7-1.862-4.864-2.584-1.562-.521-3.139-.939-4.146-1.191-.667-.165-1.084-.258-1.084-.258l-1.142-.767-.4-.27-.368-.247-1.387-.932-3.089.219-3.854.274-2.062,1.326-.983.632-3.849,2.474s-.1.947-.134,2.219c0,.1,0,.2-.006.3C174.565,149.562,174.842,153.184,176.715,153.184Z" transform="translate(0.171 -3.759)" fill="#565387"/>
        <path id="Path_3689" data-name="Path 3689" d="M190.6,100.606l1.034,3.693s1.822,6.352,2.019,6.8a70.054,70.054,0,0,0,5.17,5.022c.2.1,2.8,1.576,2.8,1.576s.206-8.125.009-10.488a6.748,6.748,0,0,1,.128-1.548A58.223,58.223,0,0,1,203.521,99c.551-1.753,1.009-3.068,1.009-3.068s-11.522-.492-11.128.64a4.046,4.046,0,0,1-.043,1.862c-.237,1.181-.734,2.365-1.04,2.274a4.124,4.124,0,0,0-.913-.1C190.981,100.59,190.6,100.606,190.6,100.606Z" transform="translate(1.112 -6.33)" fill="#ee8e9e"/>
        <path id="Path_3690" data-name="Path 3690" d="M193.206,98.431A8.522,8.522,0,0,0,203.368,99c.551-1.753,1.009-3.068,1.009-3.068s-11.522-.492-11.128.64A4.045,4.045,0,0,1,193.206,98.431Z" transform="translate(1.265 -6.33)" opacity="0.1"/>
        <path id="Path_3691" data-name="Path 3691" d="M207.355,92.3a8.486,8.486,0,0,1-.426,2.659,6.962,6.962,0,0,1-.246.653,8.519,8.519,0,0,1-15.828-.33,8.4,8.4,0,0,1-.532-2.824c0-.052,0-.106,0-.158a8.518,8.518,0,0,1,17.037,0Z" transform="translate(1.096 -7.038)" fill="#ee8e9e"/>
        <path id="Path_3692" data-name="Path 3692" d="M190.6,100.341l1.034,3.693s1.822,6.352,2.019,6.8a70.054,70.054,0,0,0,5.17,5.022c.2.1,2.8,1.576,2.8,1.576s.206-8.125.009-10.488a6.748,6.748,0,0,1,.128-1.548l-.67,2.73.049,5.466.394.3-.886,1.329v-.985s-3.151-3.053-3.644-4.333a21.493,21.493,0,0,0-2.265-3.6,29.2,29.2,0,0,1-2.068-3.984,6.357,6.357,0,0,0-1.258-1.973C190.981,100.325,190.6,100.341,190.6,100.341Z" transform="translate(1.112 -6.065)" opacity="0.1"/>
        <path id="Path_3693" data-name="Path 3693" d="M206.873,117.164a3.008,3.008,0,0,0,.348.963,6.077,6.077,0,0,0,5.552-4.985c-.482-.45-.877-.8-.877-.8S206.824,115.983,206.873,117.164Z" transform="translate(2.069 -5.359)" opacity="0.1"/>
        <path id="Path_3694" data-name="Path 3694" d="M174.606,146.988c.994-.7,1.939-1.662,2.5-1.928a10.875,10.875,0,0,0,2.117-1.674s.325-.221.823-.513a9.951,9.951,0,0,1,3.559-1.407c1.028-.086,4.443-.3,7.13-.472,1.944-.122,3.506-.218,3.506-.218s3.2-1.133,4.579-.394a14.47,14.47,0,0,0,3.1,1.132s0-.107.006-.292l-.006,0-1.034-1.674-10.923.932-1.387-.932-6.943.492-2.062,1.326-1.779.152.8.481-3.849,2.474S174.627,145.569,174.606,146.988Z" transform="translate(0.172 -3.759)" opacity="0.1"/>
        <path id="Path_3695" data-name="Path 3695" d="M173.285,149.744a4.457,4.457,0,0,0,1.442-.735h0c.992-.7,1.934-1.658,2.5-1.923a10.874,10.874,0,0,0,2.117-1.674s2.61-1.773,4.382-1.92c.484-.04,1.494-.11,2.708-.189,1.243-.083,2.7-.175,4.02-.257l2.087-.131,1.821-.112s3.2-1.133,4.579-.394a14.469,14.469,0,0,0,3.1,1.133,28.906,28.906,0,0,1,.443-4.875c.394-1.428.936-4.038.936-4.038s.443-3.595.886-5.219,2.167-10.685,3.053-11.276,1.379.443,1.379.443a6.215,6.215,0,0,0,6.007-6.6s-2.757-2.757-2.954-3.447-2.807-3.25-2.807-3.25-1.477-2.757-3.151-2.807a13.47,13.47,0,0,0-2.371.073l-1.42,5.787.049,5.466.394.3-.886,1.329v-.985s-3.151-3.053-3.644-4.333a21.494,21.494,0,0,0-2.265-3.6,29.2,29.2,0,0,1-2.068-3.984c-.049-.591-1.428-2.174-1.428-2.174a3.594,3.594,0,0,0-.837,0,.9.9,0,0,1-.366-.051,4.931,4.931,0,0,0-2.46-.14c-1.7.354-4.293,1-5,1.775-1.083,1.182-2.659,2.314-4.432,7.238l9.553,3.447-.817,1.554-7.6,14.449s-.252.411-.594.947h0c-.443.7-1.036,1.6-1.425,2.1-.689.886-.492,3.693-.492,3.693a3.943,3.943,0,0,1-.64,1.822c-.492.492-.394,2.314-.394,2.314l-1.28,4.776s-1.182,1.083-1.182,1.576a6.5,6.5,0,0,1-.936,1.871S171.857,150.089,173.285,149.744Z" transform="translate(0.057 -6.081)" fill="#434175"/>
        <path id="Path_3696" data-name="Path 3696" d="M221.1,150.334s-3.1,1.034-3.939,2.511S221.1,150.334,221.1,150.334Z" transform="translate(2.668 -3.125)" opacity="0.1"/>
        <path id="Path_3697" data-name="Path 3697" d="M219.6,147.264c-.1.148-4.249,4.312-3.988,5.318S219.6,147.264,219.6,147.264Z" transform="translate(2.582 -3.305)" opacity="0.1"/>
        <path id="Path_3698" data-name="Path 3698" d="M198.131,150.055s-4.628,2.183-5.022,3.135S198.131,150.055,198.131,150.055Z" transform="translate(1.258 -3.141)" opacity="0.1"/>
        <path id="Path_3699" data-name="Path 3699" d="M197.838,152.706s-4.177,1.773-4.748,2.216S197.838,152.706,197.838,152.706Z" transform="translate(1.256 -2.985)" opacity="0.1"/>
        <path id="Path_3700" data-name="Path 3700" d="M195.927,156.3s-1.85,1.379-2.87.3S195.927,156.3,195.927,156.3Z" transform="translate(1.247 -2.79)" opacity="0.1"/>
        <path id="Path_3701" data-name="Path 3701" d="M202.764,122.337c-.1.148-6.254,11.227-7.879,12.064S202.764,122.337,202.764,122.337Z" transform="translate(1.353 -4.771)" opacity="0.1"/>
        <path id="Path_3702" data-name="Path 3702" d="M202.429,126.29c0,.246-6.007,13.1-6.992,13.246S202.429,126.29,202.429,126.29Z" transform="translate(1.392 -4.538)" opacity="0.1"/>
        <path id="Path_3703" data-name="Path 3703" d="M180.691,134.1s-2.9,6.2-4.038,6.549S180.691,134.1,180.691,134.1Z" transform="translate(0.282 -4.079)" opacity="0.1"/>
        <path id="Path_3704" data-name="Path 3704" d="M180.088,131.5s-1,2.167-1.608,2.167S180.088,131.5,180.088,131.5Z" transform="translate(0.393 -4.232)" opacity="0.1"/>
        <path id="Path_3705" data-name="Path 3705" d="M207.355,92.3a8.486,8.486,0,0,1-.426,2.659,6.962,6.962,0,0,1-.246.653,2.5,2.5,0,0,1-1.194-.524,2.957,2.957,0,0,1-.894-.955,11.973,11.973,0,0,1-.436-1.243,2.893,2.893,0,0,0-2.337-1.77.908.908,0,0,1-.721,1.231,1.762,1.762,0,0,1-1.475-.657c-.382-.411-.657-.911-1.037-1.322a1.762,1.762,0,0,0-1.475-.657,3.374,3.374,0,0,0-1.28.726,1.232,1.232,0,0,1-1.379.167c-.222-.165-.33-.446-.542-.625-.544-.456-1.391.015-1.793.6a4.758,4.758,0,0,1-1.8,1.874c0-.052,0-.106,0-.158a8.518,8.518,0,1,1,17.037,0Z" transform="translate(1.096 -7.038)" opacity="0.1"/>
        <path id="Path_3706" data-name="Path 3706" d="M192.229,90.745c.4-.589,1.247-1.06,1.793-.6.212.178.32.459.541.625a1.232,1.232,0,0,0,1.38-.168,3.353,3.353,0,0,1,1.279-.726,1.757,1.757,0,0,1,1.475.658c.381.412.656.911,1.037,1.322a1.756,1.756,0,0,0,1.475.657.906.906,0,0,0,.721-1.231,2.893,2.893,0,0,1,2.336,1.77,11.986,11.986,0,0,0,.436,1.243,2.949,2.949,0,0,0,.895.955,2.119,2.119,0,0,0,1.551.514c.552-.1,1.019-.729.763-1.227.176.268.555-.105.612-.421a4.5,4.5,0,0,0-.114-2.078c-.272-.915-.843-1.823-.623-2.752a7.725,7.725,0,0,1,1.184-1.916,3.464,3.464,0,0,0-.326-3.773,4.29,4.29,0,0,0-3.544-1.553,5.862,5.862,0,0,1-1.114.021,3.665,3.665,0,0,1-1.634-.874l-4.124-3.22a5.075,5.075,0,0,0-1.559-.939,1.723,1.723,0,0,0-1.713.313c-.772.772-.281,2.1-.591,3.148a3.032,3.032,0,0,1-2.028,1.828c-.895.306-1.852.374-2.772.6a1.521,1.521,0,0,0-.742.345,1.467,1.467,0,0,0-.322,1.047,5.706,5.706,0,0,0,.64,2.663c.478.919,1.235,1.863.967,2.863a3.648,3.648,0,0,1-.909,1.351c-.779.9-1.042,2.221.424,1.758A4.245,4.245,0,0,0,192.229,90.745Z" transform="translate(0.988 -7.441)" fill="#434175"/>
        <g id="Group_128" data-name="Group 128" transform="translate(189.489 76.478)" opacity="0.1">
          <path id="Path_3707" data-name="Path 3707" d="M208.519,92.48c-.057.316-.436.689-.612.421.257.5-.211,1.131-.763,1.227a2.119,2.119,0,0,1-1.551-.514,2.949,2.949,0,0,1-.895-.955,12,12,0,0,1-.436-1.243,2.893,2.893,0,0,0-2.336-1.77.906.906,0,0,1-.721,1.231,1.756,1.756,0,0,1-1.475-.657c-.381-.411-.656-.911-1.037-1.322a1.757,1.757,0,0,0-1.475-.658,3.353,3.353,0,0,0-1.279.726,1.232,1.232,0,0,1-1.38.168c-.221-.166-.329-.447-.541-.625-.546-.458-1.392.013-1.793.6a4.244,4.244,0,0,1-2.606,2.2c-.464.146-.754.113-.91-.028-.31.712-.169,1.339.91,1a4.244,4.244,0,0,0,2.606-2.2c.4-.589,1.247-1.06,1.793-.6.212.178.32.459.541.625a1.232,1.232,0,0,0,1.38-.168,3.353,3.353,0,0,1,1.279-.726,1.757,1.757,0,0,1,1.475.658c.381.412.656.911,1.037,1.322a1.756,1.756,0,0,0,1.475.657.906.906,0,0,0,.721-1.231,2.893,2.893,0,0,1,2.336,1.77,11.993,11.993,0,0,0,.436,1.243,2.949,2.949,0,0,0,.895.955,2.119,2.119,0,0,0,1.551.514c.552-.1,1.019-.728.763-1.227.176.268.555-.105.612-.421a4.5,4.5,0,0,0,.044-1.288C208.552,92.269,208.538,92.375,208.519,92.48Z" transform="translate(-188.497 -83.254)"/>
          <path id="Path_3708" data-name="Path 3708" d="M190.1,88.51c0-.013.009-.025.013-.037.268-1-.489-1.944-.967-2.863a5.707,5.707,0,0,1-.612-2.08,2.761,2.761,0,0,0-.028.388,5.706,5.706,0,0,0,.64,2.663A10.033,10.033,0,0,1,190.1,88.51Z" transform="translate(-188.501 -83.531)"/>
          <path id="Path_3709" data-name="Path 3709" d="M207.9,85.933a7.726,7.726,0,0,0-1.184,1.916,2.138,2.138,0,0,0,.009.944A8.094,8.094,0,0,1,207.9,86.9a3.236,3.236,0,0,0,.379-2.079,3.047,3.047,0,0,1-.379,1.108Z" transform="translate(-187.432 -83.454)"/>
        </g>
        <path id="Path_3710" data-name="Path 3710" d="M179.246,128.784h0a7.516,7.516,0,0,1,.151.824s3.89,9.109,4.382,9.651c.152.166.723.986,1.441,2.04.26.381.539.794.824,1.217,1.489,2.21,3.151,4.719,3.151,4.719l3.644,3.2s7.927.634,10.446-1.938c-.305-.213-.5-.327-.5-.327l-1.083-.842c-.559-.943-2.7-1.862-4.864-2.584-2,.015-3.627.176-3.627.176l-.519-1.367-.542-1.426-2.754-7.252s-1.777-9.159-2.367-9.6-.443-1.822-.443-1.822,1.083-3.89.689-4.432.64-4.53.64-4.53a4.131,4.131,0,0,0-.473-1.1l-7.6,14.449S179.588,128.248,179.246,128.784Z" transform="translate(0.444 -5.297)" opacity="0.1"/>
        <path id="Path_3711" data-name="Path 3711" d="M188.093,114.385s-1.034,3.988-.64,4.53-.689,4.432-.689,4.432-.148,1.379.443,1.822,2.367,9.6,2.367,9.6l3.815,10.045s11.938-1.182,10.707,2.56-11.079,2.954-11.079,2.954l-3.644-3.2s-4.924-7.435-5.416-7.977-4.382-9.651-4.382-9.651a5.888,5.888,0,0,0-1.034-2.757c-.837-.936-.2-2.518-.2-2.518s-1.034-11.909.049-13.337S186.96,110.1,188.093,114.385Z" transform="translate(0.365 -5.484)" fill="#ee8e9e"/>
        <path id="Path_3712" data-name="Path 3712" d="M182.02,107.121l-3.1,1.871s-.886,3-1.576,3.4c0,0,6.2-3.447,10.882,4.481a1.794,1.794,0,0,1,.492-1.526c.64-.492.492-2.61.492-2.61a8.521,8.521,0,0,0,.443-1.034C190.1,110.617,187.781,104.413,182.02,107.121Z" transform="translate(0.333 -5.705)" opacity="0.1"/>
        <path id="Path_3713" data-name="Path 3713" d="M181.927,106.935l-3.1,1.871s-.886,3-1.576,3.4c0,0,6.2-3.447,10.882,4.481a1.794,1.794,0,0,1,.492-1.526c.64-.492.492-2.61.492-2.61a8.524,8.524,0,0,0,.443-1.034C190,110.431,187.688,104.227,181.927,106.935Z" transform="translate(0.327 -5.716)" fill="#434175"/>
        <ellipse id="Ellipse_923" data-name="Ellipse 923" cx="9.248" cy="9.816" rx="9.248" ry="9.816" transform="translate(145.357 167.819)" fill="#fbd56f"/>
        <ellipse id="Ellipse_924" data-name="Ellipse 924" cx="9.248" cy="9.816" rx="9.248" ry="9.816" transform="translate(145.357 167.819)" opacity="0.1"/>
        <ellipse id="Ellipse_925" data-name="Ellipse 925" cx="9.248" cy="9.598" rx="9.248" ry="9.598" transform="translate(146.953 168.256)" fill="#fbd56f"/>
        <ellipse id="Ellipse_926" data-name="Ellipse 926" cx="11.422" cy="1.931" rx="11.422" ry="1.931" transform="translate(10.774 179.168)" fill="#6c63ff"/>
        <path id="Path_3714" data-name="Path 3714" d="M35.546,179.65a3.316,3.316,0,0,0,1.089-1.643,1.461,1.461,0,0,0-.761-1.674,2.139,2.139,0,0,0-2.012.706,2.69,2.69,0,0,1-1.956.944,2.978,2.978,0,0,0,.921-2.787,1.164,1.164,0,0,0-.256-.566c-.388-.415-1.091-.237-1.556.09-1.477,1.039-1.889,3.046-1.9,4.852a9.178,9.178,0,0,1-.027-2,2.05,2.05,0,0,0-.751-1.768,2.261,2.261,0,0,0-1.145-.269,2.368,2.368,0,0,0-1.857.528,1.846,1.846,0,0,0,.073,2.28,7.2,7.2,0,0,0,1.922,1.539,4.262,4.262,0,0,1,1.374,1.31,1.3,1.3,0,0,1,.1.234h4.163A11.6,11.6,0,0,0,35.546,179.65Z" transform="translate(-8.627 -1.71)" fill="#6c63ff"/>
        <path id="Path_3715" data-name="Path 3715" d="M128.679,170.546a9.956,9.956,0,0,1,1.238,2.261c.083.208.164.426.24.655,1.231,3.678-.719,8.088-1.277,7.612s-2.294-1.358-2.63-.118a7.117,7.117,0,0,1-1.577,2.508c-2.26,2.274-4.307-.183-5.65-2.721a24.586,24.586,0,0,1-1.169-2.582c-.3-.779-.469-1.318-.469-1.318l9.415-8.022A5.573,5.573,0,0,1,128.679,170.546Z" transform="translate(-3.193 -2.038)" fill="#6c63ff"/>
        <path id="Path_3716" data-name="Path 3716" d="M114.664,175.39a9.957,9.957,0,0,1,1.238,2.261c.083.208.164.426.24.655,1.231,3.678-.719,8.088-1.277,7.612s-2.294-1.358-2.63-.118a7.117,7.117,0,0,1-1.577,2.508c-2.26,2.274-4.307-.183-5.65-2.721a24.585,24.585,0,0,1-1.168-2.582c-.3-.779-.469-1.318-.469-1.318l9.415-8.022A5.572,5.572,0,0,1,114.664,175.39Z" transform="translate(-4.017 -1.753)" fill="#6c63ff"/>
        <path id="Path_3717" data-name="Path 3717" d="M86.687,182.128a9.957,9.957,0,0,1-.49,2.53c-.069.213-.146.433-.233.658-1.4,3.617-5.715,5.767-5.841,5.045s-.9-2.51-1.95-1.77a7.117,7.117,0,0,1-2.814.925c-3.191.308-3.2-2.889-2.613-5.7a24.583,24.583,0,0,1,.748-2.733c.268-.79.48-1.314.48-1.314l12.368-.167A5.574,5.574,0,0,1,86.687,182.128Z" transform="translate(-5.835 -1.404)" fill="#6c63ff"/>
        <path id="Path_3718" data-name="Path 3718" d="M71.594,178.321a9.957,9.957,0,0,1-.49,2.53c-.069.213-.146.433-.233.658-1.4,3.617-5.715,5.767-5.841,5.045s-.9-2.51-1.95-1.77a7.117,7.117,0,0,1-2.814.925c-3.191.308-3.2-2.889-2.613-5.7a24.587,24.587,0,0,1,.748-2.733c.268-.79.48-1.314.48-1.314l12.368-.167A5.573,5.573,0,0,1,71.594,178.321Z" transform="translate(-6.723 -1.627)" fill="#6c63ff"/>
        <path id="Path_3719" data-name="Path 3719" d="M128.679,170.546a9.956,9.956,0,0,1,1.238,2.261c.083.208.164.426.24.655,1.231,3.678-.719,8.088-1.277,7.612s-2.294-1.358-2.63-.118a7.117,7.117,0,0,1-1.577,2.508c-2.26,2.274-4.307-.183-5.65-2.721a24.586,24.586,0,0,1-1.169-2.582c-.3-.779-.469-1.318-.469-1.318l9.415-8.022A5.573,5.573,0,0,1,128.679,170.546Z" transform="translate(-3.193 -2.038)" opacity="0.2"/>
        <path id="Path_3720" data-name="Path 3720" d="M114.664,175.39a9.957,9.957,0,0,1,1.238,2.261c.083.208.164.426.24.655,1.231,3.678-.719,8.088-1.277,7.612s-2.294-1.358-2.63-.118a7.117,7.117,0,0,1-1.577,2.508c-2.26,2.274-4.307-.183-5.65-2.721a24.585,24.585,0,0,1-1.168-2.582c-.3-.779-.469-1.318-.469-1.318l9.415-8.022A5.572,5.572,0,0,1,114.664,175.39Z" transform="translate(-4.017 -1.753)" opacity="0.2"/>
        <path id="Path_3721" data-name="Path 3721" d="M86.687,182.128a9.957,9.957,0,0,1-.49,2.53c-.069.213-.146.433-.233.658-1.4,3.617-5.715,5.767-5.841,5.045s-.9-2.51-1.95-1.77a7.117,7.117,0,0,1-2.814.925c-3.191.308-3.2-2.889-2.613-5.7a24.583,24.583,0,0,1,.748-2.733c.268-.79.48-1.314.48-1.314l12.368-.167A5.574,5.574,0,0,1,86.687,182.128Z" transform="translate(-5.835 -1.404)" opacity="0.2"/>
        <path id="Path_3722" data-name="Path 3722" d="M71.594,178.321a9.957,9.957,0,0,1-.49,2.53c-.069.213-.146.433-.233.658-1.4,3.617-5.715,5.767-5.841,5.045s-.9-2.51-1.95-1.77a7.117,7.117,0,0,1-2.814.925c-3.191.308-3.2-2.889-2.613-5.7a24.587,24.587,0,0,1,.748-2.733c.268-.79.48-1.314.48-1.314l12.368-.167A5.573,5.573,0,0,1,71.594,178.321Z" transform="translate(-6.723 -1.627)" opacity="0.2"/>
        <path id="Path_3723" data-name="Path 3723" d="M158.741,130.309c0,33.034-11.175,59.814-62.745,59.814-34.653,0-61.463-8.61-62.745-59.814C32.424,97.285,61.343,70.495,96,70.495S158.741,97.274,158.741,130.309Z" transform="translate(-8.141 -7.819)" fill="#6c63ff"/>
        <path id="Path_3724" data-name="Path 3724" d="M81.394,71.481H81.4l-.006,0Z" transform="translate(-5.309 -7.761)" opacity="0.2"/>
        <path id="Path_3725" data-name="Path 3725" d="M81.515,71.468c.159-.026.474-.07.932-.1l-1.02.121.055-.011Z" transform="translate(-5.307 -7.768)" opacity="0.2"/>
        <path id="Path_3726" data-name="Path 3726" d="M127.821,95.953l-4.58,1.649a102.3,102.3,0,0,0-7.524-8.969,73.5,73.5,0,0,0-9.528-8.535c-11.726-8.691-20.8-8.913-23.792-8.689l6.885-.81a55.973,55.973,0,0,1,18.483,6.681,61.06,61.06,0,0,1,11.107,8.205A54.312,54.312,0,0,1,127.821,95.953Z" transform="translate(-5.25 -7.813)" opacity="0.2"/>
        <path id="Path_3727" data-name="Path 3727" d="M86.361,98.921s-6.046-20.152-.916-25.648c0,0,8.061-2.748,14.106,12.824Z" transform="translate(-5.193 -7.667)" opacity="0.2"/>
        <path id="Path_3728" data-name="Path 3728" d="M115.107,80.345s16.032-13.624,23.125-11.131c0,0,5.752,6.281-6.086,18.067Z" transform="translate(-3.327 -7.912)" fill="#6c63ff"/>
        <path id="Path_3729" data-name="Path 3729" d="M115.107,80.345s16.032-13.624,23.125-11.131c0,0,5.752,6.281-6.086,18.067Z" transform="translate(-3.327 -7.912)" opacity="0.2"/>
        <path id="Path_3730" data-name="Path 3730" d="M164.737,143.137c0,17.757-12.742,31.785-24.732,31.785s-18.686-14.028-18.686-31.785,9.74-31.457,21.709-32.151C161.989,109.886,164.737,125.38,164.737,143.137Z" transform="translate(-2.962 -5.442)" fill="#6c63ff"/>
        <path id="Path_3731" data-name="Path 3731" d="M164.737,143.137c0,17.757-12.742,31.785-24.732,31.785s-18.686-14.028-18.686-31.785,9.74-31.457,21.709-32.151C161.989,109.886,164.737,125.38,164.737,143.137Z" transform="translate(-2.962 -5.442)" opacity="0.2"/>
        <ellipse id="Ellipse_927" data-name="Ellipse 927" cx="4.03" cy="5.13" rx="4.03" ry="5.13" transform="translate(132.28 135.222)" fill="#6c63ff"/>
        <ellipse id="Ellipse_928" data-name="Ellipse 928" cx="4.03" cy="5.13" rx="4.03" ry="5.13" transform="translate(146.57 130.825)" fill="#6c63ff"/>
        <path id="Path_3732" data-name="Path 3732" d="M118.333,81.93a7.314,7.314,0,0,1-.782,3.309,7.03,7.03,0,0,1-3.155,3.147,73.5,73.5,0,0,0-9.528-8.535,7.18,7.18,0,0,1,1.576-2.818,6.754,6.754,0,0,1,5.009-2.244A7.015,7.015,0,0,1,118.333,81.93Z" transform="translate(-3.929 -7.567)" fill="#fad46f"/>
      </g>
    </g>
  </g>
</svg>
