<svg xmlns="http://www.w3.org/2000/svg" xmlns:xlink="http://www.w3.org/1999/xlink" width="1270" height="394" viewBox="0 0 1270 394">
  <defs>
    <clipPath id="clip-path">
      <rect id="Rectangle_338" data-name="Rectangle 338" width="305" height="305" transform="translate(4895 2417)" fill="#fff" stroke="#707070" stroke-width="1"/>
    </clipPath>
    <linearGradient id="linear-gradient" x1="0.5" y1="1" x2="0.5" gradientUnits="objectBoundingBox">
      <stop offset="0" stop-color="gray" stop-opacity="0.251"/>
      <stop offset="0.54" stop-color="gray" stop-opacity="0.122"/>
      <stop offset="1" stop-color="gray" stop-opacity="0.102"/>
    </linearGradient>
    <linearGradient id="linear-gradient-2" x1="9.926" x2="9.926" y2="0" xlink:href="#linear-gradient"/>
  </defs>
  <g id="home-2" transform="translate(-4504 -3809)">
    <g id="Group_94" data-name="Group 94" transform="translate(1 -13)">
      <rect id="Rectangle_297" data-name="Rectangle 297" width="1270" height="394" transform="translate(4503 3822)" fill="#e2d8d8"/>
    </g>
    <text id="It_doesn_t_matter_how_many_cards_in_your_wallet" data-name="It doesn&apos;t matter 
how many cards in your wallet" transform="translate(5146 4105)" fill="#3f3d56" font-size="20" font-family="Gilroy-Light, Gilroy" font-weight="300"><tspan x="-78.48" y="0">It doesn&apos;t matter </tspan><tspan x="-139.22" y="30">how many cards in your wallet</tspan></text>
    <g id="Mask_Group_61" data-name="Mask Group 61" transform="translate(92 1392)" clip-path="url(#clip-path)">
      <g id="undraw_make_it_rain_iwk4" transform="translate(4895 2457.531)">
        <path id="Path_3535" data-name="Path 3535" d="M68.23,133.356c-4,1.209-7.749,4.137-8.749,8.2-1.144,4.668,1.493,9.373,1.875,14.166,1.231,15.7-21.109,26.783-17.922,42.209,1.265,6.133,6.38,10.645,11.42,14.373,8.074,5.952,17.032,11.211,26.952,12.695,15.057,2.256,30.789-4.374,45.424-.184,11.8,3.381,20.837,13.288,32.56,16.944,8.924,2.784,18.538,1.687,27.808.559,5-.606,10.236-1.306,14.269-4.306,7.5-5.583,7.971-16.61,12.992-24.512,7.755-12.185,24.758-14.579,39.015-12.21s28.1,8.2,42.546,7.724a19.419,19.419,0,0,0,8.942-2.037c3.274-1.84,5.487-5.084,7.443-8.292a134.181,134.181,0,0,0,19.456-66.673c.084-4.046-.059-8.267-1.962-11.839-2.406-4.518-7.214-7.221-12-9.039-11.495-4.374-24.193-5.09-35.457-10.023C271.977,96.35,263.179,88,253.718,80.853A155.127,155.127,0,0,0,189.825,52.4c-5.433-1.05-11.073-1.8-16.472-.587-6.221,1.4-11.582,5.274-16.4,9.448-12.826,11.1-23.106,24.805-34.925,36.975a198.836,198.836,0,0,1-26.533,22.881c-4.374,3.153-9.024,6.9-13.9,9.227C77.132,132.472,72.948,131.935,68.23,133.356Z" transform="translate(-27.955 -20.25)" fill="#6c63ff" opacity="0.2"/>
        <path id="Path_3536" data-name="Path 3536" d="M116.111,37.073S104.035,53.111,112.675,71.8s-15.057,48.729-15.057,48.729" transform="translate(-18.665 -22.656)" fill="none" stroke="#535461" stroke-miterlimit="10" stroke-width="0.534"/>
        <path id="Path_3537" data-name="Path 3537" d="M119.181,33.17c-.959,4.127-5.549,6.586-5.549,6.586s-3.031-4.234-2.072-8.361,3.437-7.077,5.549-6.586S120.14,29.043,119.181,33.17Z" transform="translate(-16.32 -24.756)" fill="#8ed16f"/>
        <ellipse id="Ellipse_824" data-name="Ellipse 824" cx="2.409" cy="0.903" rx="2.409" ry="0.903" transform="translate(97.473 9.632) rotate(-76.9)" fill="#8ed16f"/>
        <ellipse id="Ellipse_825" data-name="Ellipse 825" cx="2.409" cy="0.903" rx="2.409" ry="0.903" transform="translate(97.473 9.632) rotate(-76.9)" opacity="0.3"/>
        <path id="Path_3538" data-name="Path 3538" d="M117.505,48.8c-3.987,1.437-8.545-1.081-8.545-1.081s1.906-4.846,5.9-6.28,7.811-.937,8.545,1.081S121.492,47.366,117.505,48.8Z" transform="translate(-16.732 -22.051)" fill="#8ed16f"/>
        <ellipse id="Ellipse_826" data-name="Ellipse 826" cx="2.408" cy="0.903" rx="2.408" ry="0.903" transform="matrix(0.94, -0.34, 0.34, 0.94, 96.775, 22.691)" fill="#8ed16f"/>
        <ellipse id="Ellipse_827" data-name="Ellipse 827" cx="2.408" cy="0.903" rx="2.408" ry="0.903" transform="matrix(0.94, -0.34, 0.34, 0.94, 96.775, 22.691)" opacity="0.3"/>
        <path id="Path_3539" data-name="Path 3539" d="M116.713,61.288c-3.987,1.437-8.545-1.081-8.545-1.081s1.906-4.846,5.9-6.28,7.811-.937,8.545,1.081S120.7,59.854,116.713,61.288Z" transform="translate(-16.867 -19.923)" fill="#8ed16f"/>
        <ellipse id="Ellipse_828" data-name="Ellipse 828" cx="2.409" cy="0.903" rx="2.409" ry="0.903" transform="translate(95.894 37.52) rotate(-19.8)" fill="#8ed16f"/>
        <ellipse id="Ellipse_829" data-name="Ellipse 829" cx="2.409" cy="0.903" rx="2.409" ry="0.903" transform="translate(95.894 37.52) rotate(-19.8)" opacity="0.3"/>
        <path id="Path_3540" data-name="Path 3540" d="M120.693,75.935c-3.987,1.437-8.545-1.081-8.545-1.081s1.906-4.846,5.9-6.28,7.811-.937,8.545,1.081S124.68,74.507,120.693,75.935Z" transform="translate(-16.188 -17.426)" fill="#8ed16f"/>
        <ellipse id="Ellipse_830" data-name="Ellipse 830" cx="2.409" cy="0.903" rx="2.409" ry="0.903" transform="translate(100.553 54.672) rotate(-19.8)" fill="#8ed16f"/>
        <ellipse id="Ellipse_831" data-name="Ellipse 831" cx="2.409" cy="0.903" rx="2.409" ry="0.903" transform="translate(100.553 54.672) rotate(-19.8)" opacity="0.3"/>
        <path id="Path_3541" data-name="Path 3541" d="M118.1,89.33c-3.987,1.437-8.545-1.081-8.545-1.081s1.906-4.846,5.9-6.28,7.811-.937,8.545,1.081S122.093,87.9,118.1,89.33Z" transform="translate(-16.63 -15.143)" fill="#8ed16f"/>
        <ellipse id="Ellipse_832" data-name="Ellipse 832" cx="2.408" cy="0.903" rx="2.408" ry="0.903" transform="matrix(0.94, -0.34, 0.34, 0.94, 97.531, 70.089)" fill="#8ed16f"/>
        <ellipse id="Ellipse_833" data-name="Ellipse 833" cx="2.408" cy="0.903" rx="2.408" ry="0.903" transform="matrix(0.94, -0.34, 0.34, 0.94, 97.531, 70.089)" opacity="0.3"/>
        <path id="Path_3542" data-name="Path 3542" d="M101.351,52.451c2.943,3.049,8.146,2.812,8.146,2.812s.428-5.19-2.515-8.239-6.59-4.306-8.146-2.812S98.407,49.4,101.351,52.451Z" transform="translate(-18.577 -21.546)" fill="#8ed16f"/>
        <ellipse id="Ellipse_834" data-name="Ellipse 834" cx="0.903" cy="2.409" rx="0.903" ry="2.409" transform="translate(83.378 26.983) rotate(-43.99)" fill="#8ed16f"/>
        <ellipse id="Ellipse_835" data-name="Ellipse 835" cx="0.903" cy="2.409" rx="0.903" ry="2.409" transform="translate(83.378 26.983) rotate(-43.99)" opacity="0.3"/>
        <path id="Path_3543" data-name="Path 3543" d="M99.906,93.824c2.943,3.049,8.146,2.812,8.146,2.812s.428-5.19-2.515-8.239-6.59-4.306-8.146-2.812S96.963,90.775,99.906,93.824Z" transform="translate(-18.823 -14.493)" fill="#8ed16f"/>
        <ellipse id="Ellipse_836" data-name="Ellipse 836" cx="0.903" cy="2.409" rx="0.903" ry="2.409" transform="translate(81.683 75.414) rotate(-43.99)" fill="#8ed16f"/>
        <ellipse id="Ellipse_837" data-name="Ellipse 837" cx="0.903" cy="2.409" rx="0.903" ry="2.409" transform="translate(81.683 75.414) rotate(-43.99)" opacity="0.3"/>
        <path id="Path_3544" data-name="Path 3544" d="M103.55,67.007c3.793,1.893,8.614-.075,8.614-.075S110.836,61.9,107.046,60s-7.649-1.875-8.614.075S99.757,65.113,103.55,67.007Z" transform="translate(-18.564 -18.986)" fill="#8ed16f"/>
        <ellipse id="Ellipse_838" data-name="Ellipse 838" cx="0.903" cy="2.409" rx="0.903" ry="2.409" transform="translate(84.236 44.113) rotate(-63.48)" fill="#8ed16f"/>
        <ellipse id="Ellipse_839" data-name="Ellipse 839" cx="0.903" cy="2.409" rx="0.903" ry="2.409" transform="translate(84.236 44.113) rotate(-63.48)" opacity="0.3"/>
        <path id="Path_3545" data-name="Path 3545" d="M104.908,81.574c3.793,1.893,8.614-.075,8.614-.075s-1.328-5.034-5.118-6.927-7.649-1.875-8.614.075S101.131,79.7,104.908,81.574Z" transform="translate(-18.332 -16.503)" fill="#8ed16f"/>
        <ellipse id="Ellipse_840" data-name="Ellipse 840" cx="0.903" cy="2.409" rx="0.903" ry="2.409" transform="translate(85.828 61.165) rotate(-63.48)" fill="#8ed16f"/>
        <ellipse id="Ellipse_841" data-name="Ellipse 841" cx="0.903" cy="2.409" rx="0.903" ry="2.409" transform="translate(85.828 61.165) rotate(-63.48)" opacity="0.3"/>
        <path id="Path_3546" data-name="Path 3546" d="M67.1,66.524s22.056,22.056,9.6,54.785,21.343,87.154,21.343,87.154-.362-.053-1.034-.172c-45.3-8-67.8-59.806-42.618-98.293C63.752,95.688,71.454,78.9,67.1,66.524Z" transform="translate(-27.821 -17.636)" fill="#8ed16f"/>
        <path id="Path_3547" data-name="Path 3547" d="M30.164,142.779s25.168-4.009,27.461,18.547,48.4,25.683,48.4,25.683-.312.206-.865.575c-38.066,25-74.453,15.916-68.97-17.263C38.229,157.983,38.06,145.594,30.164,142.779Z" transform="translate(-30.164 -4.683)" fill="#8ed16f"/>
        <g id="Group_126" data-name="Group 126" transform="translate(0 137.82)" opacity="0.3">
          <path id="Path_3548" data-name="Path 3548" d="M30.164,142.779s25.168-4.009,27.461,18.547,48.4,25.683,48.4,25.683-.312.206-.865.575c-38.066,25-74.453,15.916-68.97-17.263C38.229,157.983,38.06,145.594,30.164,142.779Z" transform="translate(-30.164 -142.503)" fill="#fff"/>
        </g>
        <ellipse id="Ellipse_842" data-name="Ellipse 842" cx="6.921" cy="18.056" rx="6.921" ry="18.056" transform="translate(25.993 101.705)" fill="#8ed16f"/>
        <ellipse id="Ellipse_843" data-name="Ellipse 843" cx="6.921" cy="18.056" rx="6.921" ry="18.056" transform="translate(25.993 101.705)" opacity="0.3"/>
        <ellipse id="Ellipse_844" data-name="Ellipse 844" cx="4.665" cy="10.383" rx="4.665" ry="10.383" transform="translate(14.3 173.954) rotate(-45)" fill="#8ed16f"/>
        <ellipse id="Ellipse_845" data-name="Ellipse 845" cx="4.665" cy="10.383" rx="4.665" ry="10.383" transform="translate(14.3 173.954) rotate(-45)" opacity="0.3"/>
        <path id="Path_3549" data-name="Path 3549" d="M248.348,95.618H84.52a7.464,7.464,0,0,0-7.464,7.464v96.025a7.464,7.464,0,0,0,7.464,7.464H248.348a7.464,7.464,0,0,0,7.464-7.464V103.083A7.464,7.464,0,0,0,248.348,95.618Z" transform="translate(-22.171 -12.676)" fill="url(#linear-gradient)"/>
        <rect id="Rectangle_345" data-name="Rectangle 345" width="174.549" height="108.341" rx="6.623" transform="translate(56.987 84.249)" fill="#6c63ff"/>
        <rect id="Rectangle_346" data-name="Rectangle 346" width="174.549" height="19.862" transform="translate(56.987 103.208)" fill="#6c63ff"/>
        <rect id="Rectangle_347" data-name="Rectangle 347" width="174.549" height="19.862" transform="translate(56.987 103.208)" opacity="0.3"/>
        <rect id="Rectangle_348" data-name="Rectangle 348" width="141.445" height="9.63" transform="translate(73.541 137.818)" fill="#d6d6e3"/>
        <circle id="Ellipse_846" data-name="Ellipse 846" cx="13.845" cy="13.845" r="13.845" transform="translate(71.432 157.68)" fill="#6c63ff"/>
        <circle id="Ellipse_847" data-name="Ellipse 847" cx="13.845" cy="13.845" r="13.845" transform="translate(71.432 157.68)" opacity="0.3"/>
        <path id="Path_3550" data-name="Path 3550" d="M219.508,77.156a3.031,3.031,0,0,0,1.334,1.687c2.871,1.9,9.114,1.493,9.864,1.493.159,0,.369.284.6.762a52.749,52.749,0,0,1,2.928,10.442c.153,1.815,1.84,10.311,4.6,13.476.084.1.169.187.25.272,2.709,2.721,5.886-.272,5.886-.272l.456-1.584c-.128.625-.272,1.353-.416,2.168-.072.409-.144.844-.212,1.29a49.451,49.451,0,0,0-.647,7.614,27.616,27.616,0,0,0,.119,2.775c.025.256.053.509.088.756a26.494,26.494,0,0,1,.206,3.387,92.069,92.069,0,0,1-1.74,15.088l.066-.022c-.041.209-.066.312-.066.312l.1-.031q-.072.466-.137.953c-.581,4.218-.915,9.467-1.075,12.5a25.025,25.025,0,0,0,.212,4.787l3.049,21.468v10a17.654,17.654,0,0,0,.55,4.493c.994,3.778.175,16.963-.284,23.218-.128,1.706-.228,2.9-.256,3.243v.1l.087-.034v.109a1.766,1.766,0,0,1,.406-.119c-1.209,1.875-3.4,4.974-5.084,5.5a5.334,5.334,0,0,0-2.54,1.684l-.044.059-.062.087a1.874,1.874,0,0,0-.366.956,1.055,1.055,0,0,1-.056-.184c-.128.7.291,1.334,1.606,1.644a10.813,10.813,0,0,0,2.328.187c4.562,0,12.657-1.4,13.551-2.912V219.3l.147.047v.047l.559.184,1.534-5.149c1.84-1.362.312-25.743,0-31.345-.281-5.105,2.878-25.414,3.437-28.992l-.075-.091.084-.522a2.219,2.219,0,0,1,.312.275,4.084,4.084,0,0,1,.478.706,9.444,9.444,0,0,1,.678,1.4c3.087,7.7,4.477,29.714,4.477,31.688v20.7a21.56,21.56,0,0,0,.844,6.04,25.909,25.909,0,0,1,.656,3.143c.066.416.122.828.175,1.222s.106.844.147,1.212a2.529,2.529,0,0,0,.031.278.547.547,0,0,1,0,.128c.084.815.128,1.35.128,1.35a.313.313,0,0,1,.062-.122l.016.2a.421.421,0,0,1,.122-.194,2.961,2.961,0,0,1,.412-.337V223.8l-.075-.056v.453c3.181,2.4,8.358,3.124,12.332,3.1a15.777,15.777,0,0,0,5.39-.675c1.037-.509.469-1.7-.475-2.606a3.564,3.564,0,0,0-2.287-1.181c-1.006.109-4.446-3.787-6.249-5.921l.2-.091.287-.125V182.176s.462-13.629,1.84-27.108a47.955,47.955,0,0,0-2.359-20.109l-.044-.128.419.066c.444.069.681.109.681.109a2.6,2.6,0,0,0-.028-.312h.028s-.537-5.846-.544-13.188c0-8.324.7-18.472,3.612-24.215a17.083,17.083,0,0,0,2.187-8.011,8.38,8.38,0,0,0-1.5-5.124,4.062,4.062,0,0,0-1.722-1.362l-.059-.034h-.031a4.28,4.28,0,0,0-1.581-.312h-6.283a4.2,4.2,0,0,1-2.075-.547l-2.459-1.394a12.473,12.473,0,0,1-.762-6.09c0-.166.031-.331.047-.494l.178-.187c.137-.147.266-.312.391-.453a3.49,3.49,0,0,1-.028.369c-.031.2-.084.312-.169.337,1.344-.175,2.843-.441,3.668-1.478.034-.041.066-.084.1-.128a6.694,6.694,0,0,0,.6-1.25,3.629,3.629,0,0,1,.459-.837c.206-.269.475-.487.7-.744l.038-.044A5.4,5.4,0,0,0,274.311,66c.016-2.975-.072-6.249-2.062-8.48-1.653-1.856-4.29-2.559-6.793-2.64s-5,.369-7.5.381c-1.7,0-3.749-.028-4.687,1.378-.459.691-.516,1.593-1.015,2.256-.287.381-.728.709-.753,1.184a1.216,1.216,0,0,0,.162.625v.022A4.42,4.42,0,0,0,254.9,62.9a8.065,8.065,0,0,0-.625.862,8.211,8.211,0,0,0-1.25,4.374,5.117,5.117,0,0,0,.019.537,8.258,8.258,0,0,0,2.618,5.5c-.025.175-.05.35-.078.522l.056.05q.266.241.553.456l.069.053v.312a5.232,5.232,0,0,1-.019.544c-.019.178,0,.287-.019.431l-.041-.034-3.053-2.55-4.909-4.543s-12.273-8.933-12.888-4.687a3.058,3.058,0,0,0,.584,2.118c2.253,3.437,10,6.361,10,6.361a65.463,65.463,0,0,1,7.708,10.148c-.109.059-.219.116-.334.169-2.75,1.278-6.761.737-6.761.737-4.634.722-5.052,5.8-5.027,7.852v.425L235.355,78.1l-.019-.044a3.04,3.04,0,0,0-2.3-1.806C228.925,75.563,218.649,74.122,219.508,77.156ZM245.25,217.445a2.668,2.668,0,0,1,.272-.05l-.028.044Z" transform="translate(2.105 -19.622)" fill="url(#linear-gradient-2)"/>
        <path id="Path_3551" data-name="Path 3551" d="M268.809,191.245s5.824,7.321,7.171,7.171,4.481,2.837,2.69,3.749-12.1,1.493-17.185-2.39v-5.852Z" transform="translate(9.27 3.626)" fill="#aca9c9"/>
        <path id="Path_3552" data-name="Path 3552" d="M243.874,191.626s-3.437,6.124-5.824,6.874-4.481,3.437-1.344,4.184,14.341-.9,15.385-2.69v-7.921Z" transform="translate(4.775 3.691)" fill="#aca9c9"/>
        <path id="Path_3553" data-name="Path 3553" d="M238.948,143.651l2.968,21.178v9.845a17.646,17.646,0,0,0,.537,4.43c.969,3.728.172,16.732-.278,22.9-.147,2.012-.259,3.3-.259,3.3,1.94-.9,10.158,1.94,10.158,1.94l.831-2.828.662-2.25c1.793-1.344.312-25.393,0-30.932-.2-3.784,1.484-16.05,2.565-23.4.312-2.078.566-3.749.719-4.755.1-.625.15-.972.15-.972a3.271,3.271,0,0,1,.806.972,9.349,9.349,0,0,1,.659,1.381c3.006,7.6,4.374,29.311,4.374,31.245v20.422a21.534,21.534,0,0,0,.822,5.958,31.246,31.246,0,0,1,.809,4.3c.212,1.622.312,2.928.312,2.928.15-.9,9.411-4.93,9.411-4.93V170.328s.447-13.435,1.793-26.739A47.7,47.7,0,0,0,274.27,125.6c-.372-1.272-.744-2.35-1.065-3.2-.547-1.453-.937-2.256-.937-2.256H241.76c-.512.1-.937,1.128-1.322,2.693-.25,1.05-.469,2.337-.659,3.749-.566,4.159-.89,9.336-1.047,12.329A24.956,24.956,0,0,0,238.948,143.651Z" transform="translate(5.386 -8.496)" fill="#618fd8"/>
        <g id="Group_127" data-name="Group 127" transform="translate(247.377 111.738)" opacity="0.1">
          <path id="Path_3554" data-name="Path 3554" d="M269.857,204.468V170.411s.447-13.435,1.793-26.739A46.581,46.581,0,0,0,267.9,120.22h.6a46.852,46.852,0,0,1,3.749,23.452c-1.328,13.295-1.793,26.739-1.793,26.739v34.057s-9.261,4.034-9.411,4.93a4.471,4.471,0,0,0-.047-.544A87.093,87.093,0,0,1,269.857,204.468Z" transform="translate(-238.191 -120.22)"/>
          <path id="Path_3555" data-name="Path 3555" d="M242.334,192.823a2.319,2.319,0,0,0-.822.169v-.15a5.335,5.335,0,0,1,.822-.019Z" transform="translate(-241.512 -107.844)"/>
          <path id="Path_3556" data-name="Path 3556" d="M251.166,199.034c1.793-1.344.312-25.393,0-30.932s3.437-29.126,3.437-29.126a2.605,2.605,0,0,1,.516.531c-.55,3.524-3.624,23.562-3.353,28.6.312,5.527,1.793,29.576,0,30.932l-1.493,5.077-.544-.181Z" transform="translate(-240.112 -117.022)"/>
        </g>
        <path id="Path_3557" data-name="Path 3557" d="M248.206,91.3l-3.124,11.054s-3.287,3.124-5.974,0-4.343-11.5-4.505-13.295S232.061,78,231.165,78s-9.858.6-10.9-3.124c-.837-2.993,9.167-1.562,13.173-.89a2.968,2.968,0,0,1,2.24,1.781l6.143,14.669S245.069,86.665,248.206,91.3Z" transform="translate(2.234 -16.523)" fill="#f7c4a7"/>
        <path id="Path_3558" data-name="Path 3558" d="M263.772,66.687s-3.884,10.9,1.047,14.788-17.631,4.93-17.631,4.93l3.062-2.912s2.165-8.589.672-15.76Z" transform="translate(6.833 -17.608)" fill="#f7c4a7"/>
        <path id="Path_3559" data-name="Path 3559" d="M260.466,79.615s3.959-.972,3.959-2.015l3.509,2.015h8.814s6.424,3.584,1.047,14.341-2.987,37.181-2.987,37.181-19.119-3.437-34.954,1.793c0,0,2.39-11.8,1.494-18.522s1.493-16.132,1.493-16.132l1.344-5.677s-.075-5.312-5.6-2.615c0,0-.822-7.692,4.855-8.589,0,0,6.561.9,8.514-2.39C251.952,79.018,256.285,81.559,260.466,79.615Z" transform="translate(5.358 -15.747)" opacity="0.1"/>
        <path id="Path_3560" data-name="Path 3560" d="M260.466,79.361s3.959-.972,3.959-2.015L267,78.824a4.062,4.062,0,0,0,2.018.537h6.165a4.062,4.062,0,0,1,3.3,1.681c1.415,1.99,2.684,5.915-.687,12.66-5.377,10.754-2.987,37.181-2.987,37.181s-19.119-3.437-34.954,1.793c0,0,2.39-11.8,1.494-18.522s1.493-16.11,1.493-16.11l1.344-5.677s-.075-5.312-5.6-2.615c0,0-.8-7.48,4.621-8.549a1.531,1.531,0,0,1,.459-.031c1.159.122,6.561.512,8.292-2.415C251.952,78.762,256.285,81.3,260.466,79.361Z" transform="translate(5.358 -15.791)" fill="#e14b5a"/>
        <path id="Path_3561" data-name="Path 3561" d="M273.666,92.39s-4.78,2.987-12.548,0c0,0-8.514-3.124-11.2-9.261s13.591,1.047,13.591,1.047,3.437,0,4.481-.747S276.353,89.1,273.666,92.39Z" transform="translate(7.246 -15.228)" opacity="0.1"/>
        <path id="Path_3562" data-name="Path 3562" d="M276.433,94.774s-4.78,2.987-12.548,0c0,0-8.514-3.124-11.2-9.261s-8.961-12.857-8.961-12.857-10.9-4.184-10.311-8.364,12.548,4.63,12.548,4.63l4.78,4.481,15.535,13.145s3.437,0,4.48-.747S279.12,91.487,276.433,94.774Z" transform="translate(4.48 -18.208)" fill="#f7c4a7"/>
        <path id="Path_3563" data-name="Path 3563" d="M250.255,68.116,263.1,67.069a29.486,29.486,0,0,0-1.34,6.083,8.208,8.208,0,0,1-11.5.312,14.6,14.6,0,0,0-.006-5.349Z" transform="translate(7.355 -17.543)" opacity="0.1"/>
        <circle id="Ellipse_848" data-name="Ellipse 848" cx="8.214" cy="8.214" r="8.214" transform="translate(255.148 41.24)" fill="#f7c4a7"/>
        <path id="Path_3564" data-name="Path 3564" d="M261.092,70.652c-.481-.794.5-1.828.175-2.7-.3-.8-1.478-.937-1.875-1.684-.312-.6,0-1.344-.125-2.009a2.064,2.064,0,0,0-1.981-1.437,7.068,7.068,0,0,0-2.559.566,9.825,9.825,0,0,1-4.215.65,4.42,4.42,0,0,1-3.481-2.209,1.25,1.25,0,0,1-.159-.606c.025-.469.456-.79.734-1.165.487-.653.544-1.543.987-2.225.906-1.387,2.9-1.353,4.552-1.359,2.437,0,4.862-.456,7.3-.375s5,.772,6.615,2.6c1.937,2.2,2.025,5.427,2.009,8.364a5.324,5.324,0,0,1-.822,3.459c-.225.272-.5.5-.715.775-.469.625-.594,1.425-1.034,2.059-.781,1.128-2.306,1.4-3.665,1.584.4-.053.069-2.731,0-2.978C262.57,70.737,262.286,70.762,261.092,70.652Z" transform="translate(6.779 -19.414)" opacity="0.1"/>
        <path id="Path_3565" data-name="Path 3565" d="M261.092,70.4c-.481-.794.5-1.828.175-2.7-.3-.8-1.478-.937-1.875-1.684-.312-.6,0-1.344-.125-2.009a2.064,2.064,0,0,0-1.981-1.437,7.068,7.068,0,0,0-2.559.566,9.825,9.825,0,0,1-4.215.65,4.42,4.42,0,0,1-3.481-2.209,1.25,1.25,0,0,1-.159-.606c.025-.469.456-.79.734-1.165.487-.653.544-1.543.987-2.225.906-1.387,2.9-1.353,4.552-1.359,2.437,0,4.862-.456,7.3-.375s5,.772,6.615,2.6c1.937,2.2,2.025,5.427,2.009,8.364a5.324,5.324,0,0,1-.822,3.459c-.225.272-.5.5-.715.775-.469.625-.594,1.425-1.034,2.059-.781,1.128-2.306,1.4-3.665,1.584.4-.053.069-2.731,0-2.978C262.57,70.468,262.286,70.505,261.092,70.4Z" transform="translate(6.779 -19.457)" fill="#281c1c"/>
        <path id="Path_3566" data-name="Path 3566" d="M271.239,92.586s-4.034-10.458-7.171-10.754,5.974,0,5.974,0l2.987,5.377Z" transform="translate(9.598 -15.049)" opacity="0.1"/>
        <path id="Path_3567" data-name="Path 3567" d="M271.5,92.586s-4.034-10.458-7.171-10.754,5.974,0,5.974,0l2.987,5.377Z" transform="translate(9.642 -15.049)" fill="#e14b5a"/>
        <path id="Path_3568" data-name="Path 3568" d="M260.708,194.493c.212,1.622.312,2.928.312,2.928.15-.9,9.411-4.93,9.411-4.93v-2.428a4.125,4.125,0,0,0-.706.034,13.324,13.324,0,0,0-5,2.043A45.618,45.618,0,0,1,260.708,194.493Z" transform="translate(9.137 3.424)" fill="#618fd8"/>
        <path id="Path_3569" data-name="Path 3569" d="M260.708,194.493c.212,1.622.312,2.928.312,2.928.15-.9,9.411-4.93,9.411-4.93v-2.428a4.125,4.125,0,0,0-.706.034,13.324,13.324,0,0,0-5,2.043A45.618,45.618,0,0,1,260.708,194.493Z" transform="translate(9.137 3.424)" opacity="0.3"/>
        <path id="Path_3570" data-name="Path 3570" d="M241.448,193.411c1.94-.9,10.158,1.94,10.158,1.94l.831-2.828c-1.434-.291-2.859-.653-4.259-1.084a14.169,14.169,0,0,1-1.912-.706,12.816,12.816,0,0,0-1.275-.594,6.614,6.614,0,0,0-3.287-.028C241.561,192.124,241.448,193.411,241.448,193.411Z" transform="translate(5.854 3.4)" fill="#618fd8"/>
        <path id="Path_3571" data-name="Path 3571" d="M241.448,193.411c1.94-.9,10.158,1.94,10.158,1.94l.831-2.828c-1.434-.291-2.859-.653-4.259-1.084a14.169,14.169,0,0,1-1.912-.706,12.816,12.816,0,0,0-1.275-.594,6.614,6.614,0,0,0-3.287-.028C241.561,192.124,241.448,193.411,241.448,193.411Z" transform="translate(5.854 3.4)" opacity="0.3"/>
        <path id="Path_3572" data-name="Path 3572" d="M278.6,200.525a.894.894,0,0,0,.512-.594.878.878,0,0,1-.512,1.04c-1.793.9-12.1,1.494-17.185-2.39v-.447C266.5,202.018,276.807,201.421,278.6,200.525Z" transform="translate(9.258 4.801)" fill="#fff" opacity="0.4"/>
        <path id="Path_3573" data-name="Path 3573" d="M236.639,201.078c3.124.747,14.341-.9,15.385-2.69v.447c-1.047,1.793-12.248,3.437-15.385,2.69-1.281-.312-1.69-.937-1.562-1.622C235.177,200.41,235.646,200.828,236.639,201.078Z" transform="translate(4.764 4.844)" fill="#fff" opacity="0.4"/>
        <path id="Path_3574" data-name="Path 3574" d="M253.833,107.787s-3.287-1.047-4.184,0-8.561,3.5-8.561,3.5" transform="translate(5.793 -10.681)" opacity="0.1"/>
        <rect id="Rectangle_349" data-name="Rectangle 349" width="15.982" height="0.337" transform="translate(238.416 56.063) rotate(180)" fill="#8ed16f"/>
        <rect id="Rectangle_350" data-name="Rectangle 350" width="15.982" height="0.337" transform="translate(238.416 56.4) rotate(180)" fill="#8ed16f"/>
        <rect id="Rectangle_351" data-name="Rectangle 351" width="15.982" height="0.337" transform="translate(238.416 56.4) rotate(180)" opacity="0.1"/>
        <rect id="Rectangle_352" data-name="Rectangle 352" width="15.982" height="0.337" transform="translate(238.416 56.738) rotate(180)" fill="#8ed16f"/>
        <rect id="Rectangle_353" data-name="Rectangle 353" width="15.982" height="0.337" transform="translate(238.416 57.072) rotate(180)" fill="#8ed16f"/>
        <rect id="Rectangle_354" data-name="Rectangle 354" width="15.982" height="0.337" transform="translate(238.416 57.072) rotate(180)" opacity="0.1"/>
        <rect id="Rectangle_355" data-name="Rectangle 355" width="15.982" height="0.337" transform="translate(238.416 57.409) rotate(180)" fill="#8ed16f"/>
        <rect id="Rectangle_356" data-name="Rectangle 356" width="15.982" height="0.337" transform="translate(238.416 57.744) rotate(180)" fill="#8ed16f"/>
        <rect id="Rectangle_357" data-name="Rectangle 357" width="15.982" height="0.337" transform="translate(238.416 57.744) rotate(180)" opacity="0.1"/>
        <rect id="Rectangle_358" data-name="Rectangle 358" width="15.982" height="0.337" transform="translate(238.416 58.081) rotate(180)" fill="#8ed16f"/>
        <rect id="Rectangle_359" data-name="Rectangle 359" width="15.982" height="0.337" transform="translate(238.416 58.415) rotate(180)" fill="#8ed16f"/>
        <rect id="Rectangle_360" data-name="Rectangle 360" width="15.982" height="0.337" transform="translate(238.416 58.415) rotate(180)" opacity="0.1"/>
        <rect id="Rectangle_361" data-name="Rectangle 361" width="15.982" height="0.337" transform="translate(238.416 53.376) rotate(180)" fill="#8ed16f"/>
        <rect id="Rectangle_362" data-name="Rectangle 362" width="15.982" height="0.337" transform="translate(246.027 55.606) rotate(-140.25)" fill="#8ed16f"/>
        <rect id="Rectangle_363" data-name="Rectangle 363" width="15.982" height="0.337" transform="translate(234.824 50.229) rotate(-140.25)" fill="#8ed16f"/>
        <rect id="Rectangle_364" data-name="Rectangle 364" width="15.982" height="0.337" transform="translate(238.416 53.71) rotate(180)" fill="#8ed16f"/>
        <rect id="Rectangle_365" data-name="Rectangle 365" width="15.982" height="0.337" transform="translate(238.416 53.71) rotate(180)" opacity="0.1"/>
        <rect id="Rectangle_366" data-name="Rectangle 366" width="15.982" height="0.337" transform="translate(238.416 54.051) rotate(180)" fill="#8ed16f"/>
        <rect id="Rectangle_367" data-name="Rectangle 367" width="15.982" height="0.337" transform="translate(238.416 54.385) rotate(180)" fill="#8ed16f"/>
        <rect id="Rectangle_368" data-name="Rectangle 368" width="15.982" height="0.337" transform="translate(238.416 54.385) rotate(180)" opacity="0.1"/>
        <rect id="Rectangle_369" data-name="Rectangle 369" width="15.982" height="0.337" transform="translate(238.416 54.719) rotate(180)" fill="#8ed16f"/>
        <rect id="Rectangle_370" data-name="Rectangle 370" width="15.982" height="0.337" transform="translate(238.416 55.057) rotate(180)" fill="#8ed16f"/>
        <rect id="Rectangle_371" data-name="Rectangle 371" width="15.982" height="0.337" transform="translate(238.416 55.057) rotate(180)" opacity="0.1"/>
        <rect id="Rectangle_372" data-name="Rectangle 372" width="15.982" height="0.337" transform="translate(238.416 55.391) rotate(180)" fill="#8ed16f"/>
        <rect id="Rectangle_373" data-name="Rectangle 373" width="15.982" height="0.337" transform="translate(238.416 55.728) rotate(180)" fill="#8ed16f"/>
        <rect id="Rectangle_374" data-name="Rectangle 374" width="15.982" height="0.337" transform="translate(238.416 55.728) rotate(180)" opacity="0.1"/>
        <rect id="Rectangle_375" data-name="Rectangle 375" width="5.824" height="11.351" transform="translate(226.135 69.893) rotate(-169.48)" fill="#8ed16f"/>
        <ellipse id="Ellipse_849" data-name="Ellipse 849" cx="2.39" cy="1.194" rx="2.39" ry="1.194" transform="translate(222.778 65.95) rotate(-79.48)" fill="#8ed16f"/>
        <ellipse id="Ellipse_850" data-name="Ellipse 850" cx="2.39" cy="1.194" rx="2.39" ry="1.194" transform="translate(222.778 65.95) rotate(-79.48)" opacity="0.1"/>
        <rect id="Rectangle_376" data-name="Rectangle 376" width="5.824" height="11.351" transform="translate(227.115 93.45) rotate(-169.48)" fill="#8ed16f"/>
        <ellipse id="Ellipse_851" data-name="Ellipse 851" cx="2.39" cy="1.194" rx="2.39" ry="1.194" transform="translate(223.755 89.504) rotate(-79.48)" fill="#8ed16f"/>
        <ellipse id="Ellipse_852" data-name="Ellipse 852" cx="2.39" cy="1.194" rx="2.39" ry="1.194" transform="translate(223.755 89.504) rotate(-79.48)" opacity="0.1"/>
        <rect id="Rectangle_377" data-name="Rectangle 377" width="5.824" height="11.351" transform="translate(197.906 39.608) rotate(-61.58)" fill="#8ed16f"/>
        <ellipse id="Ellipse_853" data-name="Ellipse 853" cx="1.196" cy="2.396" rx="1.196" ry="2.396" transform="translate(202.579 39.87) rotate(-61.39)" fill="#8ed16f"/>
        <ellipse id="Ellipse_854" data-name="Ellipse 854" cx="1.196" cy="2.396" rx="1.196" ry="2.396" transform="translate(202.579 39.87) rotate(-61.39)" opacity="0.1"/>
        <rect id="Rectangle_378" data-name="Rectangle 378" width="5.824" height="11.351" transform="translate(175.985 140.692) rotate(-61.58)" fill="#8ed16f"/>
        <ellipse id="Ellipse_855" data-name="Ellipse 855" cx="1.194" cy="2.39" rx="1.194" ry="2.39" transform="translate(179.66 140.813) rotate(-61.58)" fill="#8ed16f"/>
        <ellipse id="Ellipse_856" data-name="Ellipse 856" cx="1.194" cy="2.39" rx="1.194" ry="2.39" transform="translate(179.66 140.813) rotate(-61.58)" opacity="0.1"/>
        <rect id="Rectangle_379" data-name="Rectangle 379" width="5.824" height="11.351" transform="translate(162.573 57.274) rotate(-61.58)" fill="#8ed16f"/>
        <ellipse id="Ellipse_857" data-name="Ellipse 857" cx="1.194" cy="2.39" rx="1.194" ry="2.39" transform="translate(166.245 57.39) rotate(-61.58)" fill="#8ed16f"/>
        <ellipse id="Ellipse_858" data-name="Ellipse 858" cx="1.194" cy="2.39" rx="1.194" ry="2.39" transform="translate(166.245 57.39) rotate(-61.58)" opacity="0.1"/>
        <rect id="Rectangle_380" data-name="Rectangle 380" width="5.824" height="11.351" transform="translate(179.383 39.607) rotate(-61.58)" fill="#8ed16f"/>
        <ellipse id="Ellipse_859" data-name="Ellipse 859" cx="1.194" cy="2.39" rx="1.194" ry="2.39" transform="translate(183.055 39.723) rotate(-61.58)" fill="#8ed16f"/>
        <ellipse id="Ellipse_860" data-name="Ellipse 860" cx="1.194" cy="2.39" rx="1.194" ry="2.39" transform="translate(183.055 39.723) rotate(-61.58)" opacity="0.1"/>
        <rect id="Rectangle_381" data-name="Rectangle 381" width="5.824" height="11.351" transform="matrix(0.994, -0.109, 0.109, 0.994, 193.149, 55.965)" fill="#8ed16f"/>
        <ellipse id="Ellipse_861" data-name="Ellipse 861" cx="1.194" cy="2.39" rx="1.194" ry="2.39" transform="matrix(0.994, -0.109, 0.109, 0.994, 195.138, 59.053)" fill="#8ed16f"/>
        <ellipse id="Ellipse_862" data-name="Ellipse 862" cx="1.194" cy="2.39" rx="1.194" ry="2.39" transform="matrix(0.994, -0.109, 0.109, 0.994, 195.138, 59.053)" opacity="0.1"/>
        <rect id="Rectangle_382" data-name="Rectangle 382" width="5.824" height="11.351" transform="matrix(0.994, -0.109, 0.109, 0.994, 232.842, 117.754)" fill="#8ed16f"/>
        <ellipse id="Ellipse_863" data-name="Ellipse 863" cx="1.194" cy="2.39" rx="1.194" ry="2.39" transform="matrix(0.994, -0.109, 0.109, 0.994, 234.834, 120.843)" fill="#8ed16f"/>
        <ellipse id="Ellipse_864" data-name="Ellipse 864" cx="1.194" cy="2.39" rx="1.194" ry="2.39" transform="matrix(0.994, -0.109, 0.109, 0.994, 234.834, 120.843)" opacity="0.1"/>
        <rect id="Rectangle_383" data-name="Rectangle 383" width="5.824" height="11.351" transform="translate(173.495 84.423) rotate(-61.58)" fill="#8ed16f"/>
        <ellipse id="Ellipse_865" data-name="Ellipse 865" cx="1.194" cy="2.39" rx="1.194" ry="2.39" transform="translate(177.165 84.543) rotate(-61.58)" fill="#8ed16f"/>
        <ellipse id="Ellipse_866" data-name="Ellipse 866" cx="1.194" cy="2.39" rx="1.194" ry="2.39" transform="translate(177.165 84.543) rotate(-61.58)" opacity="0.1"/>
        <rect id="Rectangle_384" data-name="Rectangle 384" width="5.824" height="11.351" transform="translate(148.303 77.228) rotate(-61.58)" fill="#8ed16f"/>
        <ellipse id="Ellipse_867" data-name="Ellipse 867" cx="1.196" cy="2.396" rx="1.196" ry="2.396" transform="translate(152.797 77.669) rotate(-61.39)" fill="#8ed16f"/>
        <ellipse id="Ellipse_868" data-name="Ellipse 868" cx="1.196" cy="2.396" rx="1.196" ry="2.396" transform="translate(152.797 77.669) rotate(-61.39)" opacity="0.1"/>
        <rect id="Rectangle_385" data-name="Rectangle 385" width="5.824" height="11.351" transform="translate(140.234 198.366) rotate(-61.58)" fill="#8ed16f"/>
        <ellipse id="Ellipse_869" data-name="Ellipse 869" cx="1.194" cy="2.39" rx="1.194" ry="2.39" transform="translate(143.906 198.483) rotate(-61.58)" fill="#8ed16f"/>
        <ellipse id="Ellipse_870" data-name="Ellipse 870" cx="1.194" cy="2.39" rx="1.194" ry="2.39" transform="translate(143.906 198.483) rotate(-61.58)" opacity="0.1"/>
        <rect id="Rectangle_386" data-name="Rectangle 386" width="5.824" height="11.351" transform="translate(134.681 200.945) rotate(-79.49)" fill="#8ed16f"/>
        <rect id="Rectangle_387" data-name="Rectangle 387" width="5.824" height="11.351" transform="translate(134.681 200.945) rotate(-79.49)" opacity="0.05"/>
        <ellipse id="Ellipse_871" data-name="Ellipse 871" cx="1.194" cy="2.39" rx="1.194" ry="2.39" transform="translate(138.213 199.928) rotate(-79.49)" fill="#8ed16f"/>
        <ellipse id="Ellipse_872" data-name="Ellipse 872" cx="1.194" cy="2.39" rx="1.194" ry="2.39" transform="translate(138.213 199.928) rotate(-79.49)" opacity="0.1"/>
        <rect id="Rectangle_388" data-name="Rectangle 388" width="5.824" height="11.351" transform="translate(135.726 204.379) rotate(-79.49)" fill="#8ed16f"/>
        <ellipse id="Ellipse_873" data-name="Ellipse 873" cx="1.194" cy="2.39" rx="1.194" ry="2.39" transform="translate(139.256 203.362) rotate(-79.49)" fill="#8ed16f"/>
        <ellipse id="Ellipse_874" data-name="Ellipse 874" cx="1.194" cy="2.39" rx="1.194" ry="2.39" transform="translate(139.256 203.362) rotate(-79.49)" opacity="0.1"/>
        <rect id="Rectangle_389" data-name="Rectangle 389" width="5.824" height="11.351" transform="translate(152.01 213.088) rotate(-61.58)" fill="#8ed16f"/>
        <ellipse id="Ellipse_875" data-name="Ellipse 875" cx="1.194" cy="2.39" rx="1.194" ry="2.39" transform="translate(155.685 213.205) rotate(-61.58)" fill="#8ed16f"/>
        <ellipse id="Ellipse_876" data-name="Ellipse 876" cx="1.194" cy="2.39" rx="1.194" ry="2.39" transform="translate(155.685 213.205) rotate(-61.58)" opacity="0.1"/>
        <rect id="Rectangle_390" data-name="Rectangle 390" width="5.824" height="11.351" transform="translate(146.459 215.663) rotate(-79.49)" fill="#8ed16f"/>
        <rect id="Rectangle_391" data-name="Rectangle 391" width="5.824" height="11.351" transform="translate(146.459 215.663) rotate(-79.49)" opacity="0.05"/>
        <ellipse id="Ellipse_877" data-name="Ellipse 877" cx="1.194" cy="2.39" rx="1.194" ry="2.39" transform="translate(149.988 214.646) rotate(-79.49)" fill="#8ed16f"/>
        <ellipse id="Ellipse_878" data-name="Ellipse 878" cx="1.194" cy="2.39" rx="1.194" ry="2.39" transform="translate(149.988 214.646) rotate(-79.49)" opacity="0.1"/>
        <rect id="Rectangle_392" data-name="Rectangle 392" width="5.824" height="11.351" transform="translate(147.504 219.101) rotate(-79.49)" fill="#8ed16f"/>
        <ellipse id="Ellipse_879" data-name="Ellipse 879" cx="1.194" cy="2.39" rx="1.194" ry="2.39" transform="translate(151.036 218.083) rotate(-79.49)" fill="#8ed16f"/>
        <ellipse id="Ellipse_880" data-name="Ellipse 880" cx="1.194" cy="2.39" rx="1.194" ry="2.39" transform="translate(151.036 218.083) rotate(-79.49)" opacity="0.1"/>
        <rect id="Rectangle_393" data-name="Rectangle 393" width="5.824" height="11.351" transform="translate(169.678 203.6) rotate(-61.58)" fill="#8ed16f"/>
        <ellipse id="Ellipse_881" data-name="Ellipse 881" cx="1.194" cy="2.39" rx="1.194" ry="2.39" transform="translate(173.347 203.716) rotate(-61.58)" fill="#8ed16f"/>
        <ellipse id="Ellipse_882" data-name="Ellipse 882" cx="1.194" cy="2.39" rx="1.194" ry="2.39" transform="translate(173.347 203.716) rotate(-61.58)" opacity="0.1"/>
        <rect id="Rectangle_394" data-name="Rectangle 394" width="5.824" height="11.351" transform="translate(164.126 206.178) rotate(-79.49)" fill="#8ed16f"/>
        <rect id="Rectangle_395" data-name="Rectangle 395" width="5.824" height="11.351" transform="translate(164.126 206.178) rotate(-79.49)" opacity="0.05"/>
        <ellipse id="Ellipse_883" data-name="Ellipse 883" cx="1.194" cy="2.39" rx="1.194" ry="2.39" transform="translate(167.655 205.16) rotate(-79.49)" fill="#8ed16f"/>
        <ellipse id="Ellipse_884" data-name="Ellipse 884" cx="1.194" cy="2.39" rx="1.194" ry="2.39" transform="translate(167.655 205.16) rotate(-79.49)" opacity="0.1"/>
        <rect id="Rectangle_396" data-name="Rectangle 396" width="5.824" height="11.351" transform="translate(165.171 209.615) rotate(-79.49)" fill="#8ed16f"/>
        <ellipse id="Ellipse_885" data-name="Ellipse 885" cx="1.194" cy="2.39" rx="1.194" ry="2.39" transform="translate(168.703 208.598) rotate(-79.49)" fill="#8ed16f"/>
        <ellipse id="Ellipse_886" data-name="Ellipse 886" cx="1.194" cy="2.39" rx="1.194" ry="2.39" transform="translate(168.703 208.598) rotate(-79.49)" opacity="0.1"/>
      </g>
    </g>
  </g>
</svg>
