<svg xmlns="http://www.w3.org/2000/svg" xmlns:xlink="http://www.w3.org/1999/xlink" width="1270" height="394" viewBox="0 0 1270 394">
  <defs>
    <clipPath id="clip-path">
      <rect id="Rectangle_344" data-name="Rectangle 344" width="285" height="285" transform="translate(5915 2417)" fill="#fff" stroke="#707070" stroke-width="1"/>
    </clipPath>
    <linearGradient id="linear-gradient" x1="0.5" y1="1" x2="0.5" gradientUnits="objectBoundingBox">
      <stop offset="0" stop-color="gray" stop-opacity="0.251"/>
      <stop offset="0.54" stop-color="gray" stop-opacity="0.122"/>
      <stop offset="1" stop-color="gray" stop-opacity="0.102"/>
    </linearGradient>
  </defs>
  <g id="home-5" transform="translate(-4503 -3822)">
    <g id="Group_94" data-name="Group 94">
      <rect id="Rectangle_297" data-name="Rectangle 297" width="1270" height="394" transform="translate(4503 3822)" fill="#e2d8d8"/>
    </g>
    <text id="Use_this_application_with_benefit" data-name="Use this application 
with benefit" transform="translate(5146 4105)" fill="#3f3d56" font-size="20" font-family="Gilroy-Light, Gilroy" font-weight="300"><tspan x="-93.96" y="0">Use this application </tspan><tspan x="-54.39" y="30">with benefit</tspan></text>
    <g id="Mask_Group_64" data-name="Mask Group 64" transform="translate(-919 1405)" clip-path="url(#clip-path)">
      <g id="undraw_wallet_aym5" transform="translate(5915 2467.369)">
        <rect id="Rectangle_405" data-name="Rectangle 405" width="285" height="2.083" transform="translate(0 182.18)" fill="#85848b"/>
        <path id="Path_3733" data-name="Path 3733" d="M230.433,162.041c0,1.6-9.338,6.273-20.43,6.273s-19.735-4.67-19.735-6.273,8.991-1.086,20.094-1.086S230.433,160.436,230.433,162.041Z" transform="translate(-4.639 -16.635)" fill="#504f60"/>
        <path id="Path_3734" data-name="Path 3734" d="M230.433,161.938c0,1.6-9.338,6.273-20.43,6.273s-19.735-4.67-19.735-6.273" transform="translate(-4.639 -16.533)" opacity="0.2"/>
        <path id="Path_3735" data-name="Path 3735" d="M125.069,135.494a12.4,12.4,0,0,0,5.393-.182c.272-.084.57-.272.543-.543a.658.658,0,0,0-.122-.272,16.773,16.773,0,0,1-1.629-3.1.272.272,0,0,0-.1-.141.255.255,0,0,0-.174,0c-.8.209-1.483.722-2.273.942a3.231,3.231,0,0,1-1.238.092c-.358-.041-.847-.337-1.173-.3C124.48,133.175,124.93,134.283,125.069,135.494Z" transform="translate(-10.983 -19.485)" fill="#6c63ff"/>
        <path id="Path_3736" data-name="Path 3736" d="M156.236,132.918a9.422,9.422,0,0,0,3.117-2.927.508.508,0,0,0,.084-.253.522.522,0,0,0-.1-.244,10.09,10.09,0,0,0-2.533-2.734,7.389,7.389,0,0,0-1.412,1.3c-.3.315-1.124.815-1.132,1.3,0,.272.315.587.462.815.2.293.386.592.565.9A10.631,10.631,0,0,1,156.236,132.918Z" transform="translate(-8.101 -19.915)" fill="#6c63ff"/>
        <path id="Path_3737" data-name="Path 3737" d="M133.053,138.96a1.208,1.208,0,0,1-.217.787,1.067,1.067,0,0,1-.456.272c-2.517.9-5.431-.223-7.942.665-.516.182-1,.445-1.523.619a8.289,8.289,0,0,1-1.9.337c-.888.084-1.781.138-2.672.163a6.425,6.425,0,0,1-2.015-.177,2.419,2.419,0,0,1-1.545-1.225,1.176,1.176,0,0,1-.076-.872.94.94,0,0,1,.166-.272,2.381,2.381,0,0,1,.592-.481l.926-.6a6.216,6.216,0,0,1,1.4-.744c.367-.119.755-.171,1.127-.272a7.649,7.649,0,0,0,3.218-2.4l1.26-1.344a1.268,1.268,0,0,1,.437-.35,1.212,1.212,0,0,1,.543-.052,7.261,7.261,0,0,1,3.435,1.151,4.451,4.451,0,0,0,.847.5,3.025,3.025,0,0,0,2.368-.293c.323-.174.253-.272.388-.581s.467-.508.755-.225a.8.8,0,0,1,.179.342,9.632,9.632,0,0,1,.168,2.8,1.233,1.233,0,0,0,.054.434,2.458,2.458,0,0,0,.247.4.914.914,0,0,1,.052.1,2.761,2.761,0,0,1,.182,1.312Z" transform="translate(-11.91 -19.315)" fill="#514e7f"/>
        <path id="Path_3738" data-name="Path 3738" d="M133.053,138.553a1.208,1.208,0,0,1-.217.787,1.067,1.067,0,0,1-.456.272c-2.517.9-5.431-.223-7.942.665-.516.182-1,.445-1.523.619a8.289,8.289,0,0,1-1.9.337c-.888.084-1.781.138-2.672.163a6.425,6.425,0,0,1-2.015-.177,2.419,2.419,0,0,1-1.545-1.225,1.176,1.176,0,0,1-.076-.872.94.94,0,0,1,.166-.272c.147.307.253.714.345.861a1.762,1.762,0,0,0,1.178.85,2.927,2.927,0,0,0,1.086-.139c2.281-.565,4.706-.573,6.9-1.428a15.95,15.95,0,0,1,2.259-.869,17.766,17.766,0,0,1,2.444-.2c1.287-.1,2.533-.491,3.8-.7a2.762,2.762,0,0,1,.171,1.32Z" transform="translate(-11.91 -18.908)" fill="#464353"/>
        <path id="Path_3739" data-name="Path 3739" d="M162.572,132.608a4.577,4.577,0,0,1-1.39,2.476,16.2,16.2,0,0,0-1.947,2.129c-.652,1-.945,2.232-1.792,3.074a4.915,4.915,0,0,1-1.086.774,7.579,7.579,0,0,1-1.4.644,10.434,10.434,0,0,1-3.951.215,3.554,3.554,0,0,1-1.254-.242,3.779,3.779,0,0,1-.521-.32,2.49,2.49,0,0,1-.815-.815.815.815,0,0,1-.079-.592,1.39,1.39,0,0,1,.377-.576,8.962,8.962,0,0,1,.956-.861,5.72,5.72,0,0,0,1.244-1.086,3.508,3.508,0,0,0,.481-1.086,9.634,9.634,0,0,0,.35-2.077,6.584,6.584,0,0,1,.144-1.39c.2-.717.733-1.358.673-2.1a.524.524,0,0,1,.027-.318.442.442,0,0,1,.25-.155,4.426,4.426,0,0,1,1.3-.3,1.513,1.513,0,0,1,1.206.472c.185.223.307.543.578.63a.917.917,0,0,0,.413.016,3.458,3.458,0,0,0,1.9-.584,2.371,2.371,0,0,0,.787-1.73c0-.247-.111-.505.271-.543.288-.038.516.272.663.462a6.433,6.433,0,0,1,1.271,2.314.681.681,0,0,1,.242-.046,1.051,1.051,0,0,1,.866.443,1.724,1.724,0,0,1,.236,1.173Z" transform="translate(-8.673 -19.771)" fill="#514e7f"/>
        <path id="Path_3740" data-name="Path 3740" d="M162.563,132.372a4.577,4.577,0,0,1-1.39,2.476,16.2,16.2,0,0,0-1.947,2.129c-.652,1-.945,2.232-1.792,3.074a4.915,4.915,0,0,1-1.086.774,7.579,7.579,0,0,1-1.4.644,10.434,10.434,0,0,1-3.951.215,3.554,3.554,0,0,1-1.254-.242,3.779,3.779,0,0,1-.521-.32,2.49,2.49,0,0,1-.815-.815,1.985,1.985,0,0,1,.815-.2c.587.033,1.016.587,1.578.758.8.242,1.6-.323,2.411-.516.529-.125,1.086-.092,1.61-.272a3.98,3.98,0,0,0,1.192-.722,6.068,6.068,0,0,0,1.274-1.227,7.888,7.888,0,0,0,.747-1.491,21.315,21.315,0,0,1,1.51-2.889,2.043,2.043,0,0,1,.307-.4,4.278,4.278,0,0,1,.415-.3,3.156,3.156,0,0,0,.959-1.749,3.06,3.06,0,0,1,.215-.584,1.051,1.051,0,0,1,.866.443A1.724,1.724,0,0,1,162.563,132.372Z" transform="translate(-8.664 -19.535)" fill="#464353"/>
        <path id="Path_3741" data-name="Path 3741" d="M109.47,55.582a5.759,5.759,0,0,1,1.629,1.9c.38.744,2.571,6.517,2.444,7.356.714-.72,3.53-.836,4.252-1.556.3-.3,1.928-1.806,2.172-2.156s2.058-1.086,2.256-1.455c.741-1.328-5.257-6.359-4.489-7.671a.342.342,0,0,0,.062-.206.337.337,0,0,0-.1-.16,9,9,0,0,0-1.735-1.187,2.752,2.752,0,0,1-1.322-1.575,5.7,5.7,0,0,0-1.534,1.037q-1.651,1.415-3.245,2.886c-.415.386-1.219.9-1.412,1.45C108.221,54.838,109.074,55.259,109.47,55.582Z" transform="translate(-12.51 -27.405)" fill="#a1616a"/>
        <path id="Path_3742" data-name="Path 3742" d="M118.9,53.044a17.672,17.672,0,0,0-2.569,2.1,5.113,5.113,0,0,0-1.629,2.618c-.076.4-.065.815-.128,1.225-.272,1.779-1.808,3.082-2.487,4.746a8.23,8.23,0,0,0-.432,1.589,18.774,18.774,0,0,0-.312,3.117c-.016,1.013.978,1.711,1.341,2.656a16.215,16.215,0,0,1,.646,2.886,34.2,34.2,0,0,0,1.629,5.349c1.339,3.7,5.678,13.922,7.017,17.623,4.1-1.029,15.024-3.394,18.657-5.564,1.211-.722-8.4-8.871-7.109-9.433a.483.483,0,0,0,.364-.682c-1.3-5.664-5.347-10.318-7.185-15.833a48.043,48.043,0,0,0-2.653-5.368c-.787-1.648-1.208-3.47-2.151-5.037a3.177,3.177,0,0,0-.687-.855,4.052,4.052,0,0,0-.758-.459C119.917,53.462,119.417,53.307,118.9,53.044Z" transform="translate(-12.228 -27.003)" fill="#514e7f"/>
        <circle id="Ellipse_929" data-name="Ellipse 929" cx="6.422" cy="6.422" r="6.422" transform="translate(90.756 14.69)" fill="#a1616a"/>
        <path id="Path_3743" data-name="Path 3743" d="M115.536,51.35A2.153,2.153,0,0,1,117.95,51a1.167,1.167,0,0,1,.717,1.159l3.185.049a6.4,6.4,0,0,1,1.51.138,2.194,2.194,0,0,1,1.26.79c.038.052.081.114.147.122a.234.234,0,0,0,.147-.049,2.764,2.764,0,0,1,1.586-.272,8.567,8.567,0,0,1,4.662,2.047,1.507,1.507,0,0,1,.543.676c.111.361-.022.815.272,1.073,0,2.987,1.026,5.778,1.711,8.689a3.9,3.9,0,0,0,.964,1.385,5.586,5.586,0,0,1,1.029,1.537c.581,1.51-.22,3.286.345,4.8a8.226,8.226,0,0,0,1.086,1.724,4.459,4.459,0,0,1,.929,2.227c.024.364-.022.73,0,1.086a6.576,6.576,0,0,0,.272,1.442q.348,1.314.728,2.626c.413,1.412.95,2.935,2.216,3.687-3.055.519-6.275,1.026-9.186-.035a4.763,4.763,0,0,1-1.146-.573,6.6,6.6,0,0,1-2.012-3.242,15.31,15.31,0,0,1-1.121-4.184,4.8,4.8,0,0,0-.193-1.358,3.866,3.866,0,0,0-1.8-1.7,8.657,8.657,0,0,1-2.172-1.689,3.375,3.375,0,0,1-.88-2.536c.054-.448.231-.88.247-1.331a1.042,1.042,0,0,0-.616-1.086c-2.224-.673-3.286-3.307-3.78-5.577a17.907,17.907,0,0,1-.285-3.557l-.03-2.316a3.058,3.058,0,0,1-1-2.2,2.609,2.609,0,0,0-.014-.728,2.007,2.007,0,0,0-.51-.774A6.908,6.908,0,0,1,115.536,51.35Z" transform="translate(-11.825 -27.221)" fill="#464353"/>
        <path id="Path_3744" data-name="Path 3744" d="M109.335,58.166a17.783,17.783,0,0,1-.071,2.156c-.062.272-.171.543-.25.8a4.671,4.671,0,0,0,.3,3.022,16.835,16.835,0,0,0,1.545,2.675,4.344,4.344,0,0,1,.494.926,4.792,4.792,0,0,1,.19,1.056,32.812,32.812,0,0,0,.755,4.269c.3,1.216,3.758,11.616,4.562,12.58a1.024,1.024,0,0,0,.619.421,1.127,1.127,0,0,0,.527-.109l1.629-.625a1.065,1.065,0,0,0,.377-.206.972.972,0,0,0,.234-.641c.117-1.325-3.345-11.8-3.785-13.05-1.331-3.78-3.1-7.424-3.967-11.337-.242-1.086-.369-2.759-1.165-3.625-.329-.358-.217-.206-.611-.019a4.457,4.457,0,0,0-.576.3,1.884,1.884,0,0,0-.8,1.409Z" transform="translate(-12.464 -26.695)" fill="#464353"/>
        <path id="Path_3745" data-name="Path 3745" d="M137.885,79.466" transform="translate(-9.676 -24.463)" fill="#464353"/>
        <path id="Path_3746" data-name="Path 3746" d="M113.84,65.515c.437,2.311.888,4.616,1.336,6.927l6.376-1.67a4.481,4.481,0,0,0-.543-1.9c-.581-1.458-.595-3.082-1.064-4.581-.356-1.14-.975-2.189-1.309-3.337-.193-.668-.291-1.358-.481-2.034a14.773,14.773,0,0,0-.749-1.941,12.155,12.155,0,0,0-1.39-2.577,4.054,4.054,0,0,0-2.148,1.393,3.008,3.008,0,0,0-.4,1.358c-.111,1.431.407,2.87.236,4.293a12.626,12.626,0,0,0,.133,4.07Z" transform="translate(-12.025 -26.873)" fill="#6c63ff"/>
        <path id="Path_3747" data-name="Path 3747" d="M121.249,93.791a7.615,7.615,0,0,1-.584,4.13,32.011,32.011,0,0,0-1.3,6.218,5.382,5.382,0,0,1-.32,1.572c-.2.453-.543.836-.777,1.268a6.369,6.369,0,0,0-.486,3.818c.092.855.231,1.708.4,2.55a6.449,6.449,0,0,1,.166,3.109c.505-.111.847.543.815,1.056a2.818,2.818,0,0,0,.049,1.529c.625.228.63,1.086.611,1.751a14.73,14.73,0,0,0,.434,3.421q1.417,6.816,3.009,13.593c2.294.711,4.975,1.453,7.163.467a1.437,1.437,0,0,0,.907-.912,1.591,1.591,0,0,0-.087-.7l-1.037-3.774a6.93,6.93,0,0,1-.372-2.791c.1-.7.4-1.45.062-2.066-.117-.212-.3-.377-.437-.578-.543-.8-.258-1.86-.214-2.824a2.239,2.239,0,0,0-.043-.646,3.227,3.227,0,0,0-.31-.709,10.84,10.84,0,0,1-1.195-5.393,1.333,1.333,0,0,0-.1-.7,2.271,2.271,0,0,1-.177-.288.787.787,0,0,1,.057-.519,4.753,4.753,0,0,1-.836-.815,1.17,1.17,0,0,0,.2-1.83.611.611,0,0,0,.291-1.051c-.133-.092-.31-.133-.4-.272-.147-.2-.027-.481.092-.7l.633-1.143c.472-.85.578-1.9,1.086-2.715a20.349,20.349,0,0,0,1.673-3.818l1.827-5.042,1.23,1.067a3.888,3.888,0,0,1,1.01,1.151,4.968,4.968,0,0,1,.329,1.379c.451,2.737,2.172,5.11,2.81,7.807a5.142,5.142,0,0,0,.581,1.743,3.8,3.8,0,0,1,.331.5,2.65,2.65,0,0,1,.139.828,3.864,3.864,0,0,0,1.629,2.77c.606.415,1.358.7,1.686,1.358a2.531,2.531,0,0,0,.272.578c.293.353.926.394,1.051.836.071.247-.06.543.079.76a.72.72,0,0,0,.3.225l1.768.882c1.977.988,2.987,3.258,4.445,4.912a10.59,10.59,0,0,1,1.331,1.76c.63,1.127.921,2.542,1.985,3.258a3,3,0,0,1,.771.573c.334.44.212,1.056.242,1.61s.453,1.214.98,1.045a3.864,3.864,0,0,0,0,2.05,10.319,10.319,0,0,0,6.262-2.536,2.471,2.471,0,0,0,1.018-1.711.614.614,0,0,0-.076-.339.969.969,0,0,0-.4-.3c-1.654-.9-2.151-2.973-2.987-4.66a40.368,40.368,0,0,0-2.715-4.152c-1.966-2.973-3.307-6.571-6.281-8.534a4.274,4.274,0,0,1-1.743-1.529c-.182-.4-.2-.855-.348-1.268a1.1,1.1,0,0,0-.929-.815,5.691,5.691,0,0,0,.212-1.971,2.49,2.49,0,0,0-.1-.85,4.134,4.134,0,0,0-.437-.842,8.076,8.076,0,0,1-1.119-4.345,7.124,7.124,0,0,0-.076-2.343c-.119-.377-.329-.722-.472-1.086a6.788,6.788,0,0,1-.339-2.042l-.163-2.609A12.84,12.84,0,0,0,144,91.57c-.543-2.026-1.086-10.511-2.946-11.467s-5.056,5.575-7.15,5.7a9.311,9.311,0,0,0-2.715.524,13.229,13.229,0,0,0-3.7,2.444l-3.85,3.234A14.187,14.187,0,0,1,121.249,93.791Z" transform="translate(-11.616 -24.411)" fill="#464353"/>
        <path id="Path_3748" data-name="Path 3748" d="M104.222,42.2a4.841,4.841,0,0,1,3.736-1.822,8.7,8.7,0,0,1,4.13,1.037,5.1,5.1,0,0,0,1.206.494c.679.138,1.434-.046,2.047.272a2.452,2.452,0,0,1,.9,2.444,4.487,4.487,0,0,0,.244,2.715,6.276,6.276,0,0,1,.47.709,2.344,2.344,0,0,1-.038,1.51,9.785,9.785,0,0,1-.779-1,.918.918,0,0,0-1.124-.291c-.35.236-.345.665-.364,1.051s-.117.847-.481.972a.779.779,0,0,1-.815-.318c-.622-.76-.372-1.974-.988-2.74-.35-.434-.934-.646-1.257-1.1-.255-.358-.32-.815-.543-1.2s-.741-.668-1.086-.4a1.469,1.469,0,0,0-.291.388,1.67,1.67,0,0,1-1.982.6,3.315,3.315,0,0,0-.858-.372,1.062,1.062,0,0,0-.98.543,2.121,2.121,0,0,0-.272,1.135,2.615,2.615,0,0,1-.212,1.556,1.61,1.61,0,0,1-.434.413,1.352,1.352,0,0,1-1.5.155,1.13,1.13,0,0,1-.337-1.054,8.516,8.516,0,0,1,.32-1.113c.239-.842-.073-1.789.187-2.582A8.244,8.244,0,0,1,104.222,42.2Z" transform="translate(-13.07 -28.221)" fill="#464353"/>
        <path id="Path_3749" data-name="Path 3749" d="M107.219,60.534a.988.988,0,0,0,.06.589.937.937,0,0,0,.32.307,6.587,6.587,0,0,0,3.025.98.921.921,0,0,1,.418.109.735.735,0,0,1,.176.842,2.191,2.191,0,0,0-.193.9c.079.568.752.815,1.32.9a3.07,3.07,0,0,0,2.3-.448,3.549,3.549,0,0,0,.948-1.42c1.559-3.582,2.1-7.541,3.682-11.111a2.357,2.357,0,0,0,.236-.744.733.733,0,0,0-.293-.684c-.293-.182-.749-.079-.948-.364-.1-.144-.087-.339-.174-.491-.182-.323-.66-.272-.986-.459-.255-.136-.432-.415-.717-.47a.9.9,0,0,0-.741.32,9.547,9.547,0,0,0-1.928,3.245,38.04,38.04,0,0,1-2.759,5.116,2.983,2.983,0,0,0-.863-1.692c-.486-.1-1.108.755-1.371,1.073a6.832,6.832,0,0,0-1.51,3.508Z" transform="translate(-12.626 -27.396)" fill="#6c63ff"/>
        <path id="Path_3750" data-name="Path 3750" d="M116.483,49.623a1.3,1.3,0,0,0-1.007.505,2.873,2.873,0,0,0-.421,1.358,11.8,11.8,0,0,1-1.6,4.3" transform="translate(-12.025 -27.332)" opacity="0.1"/>
        <path id="Path_3751" data-name="Path 3751" d="M117.74,50.611a1.55,1.55,0,0,0-1.317.79,4.439,4.439,0,0,0-.331,1.341,7.361,7.361,0,0,1-1.317,2.821" transform="translate(-11.898 -27.237)" opacity="0.1"/>
        <path id="Path_3752" data-name="Path 3752" d="M189.679,100.157V96.785a9.363,9.363,0,0,0-9.363-9.36H47.13a9.363,9.363,0,0,0-9.363,9.36V103Z" transform="translate(-19.303 -23.698)" fill="#33323d"/>
        <path id="Path_3753" data-name="Path 3753" d="M80.11,85.642s-.38,23.586,3.8,31.346,5.974,41.521,5.974,41.521,43.837,4.535,74.385-5.431,95.549-14.041,95.549-14.041L248.865,65.208s-54.115-3.47-84.9,11.212S80.11,85.642,80.11,85.642Z" transform="translate(-15.232 -25.868)" fill="#8dd070"/>
        <path id="Path_3754" data-name="Path 3754" d="M80.11,85.642s-.38,23.586,3.8,31.346,5.974,41.521,5.974,41.521,43.837,4.535,74.385-5.431,95.549-14.041,95.549-14.041L248.865,65.208s-54.115-3.47-84.9,11.212S80.11,85.642,80.11,85.642Z" transform="translate(-15.232 -25.868)" opacity="0.1"/>
        <path id="Path_3755" data-name="Path 3755" d="M88.984,93.8s-1.371,19.461,2.069,25.679,3.6,33.977,3.6,33.977,39.452,1.83,67.515-7.723S249.2,129.985,249.2,129.985l-6.7-60.376s-48.8-.5-77.274,12.944S88.984,93.8,88.984,93.8Z" transform="translate(-14.404 -25.411)" fill="#8dd070"/>
        <ellipse id="Ellipse_930" data-name="Ellipse 930" cx="10.242" cy="21.967" rx="10.242" ry="21.967" transform="matrix(0.992, -0.124, 0.124, 0.992, 134.797, 66.937)" opacity="0.1"/>
        <path id="Path_3756" data-name="Path 3756" d="M220.535,32.367s-52.572,13.305-77.364,36.725S66.19,103.6,66.19,103.6s6.875,22.562,13.235,28.666,18.421,37.689,18.421,37.689,43.112-9.14,69.125-28.006,86.639-42.694,86.639-42.694Z" transform="translate(-16.57 -28.992)" opacity="0.2"/>
        <path id="Path_3757" data-name="Path 3757" d="M65.469,100.52s6.873,22.565,13.227,28.669,18.421,37.687,18.421,37.687,43.117-9.137,69.133-28,86.637-42.686,86.637-42.686l-33.076-66.9s-52.57,13.305-77.361,36.725S65.469,100.52,65.469,100.52Z" transform="translate(-16.639 -29.288)" fill="#8dd070"/>
        <path id="Path_3758" data-name="Path 3758" d="M65.469,100.52s6.873,22.565,13.227,28.669,18.421,37.687,18.421,37.687,43.117-9.137,69.133-28,86.637-42.686,86.637-42.686l-33.076-66.9s-52.57,13.305-77.361,36.725S65.469,100.52,65.469,100.52Z" transform="translate(-16.639 -29.288)" opacity="0.1"/>
        <path id="Path_3759" data-name="Path 3759" d="M76.3,105.19S80.965,124.135,86.149,129,100,160.223,100,160.223s38.108-10.367,61.886-28.072,78.01-41.673,78.01-41.673l-24.9-55.426S168.4,49.544,145.417,71.082,76.3,105.19,76.3,105.19Z" transform="translate(-15.598 -28.733)" fill="#8dd070"/>
        <ellipse id="Ellipse_931" data-name="Ellipse 931" cx="10.242" cy="21.967" rx="10.242" ry="21.967" transform="matrix(0.907, -0.422, 0.422, 0.907, 117.574, 56.596)" opacity="0.1"/>
        <path id="Path_3760" data-name="Path 3760" d="M193.273,102.888v93.68a8.1,8.1,0,0,1-8.1,8.1H45.872a8.1,8.1,0,0,1-8.1-8.1V93.444c3.992,1.483,3.992,1.483,8.1,1.358h139.3a8.1,8.1,0,0,1,8.1,8.086Z" transform="translate(-19.302 -23.119)" opacity="0.1"/>
        <path id="Path_3761" data-name="Path 3761" d="M193.273,103.976v93.68a8.1,8.1,0,0,1-8.1,8.1H45.872a8.1,8.1,0,0,1-8.1-8.1V94.529c3.992,1.48,3.992,1.48,8.1,1.358h139.3a8.1,8.1,0,0,1,8.1,8.089Z" transform="translate(-19.302 -23.014)" fill="#504f60"/>
        <path id="Path_3762" data-name="Path 3762" d="M183.134,134.744V164.7H154.079a14.98,14.98,0,1,1,0-29.96Z" transform="translate(-9.559 -19.148)" opacity="0.1"/>
        <path id="Path_3763" data-name="Path 3763" d="M183.5,134.016V163.98H154.441a14.98,14.98,0,1,1,0-29.96Z" transform="translate(-9.524 -19.218)" fill="#33323d"/>
        <circle id="Ellipse_932" data-name="Ellipse 932" cx="5.841" cy="5.841" r="5.841" transform="translate(140.469 124.736)" opacity="0.1"/>
        <circle id="Ellipse_933" data-name="Ellipse 933" cx="5.841" cy="5.841" r="5.841" transform="translate(140.865 123.943)" fill="#6c63ff"/>
        <path id="Path_3764" data-name="Path 3764" d="M227.31,134.148c.231,2.5-1.662,4.928-1.111,7.378.119.524.345,1.018.426,1.548.228,1.455-.638,2.832-1.466,4.049l-7.114,10.438a6.481,6.481,0,0,1-1.016,1.255c-1.358,1.211-3.4,1.086-5.186,1.447a8.863,8.863,0,0,0-3.476,1.537.223.223,0,0,0-.033.3,2.987,2.987,0,0,0,2.585,1.214c.187.247,0,.608-.272.785-.383.272-.907.337-.983.983a1.067,1.067,0,0,0,.13.652,2.023,2.023,0,0,0,1.244.866c2.463.752,5.124-.57,6.968-2.37s3.166-4.073,4.975-5.906c1-1.013,2.14-1.882,3.172-2.865a36.308,36.308,0,0,0,5.2-6.731,7.511,7.511,0,0,0,1.127-2.292c.2-.834.1-1.675.323-2.482a9.141,9.141,0,0,1,1.705-2.789,9.226,9.226,0,0,0,1.939-6,5.756,5.756,0,0,0-3.514-4.983,3.123,3.123,0,0,0-1.969-.119,4.677,4.677,0,0,0-2,1.594l-1.358,1.561a3.66,3.66,0,0,0-.787,1.195,1.252,1.252,0,0,0,.272,1.328" transform="translate(-2.906 -19.608)" fill="#fbbebe"/>
        <path id="Path_3765" data-name="Path 3765" d="M227.31,134.148c.231,2.5-1.662,4.928-1.111,7.378.119.524.345,1.018.426,1.548.228,1.455-.638,2.832-1.466,4.049l-7.114,10.438a6.481,6.481,0,0,1-1.016,1.255c-1.358,1.211-3.4,1.086-5.186,1.447a8.863,8.863,0,0,0-3.476,1.537.223.223,0,0,0-.033.3,2.987,2.987,0,0,0,2.585,1.214c.187.247,0,.608-.272.785-.383.272-.907.337-.983.983a1.067,1.067,0,0,0,.13.652,2.023,2.023,0,0,0,1.244.866c2.463.752,5.124-.57,6.968-2.37s3.166-4.073,4.975-5.906c1-1.013,2.14-1.882,3.172-2.865a36.308,36.308,0,0,0,5.2-6.731,7.511,7.511,0,0,0,1.127-2.292c.2-.834.1-1.675.323-2.482a9.141,9.141,0,0,1,1.705-2.789,9.226,9.226,0,0,0,1.939-6,5.756,5.756,0,0,0-3.514-4.983,3.123,3.123,0,0,0-1.969-.119,4.677,4.677,0,0,0-2,1.594l-1.358,1.561a3.66,3.66,0,0,0-.787,1.195,1.252,1.252,0,0,0,.272,1.328" transform="translate(-2.906 -19.608)" opacity="0.05"/>
        <path id="Path_3766" data-name="Path 3766" d="M231.1,192.768a8.235,8.235,0,0,1-5.295.785c-.291-.035-.635-.057-.815.168-.272.326.049.815.38,1.067a7.833,7.833,0,0,0,3.636,1.5,23.939,23.939,0,0,0,3.557.236,60.144,60.144,0,0,0,9.724-.356,1.376,1.376,0,0,0,.543-.158.994.994,0,0,0,.4-.611,2.424,2.424,0,0,0-.844-2.314,7.089,7.089,0,0,0-2.267-1.216l-2.824-1.1a7.258,7.258,0,0,0-2.444-.888C233.5,189.976,232.22,192.111,231.1,192.768Z" transform="translate(-1.31 -13.847)" fill="#3f3d56"/>
        <path id="Path_3767" data-name="Path 3767" d="M231.1,192.768a8.235,8.235,0,0,1-5.295.785c-.291-.035-.635-.057-.815.168-.272.326.049.815.38,1.067a7.833,7.833,0,0,0,3.636,1.5,23.939,23.939,0,0,0,3.557.236,60.144,60.144,0,0,0,9.724-.356,1.376,1.376,0,0,0,.543-.158.994.994,0,0,0,.4-.611,2.424,2.424,0,0,0-.844-2.314,7.089,7.089,0,0,0-2.267-1.216l-2.824-1.1a7.258,7.258,0,0,0-2.444-.888C233.5,189.976,232.22,192.111,231.1,192.768Z" transform="translate(-1.31 -13.847)" opacity="0.05"/>
        <path id="Path_3768" data-name="Path 3768" d="M232.548,159.72c-1.176,1.564-2.392,3.37-2.1,5.306a11.826,11.826,0,0,0,1.17,2.927,20.652,20.652,0,0,1,1.184,4.117c.44,2.047.882,4.1,1.151,6.18.307,2.349-1.135,9.145-1.268,11.51a2.433,2.433,0,0,1-.5,1.6c-.155.163-.361.293-.432.505a.863.863,0,0,0,.1.6,6.571,6.571,0,0,0,3.53,3.242,27.918,27.918,0,0,0,6.807,1.789,1.357,1.357,0,0,0,.641-.084,1.246,1.246,0,0,0,.494-.568c1.181-2.259.046-10.291.062-12.841.016-2.126.519-4.239.426-6.362-.076-1.705-.543-3.372-.7-5.072a29.934,29.934,0,0,1,.752-8.339c.391-2.113.785-4.225,1.287-6.311a12.117,12.117,0,0,1,1.358-3.663c.543-.877,1.306-1.61,1.939-2.444a11.03,11.03,0,0,0,2.172-8.076c-.038-.272-4.073,1.024-4.429,1.178a13.8,13.8,0,0,0-3.948,2.539,33.179,33.179,0,0,0-2.487,3.077q-1.735,2.115-3.427,4.26Q234.4,157.238,232.548,159.72Z" transform="translate(-0.78 -18.287)" fill="#464353"/>
        <path id="Path_3769" data-name="Path 3769" d="M232.548,159.632c-1.176,1.564-2.392,3.372-2.1,5.306a11.8,11.8,0,0,0,1.17,2.93,20.627,20.627,0,0,1,1.184,4.114c.44,2.05.882,4.1,1.151,6.18.307,2.352-1.135,9.145-1.268,11.51a2.44,2.44,0,0,1-.5,1.6c-.155.16-.361.291-.432.5a.861.861,0,0,0,.1.6,6.651,6.651,0,0,0,3.53,3.258,26.231,26.231,0,0,0,6.807,1.274,1.357,1.357,0,0,0,.641-.084,1.227,1.227,0,0,0,.494-.565c1.181-2.259.046-9.775.062-12.328.016-2.129.519-4.239.426-6.365-.076-1.705-.543-3.372-.7-5.07a29.944,29.944,0,0,1,.752-8.342c.391-2.11.785-4.222,1.287-6.311a12.117,12.117,0,0,1,1.358-3.663c.543-.877,1.306-1.61,1.939-2.444a11.025,11.025,0,0,0,2.172-8.076c-.038-.272-4.073,1.024-4.429,1.178a13.861,13.861,0,0,0-3.948,2.542,32.789,32.789,0,0,0-2.487,3.074q-1.735,2.115-3.427,4.263Q234.4,157.147,232.548,159.632Z" transform="translate(-0.78 -18.294)" opacity="0.05"/>
        <circle id="Ellipse_934" data-name="Ellipse 934" cx="6.59" cy="6.59" r="6.59" transform="translate(212.095 93.805)" fill="#fbbebe"/>
        <path id="Path_3770" data-name="Path 3770" d="M226.391,120.734a8.534,8.534,0,0,0,5.471,3.818l-.5,1.806c-.858,3.1-1.822,6.381-4.217,8.532a3.966,3.966,0,0,0-.668-3.085,11.628,11.628,0,0,0-2.237-2.338l-3.793-3.286a1.144,1.144,0,0,1-.272-.32.964.964,0,0,1,0-.722c.483-1.5,1.863-2.444,2.987-3.459a10.344,10.344,0,0,0,1.5-1.749C225.424,118.85,225.894,119.936,226.391,120.734Z" transform="translate(-1.77 -20.616)" fill="#fbbebe"/>
        <path id="Path_3771" data-name="Path 3771" d="M212.649,115.3l-.149-1.238c1.04.272,2.028-.614,2.694-1.529s1.282-1.993,2.294-2.376c1.23-.462,2.533.272,3.709.891a11.728,11.728,0,0,0,4.255,1.385,2.8,2.8,0,0,1,.7.114,2.447,2.447,0,0,1,1.241,2.1,8.23,8.23,0,0,0,.459,2.574c.272.589.777,1.026,1.086,1.608.815,1.559.027,3.69.877,5.219l-2.113-1.936c-.193-.176-.464-.361-.679-.212-.168.119-.182.377-.25.584a1.109,1.109,0,0,1-1.5.543,4.311,4.311,0,0,1-1.358-1.23,8.241,8.241,0,0,0-3.351-2.542,4.3,4.3,0,0,0-3.53.234c-.986.557-1.708,1.855-2.916,1.9-1.656.062-2.346-3.022-3.112-4.241a1.493,1.493,0,0,0,.434-1.868C211.552,115.234,212.625,115.106,212.649,115.3Z" transform="translate(-2.645 -21.526)" fill="#464353"/>
        <path id="Path_3772" data-name="Path 3772" d="M138.33,79.82a12.82,12.82,0,0,0-1.464,1.537,3.077,3.077,0,0,0-.673,1.974,1.01,1.01,0,0,0,.19.578.489.489,0,0,0,.543.166.73.73,0,0,0,.272-.239,13.11,13.11,0,0,1,.912-.988c.117-.117.272-.239.429-.2a.459.459,0,0,1,.185.122,1.249,1.249,0,0,1,.383.6,1.407,1.407,0,0,1-.421,1.157,2.964,2.964,0,0,0-.709,1.048.464.464,0,0,0,0,.337.5.5,0,0,0,.212.179,3.03,3.03,0,0,0,2.563.168c.543-.22,1.026-.6,1.586-.793a3.665,3.665,0,0,0,.7-.272,1.455,1.455,0,0,0,.622-.931,3.839,3.839,0,0,0,.041-1.143,13.145,13.145,0,0,0-.934-4.3.544.544,0,0,0-.158-.228.5.5,0,0,0-.272-.073,6.458,6.458,0,0,0-2.506-.171,1.771,1.771,0,0,0-.592.527C139.115,79.017,138.33,79.639,138.33,79.82Z" transform="translate(-9.839 -24.579)" fill="#a1616a"/>
        <path id="Path_3773" data-name="Path 3773" d="M138.8,81.35c0-.663-.815-2.262.481-2.368,0-.709-1-1.149-.815-1.9.06-.25.272-.453.3-.709.081-.725-1.227-1.119-1.01-1.814.081-.272.369-.429.432-.7.147-.627-.975-.907-1-1.55,0-.217.122-.421.111-.638,0-.272-.236-.478-.367-.714-.339-.606-.174-1.542-.793-1.855.41.035.543-.573.375-.945s-.513-.7-.516-1.108a1.674,1.674,0,0,0,0-.451c-.114-.4-.763-.429-.872-.815a3.471,3.471,0,0,1-.014-.445c-.043-.307-.358-.5-.654-.589a2.669,2.669,0,0,1-.874-.312c-.19-.144-.41-.383-.614-.272-.076.046-.114.133-.171.2-.244.285-.711.16-1.018-.049a4.182,4.182,0,0,1-1.55-2.8c-.193-1.078-.187-2.191-.429-3.258a6.961,6.961,0,0,0-.293-.978,5.144,5.144,0,0,1-.456-.972c-.049-.625,1.244-.2,1.735-.136a7.727,7.727,0,0,1,1.409.272,15.065,15.065,0,0,1,1.442.633c1.96.866,4.328.972,5.9,2.428a4.948,4.948,0,0,0,1.629,1.322,7.372,7.372,0,0,1,.912.236c.747.35.863,1.341,1.271,2.058a4.035,4.035,0,0,1,.334.6,2.3,2.3,0,0,1,.109.76l.057,1.882a69.389,69.389,0,0,1-.152,9.447,7.745,7.745,0,0,0,.035,3.093c.081.272.2.527.272.8a4.886,4.886,0,0,1,.1.978l.043,1.219a.38.38,0,0,1-.06.272.391.391,0,0,1-.329.079c-1.7-.152-3.413-1.108-5.015-.529" transform="translate(-10.526 -26.722)" fill="#464353"/>
        <ellipse id="Ellipse_935" data-name="Ellipse 935" cx="20.083" cy="2.903" rx="20.083" ry="2.903" transform="translate(185.636 142.503)" fill="#504f60"/>
        <path id="Path_3774" data-name="Path 3774" d="M229.838,173.463c-.353-1.512-.573-2.84-.573-2.84a5.853,5.853,0,0,0-.657-2.881v-.413h0v-3.041a10.37,10.37,0,0,1,.768-1.594c.543-.956,0-4.459,0-4.459s-2.028-4.939-1.537-8.073-4.165-13.914-4.165-13.914a13.738,13.738,0,0,1,.437-3.079,2.349,2.349,0,0,0,.06-.646v-.054c-.071-2.066-1.705-5.939-1.705-5.939l.22-7.38a21.7,21.7,0,0,0-.657-10.2c-.595-2.039-.975-3.671-1.216-4.931-.027-.141-.054-.272-.076-.41,3.5-.543,6.175-.978,6.175-.978s-2.031-8.5-3.4-9.984-2.468-6.161-2.468-6.161-.714-6,.44-7.752a11.657,11.657,0,0,0,1.317-4.779s2.631-1.9,2.962-2.762a14.089,14.089,0,0,0,.877-3.769c0-1.007-.329-1.9-.22-2.444s-.768-2.55-.329-3.506a2.572,2.572,0,0,0,.174-.921.119.119,0,0,0,0-.027h0a12.9,12.9,0,0,0-.231-2.493,7.074,7.074,0,0,0-2.607-1.393l-.057-.228-.149-.6a2.9,2.9,0,0,0-.258-.152v-.217l-.024-.863.413-1.939c.815-3.372-3.69-3.875-3.69-3.875a2.376,2.376,0,0,0-1.276-1.119c-.9-.318-.149,5.072.272,5.431a21.241,21.241,0,0,1,1.776,2.781h0L220.5,56a1.9,1.9,0,0,0-.206.217l.171,1.17.027.179a4.856,4.856,0,0,0-.72,1.225,2.642,2.642,0,0,1,.66,1.9,6.089,6.089,0,0,0,.272,2.335c-.049-.057-.627-.682-1.206-.529s-2.194.638-2.194.638-1.206.212-1.086.478-.815,1.434-.815,1.434l-3.242-3.074c-.033-.092-.068-.185-.1-.272a7.475,7.475,0,0,1-.272-1.358,7.414,7.414,0,0,0,1.037-.329,2.238,2.238,0,0,0,.9-.576,3.475,3.475,0,0,0,.524-1.4,20.564,20.564,0,0,1,1.2-2.683,8.722,8.722,0,0,0,.611-4.828,3.15,3.15,0,0,0-.5-1.412c-.53-.728-1.491-1.024-2.189-1.6s-1.149-1.469-1.963-1.9a3.893,3.893,0,0,0-2.46-.212,13.259,13.259,0,0,0-4.6,1.673,2.393,2.393,0,0,1-1.537.505,2.007,2.007,0,0,1-1.108-.815.054.054,0,0,0-.022-.087,5.727,5.727,0,0,0-.505,2.428,2.989,2.989,0,0,0,.016.388v.247h0a.619.619,0,0,1-.024.171,1.235,1.235,0,0,1-.3.437,2.931,2.931,0,0,0-.272.361.448.448,0,0,1,.043-.133,1.931,1.931,0,0,0-.337,1.024,1.046,1.046,0,0,0,.244.733,3.531,3.531,0,0,0,.529.424,6.18,6.18,0,0,0-.1,1.086A6.275,6.275,0,0,0,204.05,59.2c.038.09.073.182.109.272a7.731,7.731,0,0,1,.589,3.53,1.657,1.657,0,0,1-.038.255c-.014.084-.081.09-.117.136h0s-5.357.054-6.617-1.086-3.182,2.789-3.182,2.789-1.92.372-2.305,0-2.631-.052-2.631-.052a4.841,4.841,0,0,0-3.348-1.222,9.827,9.827,0,0,0-2.444-1.358h0L184,62.44h0a2.737,2.737,0,0,0-1.208-.152,24.374,24.374,0,0,1-3.4-3.345c-.768-1.173-4.426-5.5-4.442-5.523V53.21l-.041-.63a2.258,2.258,0,0,1-.329.027c-.019-.062-.046-.136-.073-.22a12.146,12.146,0,0,0-.777-1.784s0-.8.231-1-.1-3.12-.1-3.12-2.373-5.548-4.5-1.407c0,0-4.019,2.68-.646,5.8,0,0,1.358.652,1.537,1.168.125.334.581,1.271.888,1.9l.138.272-.038.033.049.521.022.2c-.635.361-1.067.72-.961.988a5.939,5.939,0,0,1,.383,1.434s4.665,5.843,5.268,8.339c0,0,12.51,7.435,16.624,7.964L191.9,77.41a29.584,29.584,0,0,0-.163,3.028c.054.8-.494,4.407-.494,4.407s-.714,5.311-1.317,6.055-.494,3.929-.494,3.929a26.844,26.844,0,0,1-.815,4.513,11.53,11.53,0,0,0-.166,4.516s-2.083,4.779,2.908,1.54c0,0,2.444-.152,5.273-.25v.272c0,.364,0,.758-.019,1.17-.038,2.737-.054,6.517.071,9.363.22,5.045,1.757,15.03,1.757,15.03v5.026a6.841,6.841,0,0,0-.147,1.434,9.33,9.33,0,0,0,1.358,5.021l.386,3.345a13.051,13.051,0,0,1,.918,3.53,1.849,1.849,0,0,1-.038.318,2.136,2.136,0,0,0-.043.513,28.893,28.893,0,0,0,.863,5.159s.054,3.663.6,3.878c.47.182-.627,2.11-.953,2.664a.757.757,0,0,1-.019-.1l-.068.109a2.6,2.6,0,0,0-.171.929,1.331,1.331,0,0,0,.608,1.287c1.043.638,1.6,1.168.717,1.379a9.218,9.218,0,0,0-.967.2.419.419,0,0,0-.046-.122.581.581,0,0,0-.361.641,2.716,2.716,0,0,0,.323,1.233,13.449,13.449,0,0,0,1.485,2.715l.421-.046a2.052,2.052,0,0,1-.244.453,1.748,1.748,0,0,1-.619.543,1.917,1.917,0,0,1-.752.258,2.118,2.118,0,0,0-1.553.755,1.62,1.62,0,0,0,.19,2.52l3.924,1.358s6.75.877,6.392-.638-.576-2.84-.576-2.84a5.988,5.988,0,0,0-.543-2.686,3.491,3.491,0,0,0-.239-.4l.239-.024s.494-3.348,1.151-3.983c.152-.147.187-.272.152-.348.068-.182-.106-.288-.326-.35l-.049.133a3.2,3.2,0,0,0-.654-.073s-.22-1.751.494-2.39a.676.676,0,0,0,.138-.521,2.8,2.8,0,0,0-.076-.714.35.35,0,0,1-.024.043,25.727,25.727,0,0,0-1.575-4.119,5.036,5.036,0,0,1,.386-2.229c.44-.638-.057-8.657-.057-8.657a26.2,26.2,0,0,0-.329-5.681,6.376,6.376,0,0,1,.6-3.932v-.141l-.062-.611a.156.156,0,0,0,0,.038c-.111-1.026-.32-2.886-.475-3.744-.22-1.222.057-7.06.057-7.06l.986-2.5,1.757,4.3,1.865,5.735a4.9,4.9,0,0,1,.945,2.444v.179a3.132,3.132,0,0,0-.022.383,3.41,3.41,0,0,0,.568,2.045s.494,2.715,1.263,3.4a3.049,3.049,0,0,1,.768,2.018,35.261,35.261,0,0,0,1.358,4.616,6.865,6.865,0,0,1,.386,2.669h0v.141s.13,1.407.125,2.585v.421a.118.118,0,0,0,0-.03,4.09,4.09,0,0,1-.114.956l-.016.054a.692.692,0,0,1,.019-.2,9.977,9.977,0,0,0-.272,2.444,6.329,6.329,0,0,0,1.045,4.073c1.483,1.7,2.414,1.488,2.414,1.488s-.711,2.123-1.591,2.55a.414.414,0,0,0-.092.06.919.919,0,0,0-.022-.125,1.035,1.035,0,0,0-.272.793,5.7,5.7,0,0,0,1.086,3.147,1.773,1.773,0,0,0,.741.434,1.182,1.182,0,0,1-.138.084,2.948,2.948,0,0,1-.3.144,1.583,1.583,0,0,1-.448.117,2.091,2.091,0,0,0-1.553.755,1.617,1.617,0,0,0,.19,2.517l3.924,1.358S230.191,174.976,229.838,173.463Z" transform="translate(-6.84 -27.917)" fill="url(#linear-gradient)"/>
        <path id="Path_3775" data-name="Path 3775" d="M201.241,165.009l-3.8-1.358a1.649,1.649,0,0,1-.185-2.52,2.031,2.031,0,0,1,1.5-.755,1.8,1.8,0,0,0,.725-.258,1.738,1.738,0,0,0,.6-.543,2.8,2.8,0,0,0,.432-1.469s4.171-1.222,5.311,0a3.087,3.087,0,0,1,.505.741,6.2,6.2,0,0,1,.543,2.685s.212,1.325.557,2.84S201.241,165.009,201.241,165.009Z" transform="translate(-4.015 -16.953)" fill="#2d293d"/>
        <path id="Path_3776" data-name="Path 3776" d="M218.195,163.3l-3.8-1.358a1.646,1.646,0,0,1-.185-2.517,2.007,2.007,0,0,1,1.5-.755,1.409,1.409,0,0,0,.434-.117,2.884,2.884,0,0,0,.293-.144,2.4,2.4,0,0,0,1.035-2.018s4.168-1.222,5.311,0a3.007,3.007,0,0,1,.4.543,6.033,6.033,0,0,1,.635,2.884s.212,1.328.543,2.84S218.195,163.3,218.195,163.3Z" transform="translate(-2.385 -17.118)" fill="#2d293d"/>
        <path id="Path_3777" data-name="Path 3777" d="M205.54,158.1a3.088,3.088,0,0,1,.505.741h0l-6.245.725a2.805,2.805,0,0,0,.432-1.469S204.4,156.882,205.54,158.1Z" transform="translate(-3.723 -16.954)" opacity="0.1"/>
        <path id="Path_3778" data-name="Path 3778" d="M222.974,156.94v1.17c-.972,1.6-5.672,1.249-7.038.448a2.885,2.885,0,0,0,.293-.144,2.4,2.4,0,0,0,1.035-2.018s4.168-1.222,5.311,0a3.007,3.007,0,0,1,.4.543Z" transform="translate(-2.171 -17.118)" opacity="0.1"/>
        <path id="Path_3779" data-name="Path 3779" d="M225.817,157.688a10.642,10.642,0,0,0-.741,1.594v4.2c-1.064,1.751-6.585,1.168-7.331.212s-1.526-3.443-.687-3.875,1.54-2.55,1.54-2.55-.9.212-2.338-1.488-1.007-5.469-.741-6.37a18.817,18.817,0,0,0,0-3.929,7.9,7.9,0,0,0-.369-2.816,35.046,35.046,0,0,1-1.328-4.616,3.126,3.126,0,0,0-.744-2.018c-.744-.69-1.222-3.4-1.222-3.4a3.484,3.484,0,0,1-.529-2.284,4.638,4.638,0,0,0-.9-2.762l-1.806-5.738-1.7-4.3-.956,2.5s-.272,5.841-.052,7.06.543,4.461.543,4.461a6.548,6.548,0,0,0-.584,3.929,26.818,26.818,0,0,1,.3,5.686s.478,8.016.052,8.654a5.183,5.183,0,0,0-.372,2.232s2.172,4.67,1.488,5.309-.478,2.39-.478,2.39,1.485,0,.85.638-1.116,3.983-1.116,3.983l-6.422.752a13.356,13.356,0,0,1-1.436-2.715c-.85-1.974.158-1.751,1.013-1.966s.315-.741-.7-1.379-.424-2.072-.424-2.072,1.54-2.6,1.007-2.813-.584-3.878-.584-3.878-1.062-4.345-.8-5.523-.85-3.981-.85-3.981l-.372-3.345a9.205,9.205,0,0,1-1.168-6.321v-5.159s-1.488-9.982-1.7-15.027c-.136-3.231-.1-7.641-.054-10.392.027-1.542.054-2.566.054-2.566l22.939-2.39a19.167,19.167,0,0,0,.415,3.408c.236,1.26.6,2.892,1.178,4.931a22.406,22.406,0,0,1,.638,10.194l-.215,7.383s2.018,4.937,1.594,6.636a14.155,14.155,0,0,0-.429,3.085s4.513,10.78,4.035,13.914,1.485,8.073,1.485,8.073S226.35,156.733,225.817,157.688Z" transform="translate(-4.273 -22.911)" fill="#464353"/>
        <path id="Path_3780" data-name="Path 3780" d="M211.068,127.087l6.984-.931S214.1,130.193,211.068,127.087Z" transform="translate(-2.639 -19.974)" opacity="0.05"/>
        <path id="Path_3781" data-name="Path 3781" d="M216.63,119.93s.239,2.471-1.274,3.4C215.356,123.33,218.063,122.906,216.63,119.93Z" transform="translate(-2.227 -20.572)" opacity="0.1"/>
        <path id="Path_3782" data-name="Path 3782" d="M216.851,112.761s-5.838,4.806-7.961,4.407S216.851,112.761,216.851,112.761Z" transform="translate(-2.877 -21.261)" opacity="0.1"/>
        <path id="Path_3783" data-name="Path 3783" d="M203.572,129.061s-4.434,1.007-4.567,2.789S203.572,129.061,203.572,129.061Z" transform="translate(-3.799 -19.694)" opacity="0.1"/>
        <path id="Path_3784" data-name="Path 3784" d="M204.482,149.265s-6.264,1.168-4.486,1.963a30.413,30.413,0,0,0,4.7,1.434S206.719,152.768,204.482,149.265Z" transform="translate(-3.734 -17.751)" opacity="0.05"/>
        <g id="Group_129" data-name="Group 129" transform="translate(189.801 74.92)" opacity="0.05">
          <path id="Path_3785" data-name="Path 3785" d="M198.884,152.29a1.236,1.236,0,0,1-.573-.907l-.065.111s-.584,1.434.426,2.069c.114.073.225.147.326.217.187-.035.388-.062.581-.111C200.435,153.458,199.894,152.928,198.884,152.29Z" transform="translate(-193.689 -92.468)"/>
          <path id="Path_3786" data-name="Path 3786" d="M206.2,151.917c.174-.158.168-.565.062-1.086a3.053,3.053,0,0,0-.356,1.537A1.325,1.325,0,0,1,206.2,151.917Z" transform="translate(-192.937 -92.521)"/>
          <path id="Path_3787" data-name="Path 3787" d="M205.334,127.721a7.243,7.243,0,0,0-.424,1.952,7.873,7.873,0,0,1,.486-1.341Z" transform="translate(-193.033 -94.743)"/>
          <path id="Path_3788" data-name="Path 3788" d="M218.4,125.23a2.491,2.491,0,0,0,.057-.581c-.079.4-.133.763-.174,1.086C218.315,125.57,218.353,125.412,218.4,125.23Z" transform="translate(-191.747 -95.038)"/>
          <path id="Path_3789" data-name="Path 3789" d="M205.173,145.048a3.4,3.4,0,0,0,.157-1.181,4.011,4.011,0,0,0-.307,1.491,1.427,1.427,0,0,1,.149-.31Z" transform="translate(-193.022 -93.19)"/>
          <path id="Path_3790" data-name="Path 3790" d="M207.15,154.081a21.078,21.078,0,0,0-.73,3.258L200,158.08a13.356,13.356,0,0,1-1.436-2.715,4.922,4.922,0,0,1-.182-.467c-.386.176-.543.576-.033,1.741a13.573,13.573,0,0,0,1.439,2.715l6.422-.744s.478-3.345,1.113-3.983C207.647,154.32,207.446,154.159,207.15,154.081Z" transform="translate(-193.695 -92.208)"/>
          <path id="Path_3791" data-name="Path 3791" d="M199.058,149.972s.052,3.663.584,3.875h0c.272-.606.448-1.181.209-1.276-.543-.212-.584-3.878-.584-3.878s-1.062-4.345-.8-5.523-.85-3.981-.85-3.981l-.372-3.345a9.2,9.2,0,0,1-1.168-6.321v-5.159s-1.488-9.982-1.7-15.027c-.136-3.231-.1-7.641-.054-10.392,0-.5.016-.937.024-1.309l-.182.019s-.03,1.021-.054,2.566c-.043,2.751-.084,7.16.054,10.389.212,5.045,1.7,15.03,1.7,15.03V130.8a9.211,9.211,0,0,0,1.17,6.319l.369,3.345s1.116,2.813.85,3.983S199.058,149.972,199.058,149.972Z" transform="translate(-194.074 -97.636)"/>
          <path id="Path_3792" data-name="Path 3792" d="M215.978,156.645a6.21,6.21,0,0,1-1.018-2.523c-.654.592.1,2.889.815,3.8.741.956,6.264,1.54,7.331-.215V156.7C221.658,158.12,216.678,157.55,215.978,156.645Z" transform="translate(-192.09 -92.204)"/>
          <path id="Path_3793" data-name="Path 3793" d="M223.294,150.953a10.727,10.727,0,0,0-.744,1.594v.752a11.136,11.136,0,0,1,.543-1.064,3.258,3.258,0,0,0,.234-1.317S223.3,150.942,223.294,150.953Z" transform="translate(-191.336 -92.512)"/>
          <path id="Path_3794" data-name="Path 3794" d="M216.431,152.4a10.492,10.492,0,0,0,.524-1.263s-.9.212-2.338-1.488c-1.043-1.236-1.1-3.571-.953-5.1-.272.9-.692,4.673.741,6.373A3.782,3.782,0,0,0,216.431,152.4Z" transform="translate(-192.217 -93.124)"/>
          <path id="Path_3795" data-name="Path 3795" d="M214.46,143.534a28.294,28.294,0,0,1,.106,3.147,4.289,4.289,0,0,1,.109-.491,18.44,18.44,0,0,0,0-3.929,7.851,7.851,0,0,0-.372-2.816,34.285,34.285,0,0,1-1.314-4.622,3.126,3.126,0,0,0-.744-2.018c-.744-.69-1.222-3.4-1.222-3.4a3.494,3.494,0,0,1-.543-2.284,4.624,4.624,0,0,0-.9-2.762l-1.806-5.735-1.7-4.3-.959,2.5s0,.315-.033.815l.777-2.028,1.7,4.293,1.806,5.735a4.624,4.624,0,0,1,.9,2.762,3.5,3.5,0,0,0,.543,2.284s.478,2.715,1.222,3.4a3.108,3.108,0,0,1,.741,2.018,34.932,34.932,0,0,0,1.328,4.616A7.849,7.849,0,0,1,214.46,143.534Z" transform="translate(-193.016 -96.031)"/>
        </g>
        <path id="Path_3796" data-name="Path 3796" d="M218.162,52.281l-.4,1.939.024.863.016.635-2.216.228-.247-.459h0a20.576,20.576,0,0,0-1.719-2.781c-.41-.342-1.14-5.735-.272-5.414a2.316,2.316,0,0,1,1.233,1.116S218.947,48.909,218.162,52.281Z" transform="translate(-2.459 -27.558)" fill="#ffcdd3"/>
        <path id="Path_3797" data-name="Path 3797" d="M217.594,55.057l-2.216.228-.247-.459h0a1.952,1.952,0,0,1,2.444-.4Z" transform="translate(-2.248 -26.896)" opacity="0.1"/>
        <path id="Path_3798" data-name="Path 3798" d="M218.164,56.09l-2.922.676-.062-.434-.166-1.17a2.011,2.011,0,0,1,2.829-.386l.147.595Z" transform="translate(-2.26 -26.878)" fill="#6c63ff"/>
        <path id="Path_3799" data-name="Path 3799" d="M175.328,52.853l-3.12,1.673-.272-.587c-.3-.622-.739-1.559-.861-1.9-.185-.516-1.485-1.168-1.485-1.168-3.258-3.12.625-5.8.625-5.8,2.058-4.141,4.345,1.407,4.345,1.407a14.062,14.062,0,0,1,.1,3.12c-.225.2-.225,1-.225,1a12.255,12.255,0,0,1,.752,1.784C175.277,52.671,175.328,52.853,175.328,52.853Z" transform="translate(-6.752 -27.918)" fill="#ffcdd3"/>
        <path id="Path_3800" data-name="Path 3800" d="M175.008,52.079l-3.12,1.673-.272-.587c.44-.369,2-1.629,2.514-1.578a3.758,3.758,0,0,0,.739.019C174.957,51.9,175.008,52.079,175.008,52.079Z" transform="translate(-6.432 -27.144)" opacity="0.1"/>
        <path id="Path_3801" data-name="Path 3801" d="M175.318,53l-3.506,1.727-.071-.752-.049-.521s2.031-1.741,2.631-1.673a3.191,3.191,0,0,0,.915,0l.041.63Z" transform="translate(-6.425 -27.125)" fill="#6c63ff"/>
        <path id="Path_3802" data-name="Path 3802" d="M211.075,64.631s-15.282,1.724-12.426.8a3.82,3.82,0,0,0,2.943-3.313,7.958,7.958,0,0,0-.568-3.53,15.39,15.39,0,0,0-1.358-2.762s11.676-6.425,9.344-.584a9.417,9.417,0,0,0-.663,2.767,7.817,7.817,0,0,0,.3,2.8,8.345,8.345,0,0,0,2.425,3.823Z" transform="translate(-3.867 -27.028)" fill="#ffcdd3"/>
        <path id="Path_3803" data-name="Path 3803" d="M208.882,55.231A9.417,9.417,0,0,0,208.22,58c-1.1.926-2.305.863-3.856.863-1.189,0-2.509.288-3.459-.285a15.39,15.39,0,0,0-1.358-2.762S211.22,49.39,208.882,55.231Z" transform="translate(-3.747 -27.029)" opacity="0.1"/>
        <circle id="Ellipse_936" data-name="Ellipse 936" cx="6.319" cy="6.319" r="6.319" transform="translate(194.092 19.602)" fill="#ffcdd3"/>
        <path id="Path_3804" data-name="Path 3804" d="M211.075,63.986s-15.282,1.724-12.426.8a3.82,3.82,0,0,0,2.943-3.313,8.524,8.524,0,0,1,3.258-1.735,4.573,4.573,0,0,1,2.77-.046,3.937,3.937,0,0,1,1.007.467A8.344,8.344,0,0,0,211.075,63.986Z" transform="translate(-3.867 -26.383)" opacity="0.1"/>
        <path id="Path_3805" data-name="Path 3805" d="M218.15,56.009l-2.922.676-.062-.434a2.585,2.585,0,0,1,2.81-.961Z" transform="translate(-2.245 -26.797)" opacity="0.1"/>
        <path id="Path_3806" data-name="Path 3806" d="M175.314,52.947l-3.506,1.727-.071-.752a25.568,25.568,0,0,1,3.53-1.567Z" transform="translate(-6.421 -27.07)" opacity="0.1"/>
        <path id="Path_3807" data-name="Path 3807" d="M217.521,99.02c-5.922.945-14.34,2.151-15.676,1.743-1.111-.337-4.651-.3-7.733-.2.027-1.542.054-2.566.054-2.566l22.939-2.39A19.168,19.168,0,0,0,217.521,99.02Z" transform="translate(-4.269 -22.91)" opacity="0.1"/>
        <path id="Path_3808" data-name="Path 3808" d="M225.656,101.77s-19.488,3.345-21.579,2.715-12.83.052-12.83.052c-4.833,3.239-2.816-1.54-2.816-1.54a11.881,11.881,0,0,1,.16-4.513,27.573,27.573,0,0,0,.8-4.518s-.106-3.188.478-3.932,1.276-6.053,1.276-6.053.53-3.611.478-4.407.158-3.028.158-3.028l.692-3.717c-3.983-.53-16.091-7.964-16.091-7.964-.584-2.5-5.1-8.336-5.1-8.336a6.146,6.146,0,0,0-.372-1.434c-.318-.85,4.461-2.55,4.461-2.55s3.557,4.345,4.3,5.523a23.682,23.682,0,0,0,3.291,3.345,2.56,2.56,0,0,1,1.168.152l.062.019h0a9.465,9.465,0,0,1,2.376,1.358,4.616,4.616,0,0,1,3.239,1.222s2.172-.32,2.55.052,2.229,0,2.229,0,1.857-3.929,3.079-2.789,6.406,1.086,6.406,1.086a7.5,7.5,0,0,1,3.421-1.9,4.592,4.592,0,0,1,2.77-.046,3.514,3.514,0,0,1,1.086.543l3.153,3.079s.9-1.17.8-1.434,1.062-.478,1.062-.478,1.54-.478,2.123-.638,1.119.472,1.168.529a6.349,6.349,0,0,1-.272-2.335,2.759,2.759,0,0,0-.638-1.9c1.857-4.567,6.053-.744,6.053-.744s.478,2.5.054,3.451.424,2.973.318,3.506.215,1.434.215,2.444a14.93,14.93,0,0,1-.85,3.769c-.307.85-2.867,2.762-2.867,2.762a11.988,11.988,0,0,1-1.276,4.779c-1.116,1.751-.415,7.742-.415,7.742s1.062,4.673,2.39,6.161S225.656,101.77,225.656,101.77Z" transform="translate(-6.501 -27.051)" fill="#3f3d56"/>
        <path id="Path_3809" data-name="Path 3809" d="M195.17,65.861s-.584-1.751-1.116-1.9a12.281,12.281,0,0,1-1.54-.69l.342-.654s1.993.543,2.314,1.132A4.505,4.505,0,0,1,195.17,65.861Z" transform="translate(-4.423 -26.083)" opacity="0.1"/>
        <path id="Path_3810" data-name="Path 3810" d="M185.623,62.163c-.106.543-4.833,1.007-4.833,1.007l2.39-2.395h0l.06.022h0a9.466,9.466,0,0,1,2.384,1.366Z" transform="translate(-5.55 -26.26)" opacity="0.1"/>
        <circle id="Ellipse_937" data-name="Ellipse 937" cx="0.424" cy="0.424" r="0.424" transform="translate(165.974 28.191)" fill="#575988"/>
        <circle id="Ellipse_938" data-name="Ellipse 938" cx="0.424" cy="0.424" r="0.424" transform="translate(166.517 29.041)" fill="#575988"/>
        <circle id="Ellipse_939" data-name="Ellipse 939" cx="0.424" cy="0.424" r="0.424" transform="translate(167.05 29.826)" fill="#575988"/>
        <circle id="Ellipse_940" data-name="Ellipse 940" cx="0.424" cy="0.424" r="0.424" transform="translate(167.606 30.673)" fill="#575988"/>
        <circle id="Ellipse_941" data-name="Ellipse 941" cx="0.345" cy="0.345" r="0.345" transform="translate(217.74 30.705)" fill="#575988"/>
        <circle id="Ellipse_942" data-name="Ellipse 942" cx="0.345" cy="0.345" r="0.345" transform="translate(217.795 31.49)" fill="#575988"/>
        <circle id="Ellipse_943" data-name="Ellipse 943" cx="0.345" cy="0.345" r="0.345" transform="translate(217.841 32.272)" fill="#575988"/>
        <path id="Path_3811" data-name="Path 3811" d="M194.954,78.705c-.052-.062,11.921,15.054,21.212,6.319C216.175,85.026,201.493,87.017,194.954,78.705Z" transform="translate(-4.188 -24.536)" opacity="0.1"/>
        <path id="Path_3812" data-name="Path 3812" d="M188.687,85.874s7.163.2,7.913,2.256v2.145a1.374,1.374,0,0,1-1.333,0c-.722-.391-5.053-2.59-6.579-1.531Z" transform="translate(-4.791 -23.847)" opacity="0.1"/>
        <path id="Path_3813" data-name="Path 3813" d="M188.808,85.874s6.851.187,7.568,2.153v2.042a1.314,1.314,0,0,1-1.276,0c-.69-.369-4.831-2.468-6.292-1.458Z" transform="translate(-4.779 -23.847)" fill="#3f3d56"/>
        <path id="Path_3814" data-name="Path 3814" d="M192.254,71.685a23.05,23.05,0,0,0,2.778,4.765,18.7,18.7,0,0,0,4.345,4.2S192.374,72.668,192.254,71.685Z" transform="translate(-4.448 -25.211)" opacity="0.1"/>
        <path id="Path_3815" data-name="Path 3815" d="M190.116,64.092s1.195,5.159,4.274,6.911Z" transform="translate(-4.654 -25.941)" opacity="0.1"/>
        <path id="Path_3816" data-name="Path 3816" d="M188.453,64.568c-.03-.1-1.062,4.073,3.97,6.389C192.423,70.957,190.286,70.232,188.453,64.568Z" transform="translate(-4.824 -25.896)" opacity="0.1"/>
        <path id="Path_3817" data-name="Path 3817" d="M216.979,61.412a35.82,35.82,0,0,1,3.18,2.39S218.491,61.3,216.979,61.412Z" transform="translate(-2.071 -26.199)" opacity="0.1"/>
        <path id="Path_3818" data-name="Path 3818" d="M202.656,59.41a1,1,0,0,0,1.086.986,12.635,12.635,0,0,0,5.7-.543,2.172,2.172,0,0,0,.869-.576,3.572,3.572,0,0,0,.505-1.4,20.333,20.333,0,0,1,1.165-2.683,8.988,8.988,0,0,0,.627-4.82,3.258,3.258,0,0,0-.483-1.409c-.51-.73-1.442-1.026-2.118-1.607s-1.111-1.469-1.9-1.9a3.649,3.649,0,0,0-2.384-.212,12.515,12.515,0,0,0-4.448,1.67,2.269,2.269,0,0,1-1.488.505,1.99,1.99,0,0,1-1.086-.839,5.882,5.882,0,0,0-.453,2.756,1.184,1.184,0,0,1-.014.415,1.249,1.249,0,0,1-.3.437,1.608,1.608,0,0,0-.3,1.985c.2.242.519.375.717.622.356.443.236,1.086.228,1.651a.85.85,0,0,0,.141.559.815.815,0,0,0,.779.187,2.121,2.121,0,0,1,.831-.079,1.393,1.393,0,0,1,.722.543A10.206,10.206,0,0,1,202.656,59.41Z" transform="translate(-3.953 -27.763)" fill="#2d293d"/>
        <g id="Group_130" data-name="Group 130" transform="translate(193.448 18.763)" opacity="0.1">
          <path id="Path_3819" data-name="Path 3819" d="M210.539,58.334a2.172,2.172,0,0,1-.869.576,12.815,12.815,0,0,1-5.7.543,1,1,0,0,1-1.089-.988,9.907,9.907,0,0,0-1.61-3.736,1.4,1.4,0,0,0-.722-.557,2.227,2.227,0,0,0-.831.079.815.815,0,0,1-.779-.185.85.85,0,0,1-.141-.559c0-.57.128-1.208-.228-1.651-.2-.247-.513-.38-.717-.625a1.238,1.238,0,0,1-.122-1.265,1.448,1.448,0,0,0-.09,1.692c.2.242.519.375.717.622.356.445.236,1.086.228,1.651a.844.844,0,0,0,.139.559.815.815,0,0,0,.782.187,2.121,2.121,0,0,1,.831-.079,1.393,1.393,0,0,1,.722.543,9.924,9.924,0,0,1,1.61,3.739,1.358,1.358,0,0,0,.47.861,1.317,1.317,0,0,0,.6.13,12.6,12.6,0,0,0,5.7-.543,2.151,2.151,0,0,0,.869-.576,1.66,1.66,0,0,0,.272-.51A.134.134,0,0,1,210.539,58.334Z" transform="translate(-197.401 -46.063)"/>
          <path id="Path_3820" data-name="Path 3820" d="M198.176,49.468a.929.929,0,0,0,.193-.32,1.184,1.184,0,0,0,0-.415,5.889,5.889,0,0,1,.3-2.286l-.035-.041a5.838,5.838,0,0,0-.453,2.753,1.965,1.965,0,0,1,0,.31Z" transform="translate(-197.328 -46.405)"/>
        </g>
        <path id="Path_3821" data-name="Path 3821" d="M201.167,61.664s7.894,1.048,8.6-.138" transform="translate(-3.591 -26.188)" opacity="0.1"/>
        <path id="Path_3822" data-name="Path 3822" d="M215.166,58.672s4.388,0,5.352,1.651" transform="translate(-2.245 -26.462)" opacity="0.1"/>
        <path id="Path_3823" data-name="Path 3823" d="M238.071,192.81a6.959,6.959,0,0,1-4.738,1.77c-.445,0-1.062.084-1.064.53a.747.747,0,0,0,.13.364,4.358,4.358,0,0,0,2.444,1.92,8.637,8.637,0,0,0,2.957.187l2.892-.149c.543-.03,1.086-.057,1.629-.125s1.135-.179,1.7-.272a22.267,22.267,0,0,1,4.212-.2,1.275,1.275,0,0,0,1.037-.272c.223-.272.109-.79.024-1.2-.174-.839,0-1.719-.16-2.561a4.5,4.5,0,0,0-2.952-3.144c-1.3-.494-3.611-1.062-4.844-.236C240.039,190.3,239.244,191.743,238.071,192.81Z" transform="translate(-0.601 -13.93)" fill="#3f3d56"/>
        <path id="Path_3824" data-name="Path 3824" d="M240.692,147.857c.255,1.214,1.431,2.142,1.464,3.381a5.281,5.281,0,0,1-1.189,2.677,17.858,17.858,0,0,0-1.214,2.748,41.978,41.978,0,0,1-3.563,7.087c-.679,1.086-1.439,2.246-1.284,3.508a5.256,5.256,0,0,0,.616,1.678l2.037,4.046a11.715,11.715,0,0,1,1.04,2.555c.177.768.193,1.564.3,2.346.32,2.482,1.485,4.98.8,7.386-.06.206-.272.456-.437.312a7.738,7.738,0,0,1,1.162,3.948,5.5,5.5,0,0,0,.019,2.221,2.432,2.432,0,0,1,.318.874,5.574,5.574,0,0,1-.117.6,1.324,1.324,0,0,0,1.016,1.233c.546.182,1.14.168,1.692.334a10.381,10.381,0,0,1,2.715,1.863,5.781,5.781,0,0,0,3.128,1.018.787.787,0,0,0,.462-.092.747.747,0,0,0,.255-.559,3.106,3.106,0,0,0-1.119-2.7,1.222,1.222,0,0,1-.415-.434,1.048,1.048,0,0,1-.038-.486,36.6,36.6,0,0,0-.12-6.68,10.144,10.144,0,0,1-.106-2.126,8.685,8.685,0,0,0,.171-1.768,9.386,9.386,0,0,0-.543-1.694,12.21,12.21,0,0,1-.272-3.153,27.652,27.652,0,0,0-.893-5.431,4.107,4.107,0,0,0-.844-1.96c-.424-.443-1.108-.866-.948-1.455a1.724,1.724,0,0,1,.388-.578,2.322,2.322,0,0,0,.483-1.77.8.8,0,0,0,.915-.429,14.317,14.317,0,0,0,7.163-8.146,2.689,2.689,0,0,1,.32-.728,3.279,3.279,0,0,1,1.311-.85,9.961,9.961,0,0,0,3.446-3.514,6.211,6.211,0,0,0,1.512-4.385l.084-3.191a1.724,1.724,0,0,0-.06-.625,1.561,1.561,0,0,0-.345-.505,6.134,6.134,0,0,0-3.383-1.825c-.869-.155-1.757-.125-2.637-.2-1.705-.141-3.389-.671-5.094-.543a8.153,8.153,0,0,0-6.33,4.429C242.109,147.113,241.642,147.84,240.692,147.857Z" transform="translate(-0.349 -18.467)" fill="#464353"/>
        <path id="Path_3825" data-name="Path 3825" d="M226.867,129.02a3.566,3.566,0,0,1-.2,1.453,1.015,1.015,0,0,1-1.192.611c.138-.312-.228-.668-.57-.63a1.067,1.067,0,0,0-.752.646,2.4,2.4,0,0,0-.217,1.474,5.981,5.981,0,0,1,.375,1.852c-.076.521-.459,1.04-.255,1.523a2.468,2.468,0,0,0,.491.589,1.662,1.662,0,0,1-.176,2.281l5.137.1a3.628,3.628,0,0,0,.638,2.5,15.749,15.749,0,0,0,11.741,7.665,1.021,1.021,0,0,0-.247,1.561,1.451,1.451,0,0,0,1.651.1,11.748,11.748,0,0,0,1.412-1.059,4.344,4.344,0,0,1,2.9-.782c.644.062,1.268.272,1.914.3,1.9.1,3.53-1.268,5.36-1.827,1.333-.41,2.846-.41,3.964-1.244a1.58,1.58,0,0,0,.739-1.529,2.555,2.555,0,0,0-.543-.9,15.528,15.528,0,0,1-1.485-2.783,16.65,16.65,0,0,0-3.712-4.975,33.216,33.216,0,0,0-3.682-2.791,6.28,6.28,0,0,0-.994-.6,11.143,11.143,0,0,1-1.358-.543,7.237,7.237,0,0,1-1.415-1.591c-1.018-1.189-2.582-1.735-3.837-2.669a9.1,9.1,0,0,0-2.59-1.754c-.489-.149-1.007-.16-1.5-.307-1.111-.337-1.92-1.322-3.009-1.722a12.074,12.074,0,0,0-2.715-.345,6.357,6.357,0,0,1-2.838-1.081,3.367,3.367,0,0,0-.9-.527c-1.377-.418-1.488,2.145-1.629,3.033A29.258,29.258,0,0,0,226.867,129.02Z" transform="translate(-1.405 -20.376)" fill="#6c63ff"/>
        <path id="Path_3826" data-name="Path 3826" d="M229.5,136.612c.231,2.5-1.659,4.928-1.108,7.38.117.521.342,1.018.424,1.548.231,1.453-.638,2.829-1.466,4.046l-7.114,10.441a6.566,6.566,0,0,1-1.016,1.254c-1.358,1.208-3.4,1.086-5.186,1.445a8.961,8.961,0,0,0-3.476,1.537.225.225,0,0,0-.043.312,2.987,2.987,0,0,0,2.582,1.214c.187.244,0,.608-.258.785-.38.272-.907.334-.983.983a1.086,1.086,0,0,0,.13.652,2.028,2.028,0,0,0,1.244.863c2.463.755,5.124-.57,6.968-2.371s3.166-4.073,4.975-5.9c1-1.016,2.14-1.882,3.172-2.865a36.283,36.283,0,0,0,5.2-6.731,7.45,7.45,0,0,0,1.127-2.292c.193-.834.1-1.678.323-2.485a9.129,9.129,0,0,1,1.705-2.786,9.214,9.214,0,0,0,1.939-6.006,5.757,5.757,0,0,0-3.514-4.983,3.158,3.158,0,0,0-1.969-.12,4.663,4.663,0,0,0-2,1.6l-1.358,1.559a3.636,3.636,0,0,0-.763,1.2,1.252,1.252,0,0,0,.272,1.331" transform="translate(-2.696 -19.37)" fill="#fbbebe"/>
        <path id="Path_3827" data-name="Path 3827" d="M231.525,126.884a3.891,3.891,0,0,0-2.623.815,3.734,3.734,0,0,0-.663,1.037,10.33,10.33,0,0,0-1.312,4.127,18.883,18.883,0,0,0,.475,3.449,13.191,13.191,0,0,1-.3,2.9,20.111,20.111,0,0,0,3.742-1.439,12.529,12.529,0,0,1,2.191-1.138c1.116-.372,2.987.272,4.049.787.057-.744-.5-2.042-.443-2.789a3.115,3.115,0,0,1,.166-.923,5.6,5.6,0,0,1,.562-.893,3.655,3.655,0,0,0-.329-4.282,5.964,5.964,0,0,0-3.823-1.629,16.536,16.536,0,0,0-2.669-.092" transform="translate(-1.114 -19.912)" fill="#6c63ff"/>
      </g>
    </g>
  </g>
</svg>
